Roboto_Serif_Text_Wide-Regular_G1.ufo
<glyph name="exclam" format="2">
  <advance width="314"/>
  <unicode hex="0021"/>
  <outline>
    <contour>
      <point x="217" y="735" type="line"/>
      <point x="217" y="552"/>
      <point x="176" y="451"/>
      <point x="176" y="217" type="curve"/>
      <point x="139" y="217" type="line"/>
      <point x="139" y="451"/>
      <point x="98" y="551"/>
      <point x="98" y="735" type="curve"/>
    </contour>
    <component base="period" xOffset="14"/>
  </outline>
</glyph>
<glyph name="percent" format="2">
  <advance width="915"/>
  <unicode hex="0025"/>
  <outline>
    <contour>
      <point x="235" y="382" type="curve" smooth="yes"/>
      <point x="343" y="382"/>
      <point x="421" y="454"/>
      <point x="421" y="551" type="curve" smooth="yes"/>
      <point x="421" y="649"/>
      <point x="343" y="720"/>
      <point x="235" y="720" type="curve" smooth="yes"/>
      <point x="127" y="720"/>
      <point x="50" y="648"/>
      <point x="50" y="551" type="curve" smooth="yes"/>
      <point x="50" y="453"/>
      <point x="127" y="382"/>
    </contour>
    <contour>
      <point x="235" y="410" type="curve" smooth="yes"/>
      <point x="172" y="410"/>
      <point x="134" y="468"/>
      <point x="134" y="551" type="curve" smooth="yes"/>
      <point x="134" y="633"/>
      <point x="172" y="692"/>
      <point x="235" y="692" type="curve" smooth="yes"/>
      <point x="298" y="692"/>
      <point x="337" y="633"/>
      <point x="337" y="551" type="curve" smooth="yes"/>
      <point x="337" y="468"/>
      <point x="298" y="410"/>
    </contour>
    <contour>
      <point x="680" y="-10" type="curve" smooth="yes"/>
      <point x="788" y="-10"/>
      <point x="865" y="62"/>
      <point x="865" y="159" type="curve" smooth="yes"/>
      <point x="865" y="257"/>
      <point x="788" y="328"/>
      <point x="680" y="328" type="curve" smooth="yes"/>
      <point x="572" y="328"/>
      <point x="495" y="256"/>
      <point x="495" y="159" type="curve" smooth="yes"/>
      <point x="495" y="61"/>
      <point x="572" y="-10"/>
    </contour>
    <contour>
      <point x="58" y="0" type="line"/>
      <point x="122" y="0" type="line"/>
      <point x="856" y="710" type="line"/>
      <point x="792" y="710" type="line"/>
    </contour>
    <contour>
      <point x="680" y="18" type="curve" smooth="yes"/>
      <point x="617" y="18"/>
      <point x="579" y="77"/>
      <point x="579" y="159" type="curve" smooth="yes"/>
      <point x="579" y="242"/>
      <point x="617" y="300"/>
      <point x="680" y="300" type="curve" smooth="yes"/>
      <point x="743" y="300"/>
      <point x="781" y="242"/>
      <point x="781" y="159" type="curve" smooth="yes"/>
      <point x="781" y="77"/>
      <point x="743" y="18"/>
    </contour>
  </outline>
</glyph>
<glyph name="ampersand" format="2">
  <advance width="864"/>
  <unicode hex="0026"/>
  <outline>
    <contour>
      <point x="727" y="327" type="curve" smooth="yes"/>
      <point x="733" y="357"/>
      <point x="754" y="364"/>
      <point x="806" y="364" type="curve" smooth="yes"/>
      <point x="808" y="364" type="line"/>
      <point x="808" y="395" type="line"/>
      <point x="581" y="395" type="line"/>
      <point x="581" y="364" type="line"/>
      <point x="583" y="364" type="line" smooth="yes"/>
      <point x="612" y="364"/>
      <point x="663" y="361"/>
      <point x="663" y="354" type="curve" smooth="yes"/>
      <point x="663" y="235"/>
      <point x="546" y="31"/>
      <point x="354" y="31" type="curve" smooth="yes"/>
      <point x="220" y="31"/>
      <point x="153" y="95"/>
      <point x="153" y="200" type="curve" smooth="yes"/>
      <point x="153" y="294"/>
      <point x="226" y="355"/>
      <point x="330" y="385" type="curve"/>
      <point x="313" y="416" type="line"/>
      <point x="163" y="380"/>
      <point x="59" y="312"/>
      <point x="59" y="193" type="curve" smooth="yes"/>
      <point x="59" y="71"/>
      <point x="163" y="-10"/>
      <point x="342" y="-10" type="curve" smooth="yes"/>
      <point x="590" y="-10"/>
      <point x="705" y="222"/>
    </contour>
    <contour>
      <point x="807" y="0" type="line"/>
      <point x="807" y="44" type="line"/>
      <point x="781" y="44" type="line" smooth="yes"/>
      <point x="733" y="44"/>
      <point x="709" y="59"/>
      <point x="673" y="87" type="curve" smooth="yes"/>
      <point x="423" y="284"/>
      <point x="311" y="430"/>
      <point x="311" y="549" type="curve" smooth="yes"/>
      <point x="311" y="639"/>
      <point x="358" y="678"/>
      <point x="430" y="678" type="curve" smooth="yes"/>
      <point x="501" y="678"/>
      <point x="533" y="642"/>
      <point x="533" y="576" type="curve" smooth="yes"/>
      <point x="533" y="507"/>
      <point x="457" y="458"/>
      <point x="336" y="426" type="curve"/>
      <point x="355" y="391" type="line"/>
      <point x="490" y="424"/>
      <point x="608" y="486"/>
      <point x="608" y="583" type="curve" smooth="yes"/>
      <point x="608" y="668"/>
      <point x="544" y="720"/>
      <point x="430" y="720" type="curve" smooth="yes"/>
      <point x="310" y="720"/>
      <point x="229" y="653"/>
      <point x="229" y="548" type="curve" smooth="yes"/>
      <point x="229" y="376"/>
      <point x="421" y="190"/>
      <point x="665" y="0" type="curve"/>
    </contour>
  </outline>
</glyph>
<glyph name="quotesingle" format="2">
  <advance width="275"/>
  <unicode hex="0027"/>
  <outline>
    <contour>
      <point x="191" y="710" type="line"/>
      <point x="191" y="635"/>
      <point x="161" y="600"/>
      <point x="161" y="473" type="curve"/>
      <point x="115" y="473" type="line"/>
      <point x="115" y="600"/>
      <point x="84" y="634"/>
      <point x="84" y="710" type="curve"/>
    </contour>
  </outline>
</glyph>
<glyph name="parenleft" format="2">
  <advance width="377"/>
  <unicode hex="0028"/>
  <outline>
    <contour>
      <point x="132" y="310" type="curve" smooth="yes"/>
      <point x="132" y="111"/>
      <point x="233" y="-47"/>
      <point x="352" y="-127" type="curve"/>
      <point x="352" y="-130" type="line"/>
      <point x="293" y="-130" type="line"/>
      <point x="167" y="-50"/>
      <point x="55" y="118"/>
      <point x="55" y="310" type="curve" smooth="yes"/>
      <point x="55" y="502"/>
      <point x="167" y="670"/>
      <point x="293" y="750" type="curve"/>
      <point x="352" y="750" type="line"/>
      <point x="352" y="747" type="line"/>
      <point x="233" y="667"/>
      <point x="132" y="509"/>
    </contour>
  </outline>
</glyph>
<glyph name="asterisk" format="2">
  <advance width="456"/>
  <unicode hex="002A"/>
  <outline>
    <contour>
      <point x="73" y="404" type="line"/>
      <point x="129" y="433"/>
      <point x="160" y="476"/>
      <point x="237" y="516" type="curve"/>
      <point x="219" y="543" type="line"/>
      <point x="141" y="503"/>
      <point x="91" y="496"/>
      <point x="36" y="466" type="curve"/>
    </contour>
    <contour>
      <point x="191" y="710" type="line"/>
      <point x="191" y="653"/>
      <point x="211" y="607"/>
      <point x="211" y="529" type="curve"/>
      <point x="246" y="529" type="line"/>
      <point x="246" y="607"/>
      <point x="266" y="653"/>
      <point x="266" y="710" type="curve"/>
    </contour>
    <contour>
      <point x="36" y="590" type="line"/>
      <point x="92" y="561"/>
      <point x="141" y="554"/>
      <point x="219" y="516" type="curve"/>
      <point x="237" y="543" type="line"/>
      <point x="160" y="582"/>
      <point x="129" y="626"/>
      <point x="73" y="653" type="curve"/>
    </contour>
    <contour>
      <point x="191" y="347" type="curve"/>
      <point x="266" y="347" type="line"/>
      <point x="266" y="404"/>
      <point x="246" y="453"/>
      <point x="246" y="529" type="curve"/>
      <point x="211" y="529" type="line"/>
      <point x="211" y="453"/>
      <point x="191" y="404"/>
    </contour>
    <contour>
      <point x="239" y="516" type="line"/>
      <point x="316" y="554"/>
      <point x="365" y="560"/>
      <point x="420" y="590" type="curve"/>
      <point x="384" y="653" type="line"/>
      <point x="328" y="625"/>
      <point x="300" y="582"/>
      <point x="221" y="543" type="curve"/>
    </contour>
    <contour>
      <point x="384" y="404" type="curve"/>
      <point x="420" y="466" type="line"/>
      <point x="366" y="497"/>
      <point x="316" y="503"/>
      <point x="239" y="543" type="curve"/>
      <point x="221" y="516" type="line"/>
      <point x="300" y="476"/>
      <point x="328" y="434"/>
    </contour>
  </outline>
</glyph>
<glyph name="comma" format="2">
  <advance width="307"/>
  <unicode hex="002C"/>
  <outline>
    <contour>
      <point x="123" y="-164" type="line"/>
      <point x="199" y="-108"/>
      <point x="232" y="-34"/>
      <point x="232" y="40" type="curve" smooth="yes"/>
      <point x="232" y="96"/>
      <point x="205" y="126"/>
      <point x="158" y="126" type="curve" smooth="yes"/>
      <point x="116" y="126"/>
      <point x="85" y="99"/>
      <point x="85" y="60" type="curve" smooth="yes"/>
      <point x="85" y="21"/>
      <point x="115" y="-6"/>
      <point x="164" y="-6" type="curve" smooth="yes"/>
      <point x="185" y="-6"/>
      <point x="198" y="-3"/>
      <point x="208" y="10" type="curve"/>
      <point x="196" y="19"/>
      <point x="194" y="20"/>
      <point x="189" y="11" type="curve"/>
      <point x="187" y="-33"/>
      <point x="125" y="-87"/>
      <point x="52" y="-131" type="curve"/>
    </contour>
  </outline>
</glyph>
<glyph name="one" format="2">
  <advance width="680"/>
  <unicode hex="0031"/>
  <outline>
    <contour>
      <point x="419" y="73" type="curve" smooth="yes"/>
      <point x="419" y="609" type="line"/>
      <point x="357" y="609" type="line"/>
      <point x="315" y="558"/>
      <point x="241" y="525"/>
      <point x="115" y="523" type="curve"/>
      <point x="115" y="458" type="line"/>
      <point x="218" y="456"/>
      <point x="313" y="507"/>
      <point x="338" y="559" type="curve"/>
      <point x="320" y="549" type="line"/>
      <point x="320" y="73" type="line" smooth="yes"/>
      <point x="320" y="44"/>
      <point x="273" y="37"/>
      <point x="196" y="37" type="curve" smooth="yes"/>
      <point x="134" y="37" type="line"/>
      <point x="134" y="0" type="line"/>
      <point x="604" y="0" type="line"/>
      <point x="604" y="37" type="line"/>
      <point x="554" y="37" type="line" smooth="yes"/>
      <point x="471" y="37"/>
      <point x="419" y="44"/>
    </contour>
  </outline>
</glyph>
<glyph name="two" format="2">
  <advance width="680"/>
  <unicode hex="0032"/>
  <outline>
    <contour>
      <point x="411" y="76" type="line" smooth="yes"/>
      <point x="513" y="76"/>
      <point x="546" y="83"/>
      <point x="552" y="124" type="curve" smooth="yes"/>
      <point x="562" y="193" type="line"/>
      <point x="609" y="193" type="line"/>
      <point x="609" y="0" type="line"/>
      <point x="69" y="0" type="line"/>
      <point x="69" y="85" type="line"/>
      <point x="277" y="184"/>
      <point x="479" y="305"/>
      <point x="479" y="446" type="curve" smooth="yes"/>
      <point x="479" y="542"/>
      <point x="422" y="574"/>
      <point x="334" y="574" type="curve" smooth="yes"/>
      <point x="241" y="574"/>
      <point x="176" y="542"/>
      <point x="138" y="496" type="curve"/>
      <point x="143" y="532"/>
      <point x="157" y="555"/>
      <point x="185" y="558" type="curve"/>
      <point x="185" y="438" type="line"/>
      <point x="89" y="438" type="line"/>
      <point x="89" y="537" type="line"/>
      <point x="132" y="575"/>
      <point x="219" y="618"/>
      <point x="334" y="618" type="curve" smooth="yes"/>
      <point x="485" y="618"/>
      <point x="580" y="557"/>
      <point x="580" y="450" type="curve" smooth="yes"/>
      <point x="580" y="298"/>
      <point x="333" y="158"/>
      <point x="107" y="57" type="curve"/>
      <point x="103" y="59"/>
      <point x="98" y="70"/>
      <point x="102" y="76" type="curve"/>
    </contour>
  </outline>
</glyph>
<glyph name="five" format="2">
  <advance width="680"/>
  <unicode hex="0035"/>
  <outline>
    <contour>
      <point x="327" y="-90" type="curve" smooth="yes"/>
      <point x="180" y="-90"/>
      <point x="94" y="-24"/>
      <point x="48" y="52" type="curve"/>
      <point x="95" y="90" type="line"/>
      <point x="131" y="32"/>
      <point x="200" y="-43"/>
      <point x="327" y="-43" type="curve" smooth="yes"/>
      <point x="442" y="-43"/>
      <point x="517" y="24"/>
      <point x="517" y="147" type="curve" smooth="yes"/>
      <point x="517" y="262"/>
      <point x="441" y="319"/>
      <point x="347" y="319" type="curve" smooth="yes"/>
      <point x="274" y="319"/>
      <point x="216" y="296"/>
      <point x="172" y="238" type="curve"/>
      <point x="113" y="238" type="line"/>
      <point x="113" y="609" type="line"/>
      <point x="568" y="609" type="line"/>
      <point x="541" y="529" type="line"/>
      <point x="152" y="529" type="line"/>
      <point x="167" y="589" type="line"/>
      <point x="167" y="276" type="line"/>
      <point x="163" y="266"/>
      <point x="157" y="258"/>
      <point x="155" y="279" type="curve"/>
      <point x="197" y="333"/>
      <point x="275" y="366"/>
      <point x="363" y="366" type="curve" smooth="yes"/>
      <point x="521" y="366"/>
      <point x="618" y="264"/>
      <point x="618" y="147" type="curve" smooth="yes"/>
      <point x="618" y="7"/>
      <point x="502" y="-90"/>
    </contour>
  </outline>
</glyph>
<glyph name="six" format="2">
  <advance width="680"/>
  <unicode hex="0036"/>
  <outline>
    <contour>
      <point x="536" y="698" type="line"/>
      <point x="310" y="665"/>
      <point x="158" y="511"/>
      <point x="158" y="294" type="curve" smooth="yes"/>
      <point x="158" y="106"/>
      <point x="238" y="37"/>
      <point x="353" y="37" type="curve" smooth="yes"/>
      <point x="457" y="37"/>
      <point x="521" y="107"/>
      <point x="521" y="229" type="curve" smooth="yes"/>
      <point x="521" y="342"/>
      <point x="470" y="407"/>
      <point x="370" y="407" type="curve" smooth="yes"/>
      <point x="265" y="407"/>
      <point x="189" y="343"/>
      <point x="141" y="260" type="curve"/>
      <point x="128" y="298" type="line"/>
      <point x="164" y="374"/>
      <point x="258" y="453"/>
      <point x="382" y="453" type="curve" smooth="yes"/>
      <point x="522" y="453"/>
      <point x="624" y="371"/>
      <point x="624" y="229" type="curve" smooth="yes"/>
      <point x="624" y="92"/>
      <point x="509" y="-10"/>
      <point x="353" y="-10" type="curve" smooth="yes"/>
      <point x="186" y="-10"/>
      <point x="57" y="92"/>
      <point x="57" y="295" type="curve" smooth="yes"/>
      <point x="57" y="513"/>
      <point x="247" y="701"/>
      <point x="528" y="740" type="curve"/>
    </contour>
  </outline>
</glyph>
<glyph name="eight" format="2">
  <advance width="680"/>
  <unicode hex="0038"/>
  <outline>
    <contour>
      <point x="340" y="32" type="curve" smooth="yes"/>
      <point x="234" y="32"/>
      <point x="162" y="95"/>
      <point x="162" y="192" type="curve" smooth="yes"/>
      <point x="162" y="303"/>
      <point x="234" y="353"/>
      <point x="340" y="353" type="curve" smooth="yes"/>
      <point x="446" y="353"/>
      <point x="518" y="303"/>
      <point x="518" y="192" type="curve" smooth="yes"/>
      <point x="518" y="95"/>
      <point x="446" y="32"/>
    </contour>
    <contour>
      <point x="340" y="399" type="curve" smooth="yes"/>
      <point x="256" y="399"/>
      <point x="198" y="445"/>
      <point x="198" y="539" type="curve" smooth="yes"/>
      <point x="198" y="624"/>
      <point x="255" y="678"/>
      <point x="340" y="678" type="curve" smooth="yes"/>
      <point x="425" y="678"/>
      <point x="482" y="624"/>
      <point x="482" y="539" type="curve" smooth="yes"/>
      <point x="482" y="445"/>
      <point x="424" y="399"/>
    </contour>
    <contour>
      <point x="340" y="720" type="curve" smooth="yes"/>
      <point x="203" y="720"/>
      <point x="101" y="647"/>
      <point x="101" y="543" type="curve" smooth="yes"/>
      <point x="101" y="461"/>
      <point x="160" y="403"/>
      <point x="278" y="372" type="curve"/>
      <point x="253" y="386" type="line"/>
      <point x="253" y="374" type="line"/>
      <point x="278" y="384" type="line"/>
      <point x="137" y="355"/>
      <point x="57" y="289"/>
      <point x="57" y="193" type="curve" smooth="yes"/>
      <point x="57" y="74"/>
      <point x="178" y="-10"/>
      <point x="340" y="-10" type="curve" smooth="yes"/>
      <point x="502" y="-10"/>
      <point x="623" y="74"/>
      <point x="623" y="193" type="curve" smooth="yes"/>
      <point x="623" y="289"/>
      <point x="543" y="355"/>
      <point x="402" y="384" type="curve"/>
      <point x="427" y="373" type="line"/>
      <point x="427" y="384" type="line"/>
      <point x="402" y="372" type="line"/>
      <point x="520" y="403"/>
      <point x="579" y="461"/>
      <point x="579" y="543" type="curve" smooth="yes"/>
      <point x="579" y="647"/>
      <point x="477" y="720"/>
    </contour>
  </outline>
</glyph>
<glyph name="question" format="2">
  <advance width="631"/>
  <unicode hex="003F"/>
  <outline>
    <contour>
      <point x="257" y="344" type="line"/>
      <point x="380" y="385"/>
      <point x="478" y="438"/>
      <point x="478" y="556" type="curve" smooth="yes"/>
      <point x="478" y="643"/>
      <point x="411" y="699"/>
      <point x="317" y="699" type="curve" smooth="yes"/>
      <point x="222" y="699"/>
      <point x="157" y="673"/>
      <point x="126" y="633" type="curve"/>
      <point x="127" y="667"/>
      <point x="136" y="666"/>
      <point x="167" y="671" type="curve"/>
      <point x="167" y="558" type="line"/>
      <point x="72" y="558" type="line"/>
      <point x="72" y="660" type="line"/>
      <point x="108" y="698"/>
      <point x="201" y="741"/>
      <point x="319" y="741" type="curve" smooth="yes"/>
      <point x="474" y="741"/>
      <point x="572" y="666"/>
      <point x="572" y="555" type="curve" smooth="yes"/>
      <point x="572" y="430"/>
      <point x="448" y="360"/>
      <point x="327" y="324" type="curve"/>
      <point x="327" y="217" type="line"/>
      <point x="257" y="217" type="line"/>
    </contour>
    <component base="period" xOffset="148" yOffset="-1"/>
  </outline>
</glyph>
<glyph name="at" format="2">
  <advance width="1061"/>
  <unicode hex="0040"/>
  <outline>
    <contour>
      <point x="538" y="-107" type="curve" smooth="yes"/>
      <point x="295" y="-107"/>
      <point x="121" y="22"/>
      <point x="121" y="231" type="curve" smooth="yes"/>
      <point x="121" y="456"/>
      <point x="315" y="627"/>
      <point x="576" y="627" type="curve" smooth="yes"/>
      <point x="810" y="627"/>
      <point x="946" y="502"/>
      <point x="946" y="342" type="curve" smooth="yes"/>
      <point x="946" y="183"/>
      <point x="848" y="98"/>
      <point x="776" y="98" type="curve" smooth="yes"/>
      <point x="724" y="98"/>
      <point x="697" y="123"/>
      <point x="707" y="179" type="curve" smooth="yes"/>
      <point x="758" y="468" type="line"/>
      <point x="715" y="468" type="line"/>
      <point x="668" y="386" type="line"/>
      <point x="654" y="381" type="line"/>
      <point x="614" y="151" type="line"/>
      <point x="622" y="143" type="line"/>
      <point x="629" y="96"/>
      <point x="678" y="55"/>
      <point x="762" y="55" type="curve" smooth="yes"/>
      <point x="881" y="56"/>
      <point x="1001" y="159"/>
      <point x="1001" y="342" type="curve" smooth="yes"/>
      <point x="1001" y="532"/>
      <point x="836" y="673"/>
      <point x="576" y="673" type="curve" smooth="yes"/>
      <point x="283" y="673"/>
      <point x="60" y="487"/>
      <point x="60" y="231" type="curve" smooth="yes"/>
      <point x="60" y="-8"/>
      <point x="263" y="-153"/>
      <point x="538" y="-153" type="curve" smooth="yes"/>
      <point x="663" y="-153"/>
      <point x="781" y="-126"/>
      <point x="848" y="-99" type="curve"/>
      <point x="831" y="-58" type="line"/>
      <point x="764" y="-83"/>
      <point x="661" y="-107"/>
    </contour>
    <contour>
      <point x="480" y="49" type="curve" smooth="yes"/>
      <point x="570" y="49"/>
      <point x="613" y="110"/>
      <point x="689" y="209" type="curve"/>
      <point x="665" y="237" type="line"/>
      <point x="604" y="153"/>
      <point x="554" y="90"/>
      <point x="485" y="90" type="curve" smooth="yes"/>
      <point x="426" y="90"/>
      <point x="393" y="138"/>
      <point x="393" y="216" type="curve" smooth="yes"/>
      <point x="393" y="324"/>
      <point x="451" y="432"/>
      <point x="546" y="432" type="curve" smooth="yes"/>
      <point x="604" y="432"/>
      <point x="648" y="400"/>
      <point x="672" y="316" type="curve"/>
      <point x="705" y="328" type="line"/>
      <point x="676" y="437"/>
      <point x="620" y="474"/>
      <point x="540" y="474" type="curve" smooth="yes"/>
      <point x="384" y="474"/>
      <point x="301" y="344"/>
      <point x="301" y="226" type="curve" smooth="yes"/>
      <point x="301" y="111"/>
      <point x="378" y="49"/>
    </contour>
  </outline>
</glyph>
<glyph name="A" format="2">
  <advance width="809"/>
  <unicode hex="0041"/>
  <anchor x="404" y="721" name="top"/>
  <anchor x="404" y="0" name="bottom"/>
  <anchor x="640" y="0" name="right"/>
  <outline>
    <contour>
      <point x="213" y="291" type="line"/>
      <point x="207" y="253" type="line"/>
      <point x="570" y="253" type="line"/>
      <point x="569" y="291" type="line"/>
    </contour>
    <contour>
      <point x="367" y="687" type="line"/>
      <point x="634" y="44" type="line"/>
      <point x="634" y="38"/>
      <point x="582" y="34"/>
      <point x="546" y="34" type="curve" smooth="yes"/>
      <point x="526" y="34" type="line"/>
      <point x="526" y="0" type="line"/>
      <point x="799" y="0" type="line"/>
      <point x="799" y="34" type="line"/>
      <point x="793" y="34" type="line" smooth="yes"/>
      <point x="757" y="34"/>
      <point x="740" y="38"/>
      <point x="730" y="62" type="curve" smooth="yes"/>
      <point x="459" y="710" type="line"/>
      <point x="347" y="710" type="line"/>
      <point x="95" y="77" type="line" smooth="yes"/>
      <point x="81" y="43"/>
      <point x="55" y="34"/>
      <point x="16" y="34" type="curve" smooth="yes"/>
      <point x="10" y="34" type="line"/>
      <point x="10" y="0" type="line"/>
      <point x="254" y="0" type="line"/>
      <point x="254" y="34" type="line"/>
      <point x="236" y="34" type="line" smooth="yes"/>
      <point x="198" y="34"/>
      <point x="140" y="41"/>
      <point x="140" y="53" type="curve"/>
      <point x="380" y="687" type="line"/>
    </contour>
  </outline>
</glyph>
<glyph name="B" format="2">
  <advance width="766"/>
  <unicode hex="0042"/>
  <outline>
    <contour>
      <point x="410" y="710" type="curve" smooth="yes"/>
      <point x="61" y="710" type="line"/>
      <point x="61" y="676" type="line"/>
      <point x="74" y="676" type="line" smooth="yes"/>
      <point x="123" y="676"/>
      <point x="159" y="669"/>
      <point x="159" y="640" type="curve"/>
      <point x="159" y="70" type="line"/>
      <point x="159" y="41"/>
      <point x="123" y="34"/>
      <point x="74" y="34" type="curve" smooth="yes"/>
      <point x="61" y="34" type="line"/>
      <point x="61" y="0" type="line"/>
      <point x="422" y="0" type="line" smooth="yes"/>
      <point x="605" y="0"/>
      <point x="711" y="72"/>
      <point x="711" y="195" type="curve" smooth="yes"/>
      <point x="711" y="313"/>
      <point x="607" y="380"/>
      <point x="414" y="381" type="curve"/>
      <point x="500" y="350" type="line"/>
      <point x="500" y="396" type="line"/>
      <point x="405" y="369" type="line"/>
      <point x="581" y="369"/>
      <point x="675" y="435"/>
      <point x="675" y="537" type="curve" smooth="yes"/>
      <point x="675" y="648"/>
      <point x="585" y="710"/>
    </contour>
    <contour>
      <point x="236" y="391" type="line"/>
      <point x="236" y="353" type="line"/>
      <point x="423" y="353" type="line" smooth="yes"/>
      <point x="553" y="353"/>
      <point x="608" y="296"/>
      <point x="608" y="201" type="curve" smooth="yes"/>
      <point x="608" y="94"/>
      <point x="548" y="40"/>
      <point x="420" y="40" type="curve" smooth="yes"/>
      <point x="258" y="40" type="line"/>
      <point x="258" y="670" type="line"/>
      <point x="410" y="670" type="line" smooth="yes"/>
      <point x="522" y="670"/>
      <point x="574" y="624"/>
      <point x="574" y="531" type="curve" smooth="yes"/>
      <point x="574" y="448"/>
      <point x="527" y="391"/>
      <point x="407" y="391" type="curve" smooth="yes"/>
    </contour>
  </outline>
</glyph>
<glyph name="D" format="2">
  <advance width="877"/>
  <unicode hex="0044"/>
  <anchor x="441" y="741" name="top"/>
  <anchor x="441" y="0" name="bottom"/>
  <outline>
    <contour>
      <point x="61" y="676" type="line"/>
      <point x="74" y="676" type="line" smooth="yes"/>
      <point x="123" y="676"/>
      <point x="159" y="669"/>
      <point x="159" y="640" type="curve" smooth="yes"/>
      <point x="159" y="70" type="line" smooth="yes"/>
      <point x="159" y="41"/>
      <point x="123" y="34"/>
      <point x="74" y="34" type="curve" smooth="yes"/>
      <point x="61" y="34" type="line"/>
      <point x="61" y="0" type="line"/>
      <point x="409" y="0" type="line" smooth="yes"/>
      <point x="662" y="0"/>
      <point x="830" y="140"/>
      <point x="830" y="357" type="curve" smooth="yes"/>
      <point x="830" y="577"/>
      <point x="665" y="710"/>
      <point x="409" y="710" type="curve" smooth="yes"/>
      <point x="61" y="710" type="line"/>
    </contour>
    <contour>
      <point x="409" y="668" type="line" smooth="yes"/>
      <point x="606" y="668"/>
      <point x="725" y="563"/>
      <point x="725" y="357" type="curve" smooth="yes"/>
      <point x="725" y="151"/>
      <point x="606" y="42"/>
      <point x="409" y="42" type="curve" smooth="yes"/>
      <point x="258" y="42" type="line"/>
      <point x="258" y="668" type="line"/>
    </contour>
  </outline>
</glyph>
<glyph name="E" format="2">
  <advance width="743"/>
  <unicode hex="0045"/>
  <anchor x="439" y="741" name="top"/>
  <anchor x="439" y="0" name="bottom"/>
  <anchor x="513" y="0" name="right"/>
  <outline>
    <contour>
      <point x="682" y="203" type="line"/>
      <point x="630" y="203" type="line"/>
      <point x="621" y="114" type="line" smooth="yes"/>
      <point x="615" y="50"/>
      <point x="593" y="42"/>
      <point x="479" y="42" type="curve" smooth="yes"/>
      <point x="258" y="42" type="line"/>
      <point x="258" y="668" type="line"/>
      <point x="444" y="668" type="line" smooth="yes"/>
      <point x="555" y="668"/>
      <point x="581" y="662"/>
      <point x="588" y="593" type="curve" smooth="yes"/>
      <point x="596" y="532" type="line"/>
      <point x="647" y="532" type="line"/>
      <point x="647" y="710" type="line"/>
      <point x="61" y="710" type="line"/>
      <point x="61" y="676" type="line"/>
      <point x="74" y="676" type="line" smooth="yes"/>
      <point x="123" y="676"/>
      <point x="159" y="669"/>
      <point x="159" y="640" type="curve" smooth="yes"/>
      <point x="159" y="70" type="line" smooth="yes"/>
      <point x="159" y="41"/>
      <point x="123" y="34"/>
      <point x="74" y="34" type="curve" smooth="yes"/>
      <point x="61" y="34" type="line"/>
      <point x="61" y="0" type="line"/>
      <point x="682" y="0" type="line"/>
    </contour>
    <contour>
      <point x="224" y="383" type="curve"/>
      <point x="224" y="344" type="line"/>
      <point x="328" y="341"/>
      <point x="432" y="338"/>
      <point x="534" y="335" type="curve"/>
      <point x="534" y="392" type="line"/>
      <point x="430" y="388"/>
      <point x="327" y="385"/>
    </contour>
  </outline>
</glyph>
<glyph name="I" format="2">
  <advance width="417"/>
  <unicode hex="0049"/>
  <anchor x="209" y="741" name="top"/>
  <anchor x="209" y="0" name="bottom"/>
  <anchor x="275" y="0" name="right"/>
  <outline>
    <contour>
      <point x="159" y="70" type="line" smooth="yes"/>
      <point x="159" y="41"/>
      <point x="123" y="34"/>
      <point x="74" y="34" type="curve" smooth="yes"/>
      <point x="61" y="34" type="line"/>
      <point x="61" y="0" type="line"/>
      <point x="356" y="0" type="line"/>
      <point x="356" y="34" type="line"/>
      <point x="343" y="34" type="line" smooth="yes"/>
      <point x="294" y="34"/>
      <point x="258" y="41"/>
      <point x="258" y="70" type="curve" smooth="yes"/>
      <point x="258" y="640" type="line" smooth="yes"/>
      <point x="258" y="669"/>
      <point x="294" y="676"/>
      <point x="343" y="676" type="curve" smooth="yes"/>
      <point x="356" y="676" type="line"/>
      <point x="356" y="710" type="line"/>
      <point x="61" y="710" type="line"/>
      <point x="61" y="676" type="line"/>
      <point x="74" y="676" type="line" smooth="yes"/>
      <point x="123" y="676"/>
      <point x="159" y="669"/>
      <point x="159" y="640" type="curve" smooth="yes"/>
    </contour>
  </outline>
</glyph>
<glyph name="J" format="2">
  <advance width="632"/>
  <unicode hex="004A"/>
  <anchor x="425" y="741" name="top"/>
  <outline>
    <contour>
      <point x="278" y="710" type="line"/>
      <point x="278" y="676" type="line"/>
      <point x="303" y="676" type="line" smooth="yes"/>
      <point x="351" y="676"/>
      <point x="388" y="669"/>
      <point x="388" y="640" type="curve" smooth="yes"/>
      <point x="388" y="231" type="line" smooth="yes"/>
      <point x="388" y="74"/>
      <point x="333" y="31"/>
      <point x="242" y="31" type="curve" smooth="yes"/>
      <point x="174" y="31"/>
      <point x="127" y="46"/>
      <point x="106" y="75" type="curve"/>
      <point x="96" y="60"/>
      <point x="100" y="34"/>
      <point x="133" y="32" type="curve"/>
      <point x="133" y="168" type="line"/>
      <point x="32" y="168" type="line"/>
      <point x="32" y="54" type="line"/>
      <point x="75" y="17"/>
      <point x="148" y="-10"/>
      <point x="242" y="-10" type="curve" smooth="yes"/>
      <point x="391" y="-10"/>
      <point x="487" y="50"/>
      <point x="487" y="231" type="curve" smooth="yes"/>
      <point x="487" y="640" type="line" smooth="yes"/>
      <point x="487" y="669"/>
      <point x="523" y="676"/>
      <point x="572" y="676" type="curve" smooth="yes"/>
      <point x="585" y="676" type="line"/>
      <point x="585" y="710" type="line"/>
    </contour>
  </outline>
</glyph>
<glyph name="K" format="2">
  <advance width="830"/>
  <unicode hex="004B"/>
  <anchor x="428" y="741" name="top"/>
  <anchor x="428" y="0" name="bottom"/>
  <outline>
    <contour>
      <point x="61" y="0" type="line"/>
      <point x="356" y="0" type="line"/>
      <point x="356" y="34" type="line"/>
      <point x="345" y="34" type="line" smooth="yes"/>
      <point x="306" y="34"/>
      <point x="258" y="37"/>
      <point x="258" y="44" type="curve" smooth="yes"/>
      <point x="258" y="666" type="line" smooth="yes"/>
      <point x="258" y="673"/>
      <point x="306" y="676"/>
      <point x="345" y="676" type="curve" smooth="yes"/>
      <point x="356" y="676" type="line"/>
      <point x="356" y="710" type="line"/>
      <point x="61" y="710" type="line"/>
      <point x="61" y="676" type="line"/>
      <point x="74" y="676" type="line" smooth="yes"/>
      <point x="123" y="676"/>
      <point x="159" y="669"/>
      <point x="159" y="640" type="curve" smooth="yes"/>
      <point x="159" y="70" type="line" smooth="yes"/>
      <point x="159" y="41"/>
      <point x="123" y="34"/>
      <point x="74" y="34" type="curve" smooth="yes"/>
      <point x="61" y="34" type="line"/>
    </contour>
    <contour>
      <point x="510" y="0" type="line"/>
      <point x="808" y="0" type="line"/>
      <point x="808" y="34" type="line"/>
      <point x="795" y="34" type="line" smooth="yes"/>
      <point x="748" y="34"/>
      <point x="730" y="42"/>
      <point x="702" y="70" type="curve" smooth="yes"/>
      <point x="368" y="401" type="line"/>
      <point x="348" y="358" type="line"/>
      <point x="658" y="648" type="line" smooth="yes"/>
      <point x="680" y="668"/>
      <point x="711" y="676"/>
      <point x="745" y="676" type="curve" smooth="yes"/>
      <point x="774" y="676" type="line"/>
      <point x="774" y="710" type="line"/>
      <point x="521" y="710" type="line"/>
      <point x="521" y="676" type="line"/>
      <point x="532" y="676" type="line" smooth="yes"/>
      <point x="568" y="676"/>
      <point x="615" y="672"/>
      <point x="617" y="665" type="curve"/>
      <point x="297" y="364" type="line"/>
      <point x="297" y="346" type="line"/>
      <point x="601" y="44" type="line"/>
      <point x="601" y="37"/>
      <point x="555" y="34"/>
      <point x="521" y="34" type="curve" smooth="yes"/>
      <point x="510" y="34" type="line"/>
    </contour>
  </outline>
</glyph>
<glyph name="M" format="2">
  <advance width="1105"/>
  <unicode hex="004D"/>
  <anchor x="539" y="0" name="bottom"/>
  <outline>
    <contour>
      <point x="61" y="0" type="line"/>
      <point x="315" y="0" type="line"/>
      <point x="315" y="34" type="line"/>
      <point x="311" y="34" type="line" smooth="yes"/>
      <point x="278" y="34"/>
      <point x="214" y="37"/>
      <point x="214" y="44" type="curve" smooth="yes"/>
      <point x="214" y="687" type="line"/>
      <point x="207" y="687" type="line"/>
      <point x="506" y="-2" type="line"/>
      <point x="570" y="-2" type="line"/>
      <point x="853" y="686" type="line"/>
      <point x="847" y="688" type="line"/>
      <point x="847" y="44" type="line" smooth="yes"/>
      <point x="847" y="37"/>
      <point x="807" y="34"/>
      <point x="772" y="34" type="curve" smooth="yes"/>
      <point x="761" y="34" type="line"/>
      <point x="761" y="0" type="line"/>
      <point x="1044" y="0" type="line"/>
      <point x="1044" y="34" type="line"/>
      <point x="1031" y="34" type="line" smooth="yes"/>
      <point x="982" y="34"/>
      <point x="946" y="41"/>
      <point x="946" y="70" type="curve" smooth="yes"/>
      <point x="946" y="640" type="line" smooth="yes"/>
      <point x="946" y="669"/>
      <point x="982" y="676"/>
      <point x="1031" y="676" type="curve" smooth="yes"/>
      <point x="1044" y="676" type="line"/>
      <point x="1044" y="710" type="line"/>
      <point x="805" y="710" type="line"/>
      <point x="554" y="105" type="line"/>
      <point x="565" y="97" type="line"/>
      <point x="298" y="710" type="line"/>
      <point x="61" y="710" type="line"/>
      <point x="61" y="676" type="line"/>
      <point x="74" y="676" type="line" smooth="yes"/>
      <point x="123" y="676"/>
      <point x="159" y="669"/>
      <point x="159" y="640" type="curve" smooth="yes"/>
      <point x="159" y="70" type="line" smooth="yes"/>
      <point x="159" y="41"/>
      <point x="123" y="34"/>
      <point x="74" y="34" type="curve"/>
      <point x="61" y="34" type="line"/>
    </contour>
  </outline>
</glyph>
<glyph name="N" format="2">
  <advance width="917"/>
  <unicode hex="004E"/>
  <anchor x="469" y="741" name="top"/>
  <anchor x="469" y="0" name="bottom"/>
  <outline>
    <contour>
      <point x="61" y="0" type="line"/>
      <point x="339" y="0" type="line"/>
      <point x="339" y="34" type="line"/>
      <point x="322" y="34" type="line" smooth="yes"/>
      <point x="268" y="34"/>
      <point x="214" y="42"/>
      <point x="214" y="49" type="curve" smooth="yes"/>
      <point x="214" y="683" type="line"/>
      <point x="195" y="686" type="line"/>
      <point x="677" y="0" type="line"/>
      <point x="766" y="0" type="line"/>
      <point x="766" y="635" type="line" smooth="yes"/>
      <point x="766" y="665"/>
      <point x="802" y="676"/>
      <point x="851" y="676" type="curve" smooth="yes"/>
      <point x="865" y="676" type="line"/>
      <point x="865" y="710" type="line"/>
      <point x="587" y="710" type="line"/>
      <point x="587" y="676" type="line"/>
      <point x="603" y="676" type="line" smooth="yes"/>
      <point x="647" y="676"/>
      <point x="710" y="668"/>
      <point x="710" y="661" type="curve" smooth="yes"/>
      <point x="710" y="76" type="line"/>
      <point x="740" y="64" type="line"/>
      <point x="291" y="710" type="line"/>
      <point x="61" y="710" type="line"/>
      <point x="61" y="676" type="line"/>
      <point x="74" y="676" type="line" smooth="yes"/>
      <point x="123" y="676"/>
      <point x="159" y="669"/>
      <point x="159" y="640" type="curve" smooth="yes"/>
      <point x="159" y="75" type="line" smooth="yes"/>
      <point x="159" y="46"/>
      <point x="123" y="34"/>
      <point x="74" y="34" type="curve" smooth="yes"/>
      <point x="61" y="34" type="line"/>
    </contour>
  </outline>
</glyph>
<glyph name="T" format="2">
  <advance width="771"/>
  <unicode hex="0054"/>
  <anchor x="391" y="741" name="top"/>
  <anchor x="391" y="0" name="bottom"/>
  <outline>
    <contour>
      <point x="336" y="70" type="line" smooth="yes"/>
      <point x="336" y="41"/>
      <point x="294" y="34"/>
      <point x="236" y="34" type="curve" smooth="yes"/>
      <point x="217" y="34" type="line"/>
      <point x="217" y="0" type="line"/>
      <point x="554" y="0" type="line"/>
      <point x="554" y="34" type="line"/>
      <point x="535" y="34" type="line" smooth="yes"/>
      <point x="478" y="34"/>
      <point x="435" y="41"/>
      <point x="435" y="70" type="curve" smooth="yes"/>
      <point x="435" y="670" type="line"/>
      <point x="511" y="670" type="line" smooth="yes"/>
      <point x="623" y="670"/>
      <point x="664" y="661"/>
      <point x="671" y="604" type="curve" smooth="yes"/>
      <point x="681" y="519" type="line"/>
      <point x="731" y="519" type="line"/>
      <point x="731" y="710" type="line"/>
      <point x="40" y="710" type="line"/>
      <point x="40" y="519" type="line"/>
      <point x="90" y="519" type="line"/>
      <point x="100" y="604" type="line" smooth="yes"/>
      <point x="107" y="661"/>
      <point x="148" y="670"/>
      <point x="260" y="670" type="curve" smooth="yes"/>
      <point x="336" y="670" type="line"/>
    </contour>
  </outline>
</glyph>
<glyph name="V" format="2">
  <advance width="803"/>
  <unicode hex="0056"/>
  <outline>
    <contour>
      <point x="437" y="28" type="line"/>
      <point x="181" y="666" type="line"/>
      <point x="181" y="673"/>
      <point x="224" y="676"/>
      <point x="264" y="676" type="curve" smooth="yes"/>
      <point x="284" y="676" type="line"/>
      <point x="284" y="710" type="line"/>
      <point x="10" y="710" type="line"/>
      <point x="10" y="676" type="line"/>
      <point x="16" y="676" type="line"/>
      <point x="51" y="676"/>
      <point x="74" y="674"/>
      <point x="85" y="648" type="curve" smooth="yes"/>
      <point x="348" y="0" type="line"/>
      <point x="459" y="0" type="line"/>
      <point x="713" y="633" type="line" smooth="yes"/>
      <point x="728" y="669"/>
      <point x="747" y="676"/>
      <point x="787" y="676" type="curve"/>
      <point x="793" y="676" type="line"/>
      <point x="793" y="710" type="line"/>
      <point x="550" y="710" type="line"/>
      <point x="550" y="676" type="line"/>
      <point x="567" y="676" type="line" smooth="yes"/>
      <point x="605" y="676"/>
      <point x="672" y="669"/>
      <point x="672" y="658" type="curve"/>
      <point x="424" y="28" type="line"/>
    </contour>
  </outline>
</glyph>
<glyph name="Y" format="2">
  <advance width="791"/>
  <unicode hex="0059"/>
  <anchor x="400" y="741" name="top"/>
  <anchor x="400" y="0" name="bottom"/>
  <outline>
    <contour>
      <point x="348" y="316" type="line"/>
      <point x="348" y="70" type="line" smooth="yes"/>
      <point x="348" y="41"/>
      <point x="312" y="34"/>
      <point x="263" y="34" type="curve" smooth="yes"/>
      <point x="245" y="34" type="line"/>
      <point x="245" y="0" type="line"/>
      <point x="551" y="0" type="line"/>
      <point x="551" y="34" type="line"/>
      <point x="532" y="34" type="line" smooth="yes"/>
      <point x="484" y="34"/>
      <point x="448" y="41"/>
      <point x="448" y="70" type="curve" smooth="yes"/>
      <point x="448" y="316" type="line"/>
      <point x="430" y="269" type="line"/>
      <point x="679" y="635" type="line" smooth="yes"/>
      <point x="704" y="671"/>
      <point x="733" y="676"/>
      <point x="770" y="676" type="curve" smooth="yes"/>
      <point x="776" y="676" type="line"/>
      <point x="776" y="710" type="line"/>
      <point x="520" y="710" type="line"/>
      <point x="520" y="676" type="line"/>
      <point x="537" y="676" type="line" smooth="yes"/>
      <point x="589" y="676"/>
      <point x="641" y="669"/>
      <point x="641" y="658" type="curve"/>
      <point x="415" y="322" type="line"/>
      <point x="434" y="322" type="line"/>
      <point x="200" y="663" type="line"/>
      <point x="200" y="670"/>
      <point x="239" y="676"/>
      <point x="274" y="676" type="curve" smooth="yes"/>
      <point x="294" y="676" type="line"/>
      <point x="294" y="710" type="line"/>
      <point x="15" y="710" type="line"/>
      <point x="15" y="676" type="line"/>
      <point x="21" y="676" type="line" smooth="yes"/>
      <point x="58" y="676"/>
      <point x="83" y="672"/>
      <point x="101" y="647" type="curve" smooth="yes"/>
      <point x="364" y="271" type="line"/>
    </contour>
  </outline>
</glyph>
<glyph name="Z" format="2">
  <advance width="713"/>
  <unicode hex="005A"/>
  <anchor x="377" y="741" name="top"/>
  <anchor x="377" y="0" name="bottom"/>
  <outline>
    <contour>
      <point x="286" y="668" type="curve" smooth="yes"/>
      <point x="588" y="668" type="line"/>
      <point x="564" y="680" type="line"/>
      <point x="49" y="70" type="line"/>
      <point x="49" y="0" type="line"/>
      <point x="662" y="0" type="line"/>
      <point x="662" y="199" type="line"/>
      <point x="608" y="199" type="line"/>
      <point x="598" y="100" type="line" smooth="yes"/>
      <point x="594" y="52"/>
      <point x="544" y="42"/>
      <point x="443" y="42" type="curve" smooth="yes"/>
      <point x="102" y="42" type="line"/>
      <point x="122" y="18" type="line"/>
      <point x="650" y="643" type="line"/>
      <point x="650" y="710" type="line"/>
      <point x="69" y="710" type="line"/>
      <point x="69" y="527" type="line"/>
      <point x="121" y="527" type="line"/>
      <point x="131" y="610" type="line" smooth="yes"/>
      <point x="137" y="658"/>
      <point x="185" y="668"/>
    </contour>
  </outline>
</glyph>
<glyph name="a" format="2">
  <advance width="619"/>
  <unicode hex="0061"/>
  <anchor x="287" y="508" name="top"/>
  <anchor x="319" y="0" name="bottom"/>
  <anchor x="465" y="-10" name="right"/>
  <outline>
    <contour>
      <point x="445" y="307" type="line"/>
      <point x="171" y="285"/>
      <point x="56" y="237"/>
      <point x="56" y="122" type="curve" smooth="yes"/>
      <point x="56" y="38"/>
      <point x="124" y="-10"/>
      <point x="226" y="-10" type="curve" smooth="yes"/>
      <point x="327" y="-10"/>
      <point x="401" y="39"/>
      <point x="442" y="114" type="curve"/>
      <point x="442" y="167" type="line"/>
      <point x="399" y="82"/>
      <point x="333" y="38"/>
      <point x="247" y="38" type="curve" smooth="yes"/>
      <point x="190" y="38"/>
      <point x="156" y="77"/>
      <point x="156" y="124" type="curve" smooth="yes"/>
      <point x="156" y="215"/>
      <point x="229" y="258"/>
      <point x="445" y="273" type="curve"/>
    </contour>
    <contour>
      <point x="427" y="0" type="line"/>
      <point x="595" y="0" type="line"/>
      <point x="595" y="32" type="line"/>
      <point x="592" y="32" type="line"/>
      <point x="545" y="32"/>
      <point x="511" y="39"/>
      <point x="511" y="67" type="curve" smooth="yes"/>
      <point x="511" y="358" type="line" smooth="yes"/>
      <point x="511" y="477"/>
      <point x="408" y="518"/>
      <point x="302" y="518" type="curve" smooth="yes"/>
      <point x="200" y="518"/>
      <point x="124" y="482"/>
      <point x="90" y="458" type="curve"/>
      <point x="90" y="364" type="line"/>
      <point x="185" y="364" type="line"/>
      <point x="185" y="477" type="line"/>
      <point x="155" y="466"/>
      <point x="132" y="446"/>
      <point x="137" y="414" type="curve"/>
      <point x="167" y="449"/>
      <point x="218" y="480"/>
      <point x="296" y="480" type="curve" smooth="yes"/>
      <point x="372" y="480"/>
      <point x="417" y="453"/>
      <point x="417" y="351" type="curve" smooth="yes"/>
      <point x="417" y="94" type="line"/>
      <point x="427" y="111" type="line"/>
    </contour>
  </outline>
</glyph>
<glyph name="b" format="2">
  <advance width="731"/>
  <unicode hex="0062"/>
  <outline>
    <contour>
      <point x="410" y="-10" type="curve" smooth="yes"/>
      <point x="575" y="-10"/>
      <point x="684" y="99"/>
      <point x="684" y="257" type="curve" smooth="yes"/>
      <point x="684" y="414"/>
      <point x="585" y="518"/>
      <point x="430" y="518" type="curve" smooth="yes"/>
      <point x="333" y="518"/>
      <point x="250" y="473"/>
      <point x="197" y="394" type="curve"/>
      <point x="197" y="324" type="line"/>
      <point x="251" y="425"/>
      <point x="325" y="473"/>
      <point x="417" y="473" type="curve" smooth="yes"/>
      <point x="526" y="473"/>
      <point x="584" y="396"/>
      <point x="584" y="257" type="curve" smooth="yes"/>
      <point x="584" y="118"/>
      <point x="522" y="35"/>
      <point x="406" y="35" type="curve" smooth="yes"/>
      <point x="318" y="35"/>
      <point x="250" y="79"/>
      <point x="197" y="176" type="curve"/>
      <point x="197" y="100" type="line"/>
      <point x="240" y="32"/>
      <point x="320" y="-10"/>
    </contour>
    <contour>
      <point x="119" y="658" type="curve" smooth="yes"/>
      <point x="119" y="-3" type="line"/>
      <point x="168" y="-3" type="line"/>
      <point x="204" y="106" type="line"/>
      <point x="214" y="120" type="line"/>
      <point x="214" y="735" type="line"/>
      <point x="34" y="735" type="line"/>
      <point x="34" y="702" type="line"/>
      <point x="47" y="700" type="line" smooth="yes"/>
      <point x="97" y="693"/>
      <point x="119" y="687"/>
    </contour>
  </outline>
</glyph>
<glyph name="e" format="2">
  <advance width="618"/>
  <unicode hex="0065"/>
  <anchor x="315" y="508" name="top"/>
  <anchor x="339" y="0" name="bottom"/>
  <anchor x="489" y="1" name="right"/>
  <outline>
    <contour>
      <point x="145" y="250" type="curve" smooth="yes"/>
      <point x="145" y="406"/>
      <point x="214" y="479"/>
      <point x="317" y="479" type="curve" smooth="yes"/>
      <point x="415" y="479"/>
      <point x="484" y="413"/>
      <point x="481" y="265" type="curve"/>
      <point x="511" y="283" type="line"/>
      <point x="123" y="283" type="line"/>
      <point x="123" y="245" type="line"/>
      <point x="580" y="245" type="line"/>
      <point x="579" y="425"/>
      <point x="477" y="518"/>
      <point x="316" y="518" type="curve" smooth="yes"/>
      <point x="163" y="518"/>
      <point x="47" y="410"/>
      <point x="47" y="252" type="curve" smooth="yes"/>
      <point x="47" y="80"/>
      <point x="174" y="-10"/>
      <point x="339" y="-10" type="curve" smooth="yes"/>
      <point x="445" y="-10"/>
      <point x="526" y="40"/>
      <point x="574" y="108" type="curve"/>
      <point x="542" y="132" type="line"/>
      <point x="506" y="84"/>
      <point x="456" y="29"/>
      <point x="346" y="29" type="curve" smooth="yes"/>
      <point x="231" y="29"/>
      <point x="145" y="91"/>
    </contour>
  </outline>
</glyph>
<glyph name="g" format="2">
  <advance width="648"/>
  <unicode hex="0067"/>
  <anchor x="309" y="508" name="top"/>
  <outline>
    <contour>
      <point x="632" y="438" type="curve"/>
      <point x="632" y="529" type="line"/>
      <point x="550" y="538"/>
      <point x="484" y="501"/>
      <point x="442" y="426" type="curve"/>
      <point x="452" y="423" type="line"/>
      <point x="485" y="456"/>
      <point x="532" y="457"/>
    </contour>
    <contour>
      <point x="309" y="152" type="curve" smooth="yes"/>
      <point x="439" y="152"/>
      <point x="536" y="223"/>
      <point x="536" y="334" type="curve" smooth="yes"/>
      <point x="536" y="444"/>
      <point x="438" y="518"/>
      <point x="309" y="518" type="curve" smooth="yes"/>
      <point x="180" y="518"/>
      <point x="82" y="444"/>
      <point x="82" y="334" type="curve" smooth="yes"/>
      <point x="82" y="223"/>
      <point x="179" y="152"/>
    </contour>
    <contour>
      <point x="309" y="190" type="curve" smooth="yes"/>
      <point x="229" y="190"/>
      <point x="177" y="239"/>
      <point x="177" y="333" type="curve" smooth="yes"/>
      <point x="177" y="428"/>
      <point x="230" y="480"/>
      <point x="309" y="480" type="curve" smooth="yes"/>
      <point x="388" y="480"/>
      <point x="441" y="428"/>
      <point x="441" y="333" type="curve" smooth="yes"/>
      <point x="441" y="239"/>
      <point x="389" y="190"/>
    </contour>
    <contour>
      <point x="285" y="-236" type="curve" smooth="yes"/>
      <point x="330" y="-236" type="line" smooth="yes"/>
      <point x="487" y="-236"/>
      <point x="621" y="-178"/>
      <point x="621" y="-62" type="curve" smooth="yes"/>
      <point x="621" y="20"/>
      <point x="557" y="62"/>
      <point x="447" y="62" type="curve" smooth="yes"/>
      <point x="225" y="62" type="line" smooth="yes"/>
      <point x="168" y="62"/>
      <point x="142" y="74"/>
      <point x="142" y="102" type="curve" smooth="yes"/>
      <point x="142" y="134"/>
      <point x="163" y="159"/>
      <point x="221" y="177" type="curve"/>
      <point x="195" y="199" type="line"/>
      <point x="110" y="167"/>
      <point x="64" y="122"/>
      <point x="64" y="74" type="curve" smooth="yes"/>
      <point x="64" y="20"/>
      <point x="107" y="-9"/>
      <point x="145" y="-18" type="curve"/>
      <point x="144" y="-27" type="line"/>
      <point x="437" y="-27" type="line" smooth="yes"/>
      <point x="507" y="-27"/>
      <point x="547" y="-46"/>
      <point x="547" y="-91" type="curve" smooth="yes"/>
      <point x="547" y="-155"/>
      <point x="461" y="-197"/>
      <point x="329" y="-197" type="curve" smooth="yes"/>
      <point x="285" y="-197" type="line" smooth="yes"/>
      <point x="154" y="-197"/>
      <point x="94" y="-164"/>
      <point x="94" y="-102" type="curve" smooth="yes"/>
      <point x="94" y="-62"/>
      <point x="127" y="-35"/>
      <point x="189" y="-10" type="curve"/>
      <point x="171" y="10" type="line"/>
      <point x="80" y="-27"/>
      <point x="25" y="-67"/>
      <point x="25" y="-116" type="curve" smooth="yes"/>
      <point x="25" y="-202"/>
      <point x="128" y="-236"/>
    </contour>
  </outline>
</glyph>
<glyph name="h" format="2">
  <advance width="735"/>
  <unicode hex="0068"/>
  <anchor x="386" y="755" name="top"/>
  <anchor x="374" y="0" name="bottom"/>
  <outline>
    <contour>
      <point x="232" y="735" type="line"/>
      <point x="52" y="735" type="line"/>
      <point x="52" y="702" type="line"/>
      <point x="65" y="700" type="line" smooth="yes"/>
      <point x="114" y="693"/>
      <point x="137" y="687"/>
      <point x="137" y="658" type="curve" smooth="yes"/>
      <point x="137" y="67" type="line" smooth="yes"/>
      <point x="137" y="39"/>
      <point x="102" y="32"/>
      <point x="54" y="32" type="curve"/>
      <point x="52" y="32" type="line"/>
      <point x="52" y="0" type="line"/>
      <point x="305" y="0" type="line"/>
      <point x="305" y="32" type="line"/>
      <point x="302" y="32" type="line" smooth="yes"/>
      <point x="275" y="32"/>
      <point x="232" y="35"/>
      <point x="232" y="41" type="curve" smooth="yes"/>
    </contour>
    <contour>
      <point x="700" y="0" type="line"/>
      <point x="700" y="32" type="line"/>
      <point x="697" y="32" type="line" smooth="yes"/>
      <point x="649" y="32"/>
      <point x="615" y="39"/>
      <point x="615" y="67" type="curve" smooth="yes"/>
      <point x="615" y="332" type="line" smooth="yes"/>
      <point x="615" y="458"/>
      <point x="539" y="518"/>
      <point x="426" y="518" type="curve" smooth="yes"/>
      <point x="338" y="518"/>
      <point x="270" y="478"/>
      <point x="214" y="407" type="curve"/>
      <point x="214" y="352" type="line"/>
      <point x="262" y="423"/>
      <point x="331" y="467"/>
      <point x="408" y="467" type="curve" smooth="yes"/>
      <point x="489" y="467"/>
      <point x="520" y="421"/>
      <point x="520" y="319" type="curve" smooth="yes"/>
      <point x="520" y="41" type="line" smooth="yes"/>
      <point x="520" y="35"/>
      <point x="476" y="32"/>
      <point x="450" y="32" type="curve" smooth="yes"/>
      <point x="447" y="32" type="line"/>
      <point x="447" y="0" type="line"/>
    </contour>
  </outline>
</glyph>
<glyph name="i" format="2">
  <advance width="352"/>
  <unicode hex="0069"/>
  <anchor x="186" y="508" name="top"/>
  <anchor x="184" y="-10" name="bottom"/>
  <anchor x="237" y="-10" name="right"/>
  <outline>
    <contour>
      <point x="178" y="616" type="curve" smooth="yes"/>
      <point x="217" y="616"/>
      <point x="246" y="640"/>
      <point x="246" y="679" type="curve" smooth="yes"/>
      <point x="246" y="717"/>
      <point x="217" y="740"/>
      <point x="178" y="740" type="curve" smooth="yes"/>
      <point x="139" y="740"/>
      <point x="111" y="717"/>
      <point x="111" y="679" type="curve" smooth="yes"/>
      <point x="111" y="639"/>
      <point x="139" y="616"/>
    </contour>
    <contour>
      <point x="232" y="508" type="line"/>
      <point x="52" y="508" type="line"/>
      <point x="52" y="476" type="line"/>
      <point x="65" y="474" type="line" smooth="yes"/>
      <point x="115" y="467"/>
      <point x="137" y="460"/>
      <point x="137" y="432" type="curve" smooth="yes"/>
      <point x="137" y="67" type="line" smooth="yes"/>
      <point x="137" y="39"/>
      <point x="102" y="32"/>
      <point x="54" y="32" type="curve"/>
      <point x="53" y="32" type="line"/>
      <point x="53" y="0" type="line"/>
      <point x="316" y="0" type="line"/>
      <point x="316" y="32" type="line"/>
      <point x="314" y="32" type="line"/>
      <point x="267" y="32"/>
      <point x="232" y="39"/>
      <point x="232" y="67" type="curve" smooth="yes"/>
    </contour>
  </outline>
</glyph>
<glyph name="j" format="2">
  <advance width="326"/>
  <unicode hex="006A"/>
  <outline>
    <contour>
      <point x="128" y="-63" type="line" smooth="yes"/>
      <point x="128" y="-165"/>
      <point x="85" y="-192"/>
      <point x="20" y="-192" type="curve" smooth="yes"/>
      <point x="-15" y="-192"/>
      <point x="-41" y="-187"/>
      <point x="-70" y="-179" type="curve"/>
      <point x="-70" y="-224" type="line"/>
      <point x="-46" y="-232"/>
      <point x="-14" y="-236"/>
      <point x="23" y="-236" type="curve" smooth="yes"/>
      <point x="128" y="-236"/>
      <point x="223" y="-196"/>
      <point x="223" y="-56" type="curve" smooth="yes"/>
      <point x="223" y="508" type="line"/>
      <point x="31" y="508" type="line"/>
      <point x="31" y="476" type="line"/>
      <point x="49" y="474" type="line" smooth="yes"/>
      <point x="103" y="468"/>
      <point x="128" y="460"/>
      <point x="128" y="432" type="curve" smooth="yes"/>
    </contour>
    <contour>
      <point x="168" y="616" type="curve" smooth="yes"/>
      <point x="207" y="616"/>
      <point x="236" y="640"/>
      <point x="236" y="679" type="curve" smooth="yes"/>
      <point x="236" y="717"/>
      <point x="207" y="740"/>
      <point x="168" y="740" type="curve" smooth="yes"/>
      <point x="130" y="740"/>
      <point x="101" y="717"/>
      <point x="101" y="679" type="curve" smooth="yes"/>
      <point x="101" y="639"/>
      <point x="130" y="616"/>
    </contour>
  </outline>
</glyph>
<glyph name="k" format="2">
  <advance width="721"/>
  <unicode hex="006B"/>
  <anchor x="365" y="0" name="bottom"/>
  <outline>
    <contour>
      <point x="697" y="0" type="line"/>
      <point x="697" y="32" type="line"/>
      <point x="694" y="32" type="line"/>
      <point x="654" y="32"/>
      <point x="622" y="40"/>
      <point x="592" y="70" type="curve" smooth="yes"/>
      <point x="356" y="308" type="line"/>
      <point x="333" y="270" type="line"/>
      <point x="536" y="441" type="line" smooth="yes"/>
      <point x="568" y="466"/>
      <point x="592" y="477"/>
      <point x="659" y="477" type="curve"/>
      <point x="661" y="477" type="line"/>
      <point x="661" y="508" type="line"/>
      <point x="388" y="508" type="line"/>
      <point x="388" y="477" type="line"/>
      <point x="392" y="477" type="line" smooth="yes"/>
      <point x="425" y="477"/>
      <point x="496" y="474"/>
      <point x="496" y="459" type="curve"/>
      <point x="275" y="273" type="line"/>
      <point x="275" y="267" type="line"/>
      <point x="497" y="41" type="line"/>
      <point x="497" y="35"/>
      <point x="454" y="32"/>
      <point x="426" y="32" type="curve" smooth="yes"/>
      <point x="422" y="32" type="line"/>
      <point x="422" y="0" type="line"/>
    </contour>
    <contour>
      <point x="232" y="735" type="line"/>
      <point x="52" y="735" type="line"/>
      <point x="52" y="702" type="line"/>
      <point x="65" y="700" type="line" smooth="yes"/>
      <point x="115" y="693"/>
      <point x="137" y="687"/>
      <point x="137" y="658" type="curve" smooth="yes"/>
      <point x="137" y="67" type="line" smooth="yes"/>
      <point x="137" y="39"/>
      <point x="103" y="32"/>
      <point x="55" y="32" type="curve"/>
      <point x="53" y="32" type="line"/>
      <point x="53" y="0" type="line"/>
      <point x="312" y="0" type="line"/>
      <point x="312" y="32" type="line"/>
      <point x="309" y="32" type="line" smooth="yes"/>
      <point x="280" y="32"/>
      <point x="232" y="35"/>
      <point x="232" y="41" type="curve" smooth="yes"/>
    </contour>
  </outline>
</glyph>
<glyph name="l" format="2">
  <advance width="342"/>
  <unicode hex="006C"/>
  <anchor x="179" y="746" name="top"/>
  <anchor x="183" y="0" name="bottom"/>
  <anchor x="298" y="735" name="right"/>
  <anchor x="360" y="391" name="mid"/>
  <outline>
    <contour>
      <point x="227" y="735" type="line"/>
      <point x="47" y="735" type="line"/>
      <point x="47" y="702" type="line"/>
      <point x="60" y="700" type="line" smooth="yes"/>
      <point x="110" y="693"/>
      <point x="132" y="687"/>
      <point x="132" y="658" type="curve" smooth="yes"/>
      <point x="132" y="67" type="line" smooth="yes"/>
      <point x="132" y="39"/>
      <point x="98" y="32"/>
      <point x="51" y="32" type="curve"/>
      <point x="48" y="32" type="line"/>
      <point x="48" y="0" type="line"/>
      <point x="311" y="0" type="line"/>
      <point x="311" y="32" type="line"/>
      <point x="308" y="32" type="line"/>
      <point x="261" y="32"/>
      <point x="227" y="39"/>
      <point x="227" y="67" type="curve" smooth="yes"/>
    </contour>
  </outline>
</glyph>
<glyph name="o" format="2">
  <advance width="688"/>
  <unicode hex="006F"/>
  <anchor x="344" y="508" name="top"/>
  <anchor x="344" y="0" name="bottom"/>
  <anchor x="461" y="0" name="right"/>
  <outline>
    <contour>
      <point x="641" y="254" type="curve" smooth="yes"/>
      <point x="641" y="409"/>
      <point x="514" y="518"/>
      <point x="344" y="518" type="curve" smooth="yes"/>
      <point x="174" y="518"/>
      <point x="47" y="411"/>
      <point x="47" y="254" type="curve" smooth="yes"/>
      <point x="47" y="95"/>
      <point x="174" y="-10"/>
      <point x="344" y="-10" type="curve" smooth="yes"/>
      <point x="514" y="-10"/>
      <point x="641" y="95"/>
    </contour>
    <contour>
      <point x="147" y="254" type="curve" smooth="yes"/>
      <point x="147" y="395"/>
      <point x="224" y="479"/>
      <point x="344" y="479" type="curve" smooth="yes"/>
      <point x="463" y="479"/>
      <point x="541" y="395"/>
      <point x="541" y="254" type="curve" smooth="yes"/>
      <point x="541" y="107"/>
      <point x="463" y="29"/>
      <point x="344" y="29" type="curve" smooth="yes"/>
      <point x="224" y="29"/>
      <point x="147" y="109"/>
    </contour>
  </outline>
</glyph>
<glyph name="r" format="2">
  <advance width="465"/>
  <unicode hex="0072"/>
  <anchor x="251" y="508" name="top"/>
  <anchor x="191" y="0" name="bottom"/>
  <outline>
    <contour>
      <point x="439" y="515" type="line"/>
      <point x="431" y="517"/>
      <point x="414" y="518"/>
      <point x="399" y="518" type="curve" smooth="yes"/>
      <point x="311" y="518"/>
      <point x="249" y="459"/>
      <point x="214" y="374" type="curve"/>
      <point x="214" y="324" type="line"/>
      <point x="251" y="407"/>
      <point x="285" y="431"/>
      <point x="376" y="431" type="curve" smooth="yes"/>
      <point x="396" y="431"/>
      <point x="421" y="428"/>
      <point x="439" y="423" type="curve"/>
    </contour>
    <contour>
      <point x="52" y="0" type="line"/>
      <point x="343" y="0" type="line"/>
      <point x="343" y="32" type="line"/>
      <point x="325" y="32" type="line" smooth="yes"/>
      <point x="293" y="32"/>
      <point x="231" y="35"/>
      <point x="231" y="65" type="curve" smooth="yes"/>
      <point x="231" y="379" type="line"/>
      <point x="222" y="370" type="line"/>
      <point x="222" y="508" type="line"/>
      <point x="52" y="508" type="line"/>
      <point x="52" y="476" type="line"/>
      <point x="64" y="474" type="line" smooth="yes"/>
      <point x="112" y="466"/>
      <point x="136" y="460"/>
      <point x="136" y="432" type="curve" smooth="yes"/>
      <point x="136" y="67" type="line" smooth="yes"/>
      <point x="136" y="39"/>
      <point x="102" y="32"/>
      <point x="54" y="32" type="curve" smooth="yes"/>
      <point x="52" y="32" type="line"/>
    </contour>
  </outline>
</glyph>
<glyph name="t" format="2">
  <advance width="425"/>
  <unicode hex="0074"/>
  <anchor x="178" y="675" name="top"/>
  <anchor x="278" y="0" name="bottom"/>
  <anchor x="333" y="681" name="right"/>
  <outline>
    <contour>
      <point x="1" y="465" type="line"/>
      <point x="383" y="465" type="line"/>
      <point x="383" y="508" type="line"/>
      <point x="135" y="508" type="line"/>
      <point x="118" y="553" type="line"/>
      <point x="118" y="512"/>
      <point x="77" y="503"/>
      <point x="7" y="503" type="curve" smooth="yes"/>
      <point x="1" y="503" type="line"/>
    </contour>
    <contour>
      <point x="205" y="153" type="curve" smooth="yes"/>
      <point x="205" y="648" type="line"/>
      <point x="118" y="648" type="line"/>
      <point x="118" y="510" type="line"/>
      <point x="110" y="498" type="line"/>
      <point x="110" y="152" type="line" smooth="yes"/>
      <point x="110" y="27"/>
      <point x="197" y="-10"/>
      <point x="302" y="-10" type="curve" smooth="yes"/>
      <point x="339" y="-10"/>
      <point x="376" y="-2"/>
      <point x="397" y="7" type="curve"/>
      <point x="397" y="46" type="line"/>
      <point x="375" y="38"/>
      <point x="345" y="32"/>
      <point x="312" y="32" type="curve" smooth="yes"/>
      <point x="242" y="32"/>
      <point x="205" y="62"/>
    </contour>
  </outline>
</glyph>
<glyph name="w" format="2">
  <advance width="940"/>
  <unicode hex="0077"/>
  <anchor x="476" y="508" name="top"/>
  <outline>
    <contour>
      <point x="470" y="405" type="line"/>
      <point x="333" y="0" type="line"/>
      <point x="234" y="0" type="line"/>
      <point x="79" y="446" type="line" smooth="yes"/>
      <point x="70" y="471"/>
      <point x="40" y="477"/>
      <point x="8" y="477" type="curve"/>
      <point x="7" y="477" type="line"/>
      <point x="7" y="508" type="line"/>
      <point x="264" y="508" type="line"/>
      <point x="264" y="477" type="line"/>
      <point x="262" y="477" type="line" smooth="yes"/>
      <point x="214" y="477"/>
      <point x="169" y="475"/>
      <point x="169" y="468" type="curve"/>
      <point x="309" y="46" type="line"/>
      <point x="301" y="47" type="line"/>
      <point x="455" y="508" type="line"/>
      <point x="520" y="508" type="line"/>
      <point x="683" y="44" type="line"/>
      <point x="676" y="40" type="line"/>
      <point x="809" y="456" type="line"/>
      <point x="807" y="469"/>
      <point x="767" y="477"/>
      <point x="702" y="477" type="curve" smooth="yes"/>
      <point x="700" y="477" type="line"/>
      <point x="700" y="508" type="line"/>
      <point x="933" y="508" type="line"/>
      <point x="933" y="477" type="line"/>
      <point x="932" y="477" type="line"/>
      <point x="900" y="477"/>
      <point x="864" y="465"/>
      <point x="853" y="434" type="curve" smooth="yes"/>
      <point x="709" y="0" type="line"/>
      <point x="610" y="0" type="line"/>
      <point x="462" y="405" type="line"/>
    </contour>
  </outline>
</glyph>
<glyph name="z" format="2">
  <advance width="548"/>
  <unicode hex="007A"/>
  <anchor x="280" y="508" name="top"/>
  <anchor x="302" y="0" name="bottom"/>
  <outline>
    <contour>
      <point x="109" y="17" type="line"/>
      <point x="510" y="450" type="line"/>
      <point x="510" y="508" type="line"/>
      <point x="57" y="508" type="line"/>
      <point x="57" y="356" type="line"/>
      <point x="110" y="356" type="line"/>
      <point x="119" y="410" type="line" smooth="yes"/>
      <point x="126" y="461"/>
      <point x="157" y="468"/>
      <point x="255" y="468" type="curve" smooth="yes"/>
      <point x="439" y="468" type="line"/>
      <point x="432" y="485" type="line"/>
      <point x="40" y="63" type="line"/>
      <point x="40" y="0" type="line"/>
      <point x="521" y="0" type="line"/>
      <point x="521" y="170" type="line"/>
      <point x="467" y="170" type="line"/>
      <point x="457" y="102" type="line" smooth="yes"/>
      <point x="449" y="49"/>
      <point x="417" y="42"/>
      <point x="321" y="42" type="curve" smooth="yes"/>
      <point x="110" y="42" type="line"/>
    </contour>
  </outline>
</glyph>
<glyph name="braceleft" format="2">
  <advance width="381"/>
  <unicode hex="007B"/>
  <outline>
    <contour>
      <point x="265" y="227" type="curve" smooth="yes"/>
      <point x="265" y="265"/>
      <point x="244" y="283"/>
      <point x="116" y="300" type="curve"/>
      <point x="116" y="304" type="line"/>
      <point x="244" y="321"/>
      <point x="265" y="339"/>
      <point x="265" y="377" type="curve" smooth="yes"/>
      <point x="265" y="419"/>
      <point x="163" y="527"/>
      <point x="163" y="600" type="curve" smooth="yes"/>
      <point x="163" y="674"/>
      <point x="211" y="721"/>
      <point x="349" y="719" type="curve"/>
      <point x="341" y="749" type="line"/>
      <point x="195" y="756"/>
      <point x="82" y="720"/>
      <point x="82" y="608" type="curve" smooth="yes"/>
      <point x="82" y="522"/>
      <point x="167" y="426"/>
      <point x="213" y="352" type="curve"/>
      <point x="227" y="366" type="line"/>
      <point x="55" y="318" type="line"/>
      <point x="55" y="285" type="line"/>
      <point x="227" y="237" type="line"/>
      <point x="213" y="252" type="line"/>
      <point x="167" y="178"/>
      <point x="82" y="82"/>
      <point x="82" y="-4" type="curve" smooth="yes"/>
      <point x="82" y="-116"/>
      <point x="195" y="-152"/>
      <point x="341" y="-145" type="curve"/>
      <point x="350" y="-115" type="line"/>
      <point x="212" y="-117"/>
      <point x="163" y="-70"/>
      <point x="163" y="4" type="curve" smooth="yes"/>
      <point x="163" y="77"/>
      <point x="265" y="185"/>
    </contour>
  </outline>
</glyph>
<glyph name="bar" format="2">
  <advance width="309"/>
  <unicode hex="007C"/>
  <outline>
    <contour>
      <point x="120" y="751" type="line"/>
      <point x="120" y="-130" type="line"/>
      <point x="189" y="-130" type="line"/>
      <point x="189" y="751" type="line"/>
    </contour>
  </outline>
</glyph>
<glyph name="asciitilde" format="2">
  <advance width="680"/>
  <unicode hex="007E"/>
  <outline>
    <contour>
      <point x="427" y="279" type="curve"/>
      <point x="503" y="279"/>
      <point x="543" y="322"/>
      <point x="568" y="400" type="curve"/>
      <point x="523" y="414" type="line"/>
      <point x="507" y="379"/>
      <point x="482" y="342"/>
      <point x="440" y="342" type="curve" smooth="yes"/>
      <point x="377" y="342"/>
      <point x="332" y="398"/>
      <point x="248" y="398" type="curve" smooth="yes"/>
      <point x="174" y="398"/>
      <point x="135" y="359"/>
      <point x="114" y="279" type="curve"/>
      <point x="160" y="265" type="line"/>
      <point x="173" y="302"/>
      <point x="197" y="336"/>
      <point x="238" y="336" type="curve" smooth="yes"/>
      <point x="299" y="336"/>
      <point x="351" y="279"/>
    </contour>
  </outline>
</glyph>
<glyph name="sterling" format="2">
  <advance width="680"/>
  <unicode hex="00A3"/>
  <outline>
    <contour>
      <point x="48" y="-13" type="line"/>
      <point x="212" y="26"/>
      <point x="294" y="113"/>
      <point x="294" y="227" type="curve" smooth="yes"/>
      <point x="294" y="327"/>
      <point x="212" y="428"/>
      <point x="212" y="527" type="curve" smooth="yes"/>
      <point x="212" y="626"/>
      <point x="284" y="674"/>
      <point x="378" y="674" type="curve" smooth="yes"/>
      <point x="456" y="674"/>
      <point x="504" y="655"/>
      <point x="537" y="627" type="curve"/>
      <point x="536" y="647"/>
      <point x="523" y="664"/>
      <point x="495" y="666" type="curve"/>
      <point x="495" y="559" type="line"/>
      <point x="591" y="559" type="line"/>
      <point x="591" y="665" type="line"/>
      <point x="559" y="688"/>
      <point x="490" y="720"/>
      <point x="381" y="720" type="curve" smooth="yes"/>
      <point x="226" y="720"/>
      <point x="119" y="648"/>
      <point x="119" y="528" type="curve" smooth="yes"/>
      <point x="119" y="418"/>
      <point x="216" y="331"/>
      <point x="216" y="223" type="curve" smooth="yes"/>
      <point x="216" y="142"/>
      <point x="168" y="78"/>
      <point x="48" y="46" type="curve"/>
    </contour>
    <contour>
      <point x="465" y="-10" type="curve" smooth="yes"/>
      <point x="568" y="-10"/>
      <point x="614" y="69"/>
      <point x="641" y="176" type="curve"/>
      <point x="593" y="190" type="line"/>
      <point x="566" y="114"/>
      <point x="540" y="74"/>
      <point x="467" y="74" type="curve" smooth="yes"/>
      <point x="403" y="74"/>
      <point x="328" y="103"/>
      <point x="245" y="165" type="curve"/>
      <point x="229" y="156"/>
      <point x="214" y="140"/>
      <point x="208" y="122" type="curve"/>
      <point x="317" y="35"/>
      <point x="377" y="-10"/>
    </contour>
    <contour>
      <point x="58" y="361" type="line"/>
      <point x="58" y="315" type="line"/>
      <point x="501" y="315" type="line"/>
      <point x="501" y="361" type="line"/>
    </contour>
  </outline>
</glyph>
<glyph name="currency" format="2">
  <advance width="680"/>
  <unicode hex="00A4"/>
  <outline>
    <contour>
      <point x="493" y="373" type="curve" smooth="yes"/>
      <point x="493" y="288"/>
      <point x="435" y="237"/>
      <point x="340" y="237" type="curve" smooth="yes"/>
      <point x="245" y="237"/>
      <point x="187" y="289"/>
      <point x="187" y="373" type="curve" smooth="yes"/>
      <point x="187" y="458"/>
      <point x="245" y="510"/>
      <point x="340" y="510" type="curve" smooth="yes"/>
      <point x="435" y="510"/>
      <point x="493" y="458"/>
    </contour>
    <contour>
      <point x="125" y="373" type="curve" smooth="yes"/>
      <point x="125" y="268"/>
      <point x="226" y="186"/>
      <point x="340" y="186" type="curve" smooth="yes"/>
      <point x="454" y="186"/>
      <point x="555" y="268"/>
      <point x="555" y="373" type="curve" smooth="yes"/>
      <point x="555" y="479"/>
      <point x="454" y="561"/>
      <point x="340" y="561" type="curve" smooth="yes"/>
      <point x="226" y="561"/>
      <point x="125" y="479"/>
    </contour>
    <contour>
      <point x="56" y="590" type="line"/>
      <point x="177" y="487" type="line"/>
      <point x="225" y="518" type="line"/>
      <point x="96" y="628" type="line"/>
    </contour>
    <contour>
      <point x="624" y="589" type="line"/>
      <point x="584" y="628" type="line"/>
      <point x="455" y="518" type="line"/>
      <point x="503" y="486" type="line"/>
    </contour>
    <contour>
      <point x="57" y="157" type="line"/>
      <point x="97" y="118" type="line"/>
      <point x="226" y="228" type="line"/>
      <point x="178" y="260" type="line"/>
    </contour>
    <contour>
      <point x="623" y="158" type="line"/>
      <point x="502" y="261" type="line"/>
      <point x="454" y="229" type="line"/>
      <point x="583" y="119" type="line"/>
    </contour>
  </outline>
</glyph>
<glyph name="section" format="2">
  <advance width="751"/>
  <unicode hex="00A7"/>
  <outline>
    <contour>
      <point x="285" y="439" type="line"/>
      <point x="181" y="423"/>
      <point x="71" y="361"/>
      <point x="71" y="273" type="curve" smooth="yes"/>
      <point x="71" y="168"/>
      <point x="161" y="133"/>
      <point x="305" y="78" type="curve" smooth="yes"/>
      <point x="437" y="28"/>
      <point x="536" y="6"/>
      <point x="536" y="-78" type="curve" smooth="yes"/>
      <point x="536" y="-157"/>
      <point x="472" y="-197"/>
      <point x="354" y="-197" type="curve" smooth="yes"/>
      <point x="253" y="-197"/>
      <point x="173" y="-173"/>
      <point x="140" y="-119" type="curve"/>
      <point x="131" y="-119"/>
      <point x="155" y="-176"/>
      <point x="190" y="-200" type="curve"/>
      <point x="190" y="-48" type="line"/>
      <point x="88" y="-48" type="line"/>
      <point x="88" y="-165" type="line"/>
      <point x="139" y="-202"/>
      <point x="227" y="-236"/>
      <point x="355" y="-236" type="curve" smooth="yes"/>
      <point x="502" y="-236"/>
      <point x="616" y="-171"/>
      <point x="616" y="-60" type="curve" smooth="yes"/>
      <point x="616" y="52"/>
      <point x="510" y="102"/>
      <point x="366" y="155" type="curve" smooth="yes"/>
      <point x="225" y="207"/>
      <point x="149" y="230"/>
      <point x="149" y="295" type="curve" smooth="yes"/>
      <point x="149" y="353"/>
      <point x="222" y="395"/>
      <point x="319" y="415" type="curve"/>
    </contour>
    <contour>
      <point x="487" y="53" type="line"/>
      <point x="604" y="101"/>
      <point x="678" y="133"/>
      <point x="678" y="221" type="curve" smooth="yes"/>
      <point x="678" y="336"/>
      <point x="584" y="368"/>
      <point x="432" y="424" type="curve" smooth="yes"/>
      <point x="323" y="464"/>
      <point x="210" y="500"/>
      <point x="210" y="577" type="curve" smooth="yes"/>
      <point x="210" y="640"/>
      <point x="255" y="682"/>
      <point x="386" y="682" type="curve" smooth="yes"/>
      <point x="480" y="682"/>
      <point x="542" y="658"/>
      <point x="574" y="611" type="curve"/>
      <point x="581" y="641"/>
      <point x="551" y="662"/>
      <point x="519" y="664" type="curve"/>
      <point x="519" y="554" type="line"/>
      <point x="617" y="554" type="line"/>
      <point x="617" y="656" type="line"/>
      <point x="585" y="684"/>
      <point x="503" y="720"/>
      <point x="386" y="720" type="curve" smooth="yes"/>
      <point x="226" y="720"/>
      <point x="132" y="654"/>
      <point x="132" y="557" type="curve" smooth="yes"/>
      <point x="132" y="444"/>
      <point x="253" y="391"/>
      <point x="372" y="347" type="curve" smooth="yes"/>
      <point x="516" y="293"/>
      <point x="600" y="267"/>
      <point x="600" y="202" type="curve" smooth="yes"/>
      <point x="600" y="147"/>
      <point x="551" y="112"/>
      <point x="463" y="76" type="curve"/>
    </contour>
  </outline>
</glyph>
<glyph name="dieresis" format="2">
  <advance width="588"/>
  <unicode hex="00A8"/>
  <anchor x="294" y="526" name="_top"/>
  <outline>
    <contour>
      <point x="248" y="665" type="curve" smooth="yes"/>
      <point x="248" y="703"/>
      <point x="219" y="726"/>
      <point x="180" y="726" type="curve" smooth="yes"/>
      <point x="142" y="726"/>
      <point x="113" y="703"/>
      <point x="113" y="665" type="curve" smooth="yes"/>
      <point x="113" y="627"/>
      <point x="142" y="604"/>
      <point x="180" y="604" type="curve" smooth="yes"/>
      <point x="219" y="604"/>
      <point x="248" y="627"/>
    </contour>
    <contour>
      <point x="475" y="665" type="curve" smooth="yes"/>
      <point x="475" y="703"/>
      <point x="447" y="726"/>
      <point x="408" y="726" type="curve" smooth="yes"/>
      <point x="370" y="726"/>
      <point x="341" y="703"/>
      <point x="341" y="665" type="curve" smooth="yes"/>
      <point x="341" y="627"/>
      <point x="370" y="604"/>
      <point x="408" y="604" type="curve" smooth="yes"/>
      <point x="447" y="604"/>
      <point x="475" y="627"/>
    </contour>
  </outline>
</glyph>
<glyph name="ordfeminine" format="2">
  <advance width="554"/>
  <unicode hex="00AA"/>
  <outline>
    <contour>
      <point x="369" y="556" type="line"/>
      <point x="158" y="540"/>
      <point x="60" y="510"/>
      <point x="60" y="419" type="curve" smooth="yes"/>
      <point x="60" y="349"/>
      <point x="115" y="310"/>
      <point x="199" y="310" type="curve" smooth="yes"/>
      <point x="279" y="310"/>
      <point x="343" y="350"/>
      <point x="369" y="407" type="curve"/>
      <point x="355" y="432" type="line"/>
      <point x="329" y="386"/>
      <point x="285" y="352"/>
      <point x="228" y="352" type="curve" smooth="yes"/>
      <point x="182" y="352"/>
      <point x="154" y="375"/>
      <point x="154" y="424" type="curve" smooth="yes"/>
      <point x="154" y="482"/>
      <point x="211" y="518"/>
      <point x="368" y="526" type="curve"/>
    </contour>
    <contour>
      <point x="354" y="320" type="line"/>
      <point x="503" y="320" type="line"/>
      <point x="503" y="352" type="line"/>
      <point x="499" y="352" type="line"/>
      <point x="464" y="352"/>
      <point x="436" y="356"/>
      <point x="436" y="381" type="curve" smooth="yes"/>
      <point x="436" y="594" type="line" smooth="yes"/>
      <point x="436" y="691"/>
      <point x="353" y="720"/>
      <point x="266" y="720" type="curve" smooth="yes"/>
      <point x="184" y="720"/>
      <point x="114" y="695"/>
      <point x="88" y="670" type="curve"/>
      <point x="88" y="602" type="line"/>
      <point x="170" y="602" type="line"/>
      <point x="170" y="667" type="line"/>
      <point x="148" y="662"/>
      <point x="130" y="660"/>
      <point x="134" y="634" type="curve"/>
      <point x="153" y="661"/>
      <point x="205" y="680"/>
      <point x="259" y="680" type="curve" smooth="yes"/>
      <point x="316" y="680"/>
      <point x="348" y="656"/>
      <point x="348" y="589" type="curve" smooth="yes"/>
      <point x="348" y="402" type="line"/>
      <point x="354" y="401" type="line"/>
    </contour>
  </outline>
</glyph>
<glyph name="logicalnot" format="2">
  <advance width="680"/>
  <unicode hex="00AC"/>
  <outline>
    <contour>
      <point x="489" y="350" type="line"/>
      <point x="489" y="155" type="line"/>
      <point x="557" y="155" type="line"/>
      <point x="557" y="373" type="line"/>
      <point x="123" y="373" type="line"/>
      <point x="123" y="319" type="line"/>
      <point x="535" y="319" type="line"/>
    </contour>
  </outline>
</glyph>
<glyph name="registered" format="2">
  <advance width="960"/>
  <unicode hex="00AE"/>
  <outline>
    <contour>
      <point x="480" y="17" type="curve" smooth="yes"/>
      <point x="261" y="17"/>
      <point x="103" y="165"/>
      <point x="103" y="355" type="curve" smooth="yes"/>
      <point x="103" y="544"/>
      <point x="262" y="693"/>
      <point x="480" y="693" type="curve" smooth="yes"/>
      <point x="698" y="693"/>
      <point x="857" y="544"/>
      <point x="857" y="355" type="curve" smooth="yes"/>
      <point x="857" y="166"/>
      <point x="698" y="17"/>
    </contour>
    <contour>
      <point x="480" y="-29" type="curve" smooth="yes"/>
      <point x="725" y="-29"/>
      <point x="913" y="138"/>
      <point x="913" y="355" type="curve" smooth="yes"/>
      <point x="913" y="572"/>
      <point x="725" y="739"/>
      <point x="480" y="739" type="curve" smooth="yes"/>
      <point x="236" y="739"/>
      <point x="47" y="572"/>
      <point x="47" y="355" type="curve" smooth="yes"/>
      <point x="47" y="138"/>
      <point x="236" y="-29"/>
    </contour>
    <contour>
      <point x="299" y="153" type="line"/>
      <point x="494" y="153" type="line"/>
      <point x="494" y="183" type="line"/>
      <point x="485" y="183" type="line" smooth="yes"/>
      <point x="465" y="183"/>
      <point x="439" y="184"/>
      <point x="439" y="188" type="curve" smooth="yes"/>
      <point x="439" y="317" type="line"/>
      <point x="478" y="317" type="line" smooth="yes"/>
      <point x="585" y="317"/>
      <point x="663" y="360"/>
      <point x="663" y="438" type="curve" smooth="yes"/>
      <point x="663" y="513"/>
      <point x="591" y="557"/>
      <point x="481" y="557" type="curve" smooth="yes"/>
      <point x="299" y="557" type="line"/>
      <point x="299" y="527" type="line"/>
      <point x="306" y="527" type="line" smooth="yes"/>
      <point x="336" y="527"/>
      <point x="358" y="523"/>
      <point x="358" y="507" type="curve" smooth="yes"/>
      <point x="358" y="203" type="line" smooth="yes"/>
      <point x="358" y="187"/>
      <point x="336" y="183"/>
      <point x="306" y="183" type="curve" smooth="yes"/>
      <point x="299" y="183" type="line"/>
    </contour>
    <contour>
      <point x="480" y="524" type="line" smooth="yes"/>
      <point x="546" y="524"/>
      <point x="579" y="490"/>
      <point x="579" y="437" type="curve" smooth="yes"/>
      <point x="579" y="383"/>
      <point x="546" y="349"/>
      <point x="477" y="349" type="curve" smooth="yes"/>
      <point x="439" y="349" type="line"/>
      <point x="439" y="524" type="line"/>
    </contour>
    <contour>
      <point x="481" y="335" type="line"/>
      <point x="576" y="152" type="line"/>
      <point x="688" y="152" type="line"/>
      <point x="688" y="182" type="line"/>
      <point x="675" y="182" type="line" smooth="yes"/>
      <point x="657" y="182"/>
      <point x="645" y="188"/>
      <point x="639" y="201" type="curve" smooth="yes"/>
      <point x="564" y="346" type="line"/>
    </contour>
  </outline>
</glyph>
<glyph name="degree" format="2">
  <advance width="526"/>
  <unicode hex="00B0"/>
  <outline>
    <contour>
      <point x="402" y="549" type="curve" smooth="yes"/>
      <point x="402" y="465"/>
      <point x="348" y="413"/>
      <point x="263" y="413" type="curve" smooth="yes"/>
      <point x="179" y="413"/>
      <point x="124" y="465"/>
      <point x="124" y="549" type="curve" smooth="yes"/>
      <point x="124" y="633"/>
      <point x="179" y="685"/>
      <point x="263" y="685" type="curve" smooth="yes"/>
      <point x="348" y="685"/>
      <point x="402" y="633"/>
    </contour>
    <contour>
      <point x="65" y="549" type="curve" smooth="yes"/>
      <point x="65" y="442"/>
      <point x="152" y="369"/>
      <point x="263" y="369" type="curve" smooth="yes"/>
      <point x="374" y="369"/>
      <point x="461" y="442"/>
      <point x="461" y="549" type="curve" smooth="yes"/>
      <point x="461" y="656"/>
      <point x="374" y="729"/>
      <point x="263" y="729" type="curve" smooth="yes"/>
      <point x="152" y="729"/>
      <point x="65" y="656"/>
    </contour>
  </outline>
</glyph>
<glyph name="acute" format="2">
  <advance width="588"/>
  <unicode hex="00B4"/>
  <anchor x="255" y="527" name="_top"/>
  <outline>
    <contour>
      <point x="284" y="706" type="curve" smooth="yes"/>
      <point x="226" y="576" type="line"/>
      <point x="226" y="565" type="line"/>
      <point x="254" y="565" type="line"/>
      <point x="357" y="663" type="line" smooth="yes"/>
      <point x="378" y="683"/>
      <point x="390" y="700"/>
      <point x="390" y="718" type="curve" smooth="yes"/>
      <point x="390" y="741"/>
      <point x="372" y="760"/>
      <point x="344" y="760" type="curve" smooth="yes"/>
      <point x="319" y="760"/>
      <point x="300" y="741"/>
    </contour>
  </outline>
</glyph>
<glyph name="cedilla" format="2">
  <advance width="705"/>
  <unicode hex="00B8"/>
  <anchor x="349" y="34" name="_bottom"/>
  <outline>
    <contour>
      <point x="360" y="4" type="line"/>
      <point x="292" y="4" type="line"/>
      <point x="263" y="-93" type="line"/>
      <point x="283" y="-93" type="line" smooth="yes"/>
      <point x="350" y="-93"/>
      <point x="374" y="-112"/>
      <point x="374" y="-145" type="curve" smooth="yes"/>
      <point x="374" y="-178"/>
      <point x="350" y="-195"/>
      <point x="309" y="-195" type="curve" smooth="yes"/>
      <point x="264" y="-195"/>
      <point x="238" y="-179"/>
      <point x="213" y="-153" type="curve"/>
      <point x="186" y="-181" type="line"/>
      <point x="215" y="-211"/>
      <point x="258" y="-236"/>
      <point x="316" y="-236" type="curve" smooth="yes"/>
      <point x="391" y="-236"/>
      <point x="455" y="-207"/>
      <point x="455" y="-144" type="curve" smooth="yes"/>
      <point x="455" y="-87"/>
      <point x="387" y="-62"/>
      <point x="299" y="-66" type="curve"/>
      <point x="301" y="-75" type="line"/>
    </contour>
  </outline>
</glyph>
<glyph name="ordmasculine" format="2">
  <advance width="597"/>
  <unicode hex="00BA"/>
  <outline>
    <contour>
      <point x="537" y="515" type="curve" smooth="yes"/>
      <point x="537" y="637"/>
      <point x="437" y="720"/>
      <point x="298" y="720" type="curve" smooth="yes"/>
      <point x="159" y="720"/>
      <point x="60" y="637"/>
      <point x="60" y="515" type="curve" smooth="yes"/>
      <point x="60" y="392"/>
      <point x="159" y="310"/>
      <point x="298" y="310" type="curve" smooth="yes"/>
      <point x="437" y="310"/>
      <point x="537" y="392"/>
    </contour>
    <contour>
      <point x="154" y="515" type="curve" smooth="yes"/>
      <point x="154" y="616"/>
      <point x="212" y="681"/>
      <point x="298" y="681" type="curve" smooth="yes"/>
      <point x="385" y="681"/>
      <point x="443" y="616"/>
      <point x="443" y="515" type="curve" smooth="yes"/>
      <point x="443" y="410"/>
      <point x="385" y="348"/>
      <point x="298" y="348" type="curve" smooth="yes"/>
      <point x="212" y="348"/>
      <point x="154" y="410"/>
    </contour>
  </outline>
</glyph>
<glyph name="multiply" format="2">
  <advance width="680"/>
  <unicode hex="00D7"/>
  <outline>
    <contour>
      <point x="138" y="190" type="line"/>
      <point x="182" y="149" type="line"/>
      <point x="539" y="489" type="line"/>
      <point x="497" y="530" type="line"/>
    </contour>
    <contour>
      <point x="142" y="489" type="line"/>
      <point x="500" y="149" type="line"/>
      <point x="541" y="190" type="line"/>
      <point x="183" y="530" type="line"/>
    </contour>
  </outline>
</glyph>
<glyph name="Thorn" format="2">
  <advance width="726"/>
  <unicode hex="00DE"/>
  <outline>
    <contour>
      <point x="364" y="710" type="line"/>
      <point x="364" y="676" type="line"/>
      <point x="353" y="676" type="line" smooth="yes"/>
      <point x="310" y="676"/>
      <point x="258" y="673"/>
      <point x="258" y="666" type="curve"/>
      <point x="258" y="44" type="line" smooth="yes"/>
      <point x="258" y="37"/>
      <point x="310" y="34"/>
      <point x="353" y="34" type="curve" smooth="yes"/>
      <point x="364" y="34" type="line"/>
      <point x="364" y="0" type="line"/>
      <point x="61" y="0" type="line"/>
      <point x="61" y="34" type="line"/>
      <point x="74" y="34" type="line" smooth="yes"/>
      <point x="123" y="34"/>
      <point x="159" y="41"/>
      <point x="159" y="70" type="curve" smooth="yes"/>
      <point x="159" y="640" type="line" smooth="yes"/>
      <point x="159" y="669"/>
      <point x="123" y="676"/>
      <point x="74" y="676" type="curve" smooth="yes"/>
      <point x="61" y="676" type="line"/>
      <point x="61" y="710" type="line"/>
    </contour>
    <contour>
      <point x="680" y="366" type="curve" smooth="yes"/>
      <point x="680" y="245"/>
      <point x="570" y="156"/>
      <point x="387" y="156" type="curve" smooth="yes"/>
      <point x="238" y="156" type="line"/>
      <point x="238" y="196" type="line"/>
      <point x="385" y="196" type="line" smooth="yes"/>
      <point x="514" y="196"/>
      <point x="574" y="275"/>
      <point x="574" y="364" type="curve" smooth="yes"/>
      <point x="574" y="453"/>
      <point x="514" y="524"/>
      <point x="391" y="524" type="curve" smooth="yes"/>
      <point x="207" y="524" type="line"/>
      <point x="226" y="566" type="line"/>
      <point x="393" y="566" type="line" smooth="yes"/>
      <point x="578" y="566"/>
      <point x="680" y="487"/>
    </contour>
  </outline>
</glyph>
<glyph name="germandbls" format="2">
  <advance width="708"/>
  <unicode hex="00DF"/>
  <outline>
    <contour>
      <point x="52" y="508" type="line"/>
      <point x="52" y="465" type="line"/>
      <point x="200" y="465" type="line"/>
      <point x="200" y="508" type="line"/>
    </contour>
    <contour>
      <point x="340" y="416" type="line"/>
      <point x="468" y="426"/>
      <point x="596" y="502"/>
      <point x="596" y="603" type="curve" smooth="yes"/>
      <point x="596" y="689"/>
      <point x="519" y="752"/>
      <point x="383" y="752" type="curve" smooth="yes"/>
      <point x="268" y="752"/>
      <point x="159" y="709"/>
      <point x="159" y="577" type="curve" smooth="yes"/>
      <point x="159" y="67" type="line" smooth="yes"/>
      <point x="159" y="39"/>
      <point x="126" y="32"/>
      <point x="71" y="32" type="curve" smooth="yes"/>
      <point x="58" y="32" type="line"/>
      <point x="58" y="0" type="line"/>
      <point x="255" y="0" type="line"/>
      <point x="255" y="578" type="line" smooth="yes"/>
      <point x="255" y="680"/>
      <point x="305" y="709"/>
      <point x="382" y="709" type="curve" smooth="yes"/>
      <point x="457" y="709"/>
      <point x="503" y="668"/>
      <point x="503" y="593" type="curve" smooth="yes"/>
      <point x="503" y="505"/>
      <point x="426" y="452"/>
      <point x="324" y="441" type="curve"/>
      <point x="324" y="404" type="line"/>
      <point x="326" y="404" type="line" smooth="yes"/>
      <point x="460" y="404"/>
      <point x="567" y="317"/>
      <point x="567" y="189" type="curve" smooth="yes"/>
      <point x="567" y="84"/>
      <point x="518" y="34"/>
      <point x="437" y="34" type="curve" smooth="yes"/>
      <point x="385" y="34"/>
      <point x="331" y="54"/>
      <point x="323" y="57" type="curve"/>
      <point x="323" y="11" type="line"/>
      <point x="340" y="2"/>
      <point x="390" y="-10"/>
      <point x="443" y="-10" type="curve" smooth="yes"/>
      <point x="570" y="-10"/>
      <point x="667" y="55"/>
      <point x="667" y="192" type="curve" smooth="yes"/>
      <point x="667" y="315"/>
      <point x="563" y="417"/>
      <point x="385" y="437" type="curve"/>
      <point x="400" y="428" type="line"/>
      <point x="391" y="428" type="line"/>
    </contour>
  </outline>
</glyph>
<glyph name="icircumflex" format="2">
  <advance width="352"/>
  <unicode hex="00EE"/>
  <outline>
    <contour>
      <point x="208" y="738" type="line"/>
      <point x="327" y="581" type="line"/>
      <point x="327" y="570" type="line"/>
      <point x="294" y="570" type="line"/>
      <point x="140" y="698" type="line"/>
      <point x="187" y="701" type="line"/>
      <point x="30" y="570" type="line"/>
      <point x="3" y="570" type="line"/>
      <point x="3" y="581" type="line"/>
      <point x="121" y="738" type="line"/>
    </contour>
    <component base="dotlessi"/>
  </outline>
</glyph>
<glyph name="eth" format="2">
  <advance width="677"/>
  <unicode hex="00F0"/>
  <outline>
    <contour>
      <point x="537" y="409" type="line"/>
      <point x="501" y="485"/>
      <point x="415" y="518"/>
      <point x="341" y="518" type="curve" smooth="yes"/>
      <point x="176" y="518"/>
      <point x="47" y="413"/>
      <point x="47" y="256" type="curve" smooth="yes"/>
      <point x="47" y="99"/>
      <point x="169" y="-10"/>
      <point x="345" y="-10" type="curve" smooth="yes"/>
      <point x="514" y="-10"/>
      <point x="630" y="116"/>
      <point x="630" y="299" type="curve" smooth="yes"/>
      <point x="630" y="495"/>
      <point x="516" y="667"/>
      <point x="215" y="751" type="curve"/>
      <point x="190" y="715" type="line"/>
      <point x="442" y="632"/>
      <point x="531" y="489"/>
      <point x="531" y="294" type="curve" smooth="yes"/>
      <point x="531" y="134"/>
      <point x="463" y="34"/>
      <point x="345" y="34" type="curve" smooth="yes"/>
      <point x="219" y="34"/>
      <point x="147" y="117"/>
      <point x="147" y="256" type="curve" smooth="yes"/>
      <point x="147" y="389"/>
      <point x="227" y="474"/>
      <point x="334" y="474" type="curve" smooth="yes"/>
      <point x="427" y="474"/>
      <point x="486" y="432"/>
      <point x="551" y="356" type="curve"/>
    </contour>
    <contour>
      <point x="160" y="586" type="line"/>
      <point x="173" y="550" type="line"/>
      <point x="554" y="699" type="line"/>
      <point x="542" y="735" type="line"/>
    </contour>
  </outline>
</glyph>
<glyph name="divide" format="2">
  <advance width="680"/>
  <unicode hex="00F7"/>
  <outline>
    <contour>
      <point x="401" y="510" type="curve" smooth="yes"/>
      <point x="401" y="543"/>
      <point x="374" y="565"/>
      <point x="340" y="565" type="curve" smooth="yes"/>
      <point x="306" y="565"/>
      <point x="279" y="543"/>
      <point x="279" y="510" type="curve" smooth="yes"/>
      <point x="279" y="478"/>
      <point x="306" y="454"/>
      <point x="340" y="454" type="curve" smooth="yes"/>
      <point x="374" y="454"/>
      <point x="401" y="478"/>
    </contour>
    <contour>
      <point x="401" y="173" type="curve" smooth="yes"/>
      <point x="401" y="206"/>
      <point x="374" y="228"/>
      <point x="340" y="228" type="curve" smooth="yes"/>
      <point x="306" y="228"/>
      <point x="279" y="206"/>
      <point x="279" y="173" type="curve" smooth="yes"/>
      <point x="279" y="141"/>
      <point x="306" y="117"/>
      <point x="340" y="117" type="curve" smooth="yes"/>
      <point x="374" y="117"/>
      <point x="401" y="141"/>
    </contour>
    <component base="minus"/>
  </outline>
</glyph>
<glyph name="thorn" format="2">
  <advance width="731"/>
  <unicode hex="00FE"/>
  <outline>
    <contour>
      <point x="319" y="-223" type="line"/>
      <point x="319" y="-191" type="line"/>
      <point x="285" y="-191" type="line" smooth="yes"/>
      <point x="260" y="-191"/>
      <point x="214" y="-189"/>
      <point x="214" y="-182" type="curve"/>
      <point x="214" y="735" type="line"/>
      <point x="33" y="735" type="line"/>
      <point x="33" y="702" type="line"/>
      <point x="47" y="700" type="line" smooth="yes"/>
      <point x="97" y="694"/>
      <point x="119" y="687"/>
      <point x="119" y="658" type="curve" smooth="yes"/>
      <point x="119" y="-156" type="line" smooth="yes"/>
      <point x="119" y="-185"/>
      <point x="85" y="-191"/>
      <point x="37" y="-191" type="curve"/>
      <point x="35" y="-191" type="line"/>
      <point x="35" y="-223" type="line"/>
    </contour>
    <contour>
      <point x="409" y="-10" type="curve" smooth="yes"/>
      <point x="574" y="-10"/>
      <point x="684" y="99"/>
      <point x="684" y="257" type="curve" smooth="yes"/>
      <point x="684" y="414"/>
      <point x="584" y="518"/>
      <point x="429" y="518" type="curve" smooth="yes"/>
      <point x="332" y="518"/>
      <point x="250" y="473"/>
      <point x="197" y="394" type="curve"/>
      <point x="197" y="324" type="line"/>
      <point x="251" y="425"/>
      <point x="325" y="473"/>
      <point x="417" y="473" type="curve" smooth="yes"/>
      <point x="526" y="473"/>
      <point x="584" y="396"/>
      <point x="584" y="257" type="curve" smooth="yes"/>
      <point x="584" y="118"/>
      <point x="522" y="35"/>
      <point x="406" y="35" type="curve" smooth="yes"/>
      <point x="318" y="35"/>
      <point x="250" y="79"/>
      <point x="197" y="176" type="curve"/>
      <point x="197" y="100" type="line"/>
      <point x="240" y="32"/>
      <point x="319" y="-10"/>
    </contour>
  </outline>
</glyph>
<glyph name="aogonek" format="2">
  <advance width="619"/>
  <unicode hex="0105"/>
  <outline>
    <contour>
      <point x="297" y="-144" type="curve" smooth="yes"/>
      <point x="297" y="-202"/>
      <point x="345" y="-236"/>
      <point x="416" y="-236" type="curve" smooth="yes"/>
      <point x="475" y="-236"/>
      <point x="509" y="-213"/>
      <point x="536" y="-187" type="curve"/>
      <point x="516" y="-162" type="line"/>
      <point x="498" y="-178"/>
      <point x="469" y="-195"/>
      <point x="443" y="-195" type="curve"/>
      <point x="407" y="-195"/>
      <point x="390" y="-174"/>
      <point x="390" y="-134" type="curve" smooth="yes"/>
      <point x="390" y="-87"/>
      <point x="419" y="-38"/>
      <point x="514" y="15" type="curve"/>
      <point x="490" y="34" type="line"/>
      <point x="381" y="-23"/>
      <point x="297" y="-73"/>
    </contour>
    <contour>
      <point x="595" y="0" type="line"/>
      <point x="595" y="32" type="line"/>
      <point x="592" y="32" type="line"/>
      <point x="545" y="32"/>
      <point x="511" y="39"/>
      <point x="511" y="67" type="curve" smooth="yes"/>
      <point x="511" y="358" type="line" smooth="yes"/>
      <point x="511" y="477"/>
      <point x="408" y="518"/>
      <point x="302" y="518" type="curve" smooth="yes"/>
      <point x="200" y="518"/>
      <point x="124" y="482"/>
      <point x="90" y="458" type="curve"/>
      <point x="90" y="364" type="line"/>
      <point x="185" y="364" type="line"/>
      <point x="185" y="477" type="line"/>
      <point x="155" y="466"/>
      <point x="132" y="446"/>
      <point x="137" y="414" type="curve"/>
      <point x="167" y="449"/>
      <point x="218" y="480"/>
      <point x="296" y="480" type="curve" smooth="yes"/>
      <point x="372" y="480"/>
      <point x="417" y="453"/>
      <point x="417" y="351" type="curve" smooth="yes"/>
      <point x="417" y="94" type="line"/>
      <point x="427" y="111" type="line"/>
      <point x="427" y="0" type="line"/>
    </contour>
    <contour>
      <point x="56" y="122" type="curve" smooth="yes"/>
      <point x="56" y="38"/>
      <point x="124" y="-10"/>
      <point x="226" y="-10" type="curve" smooth="yes"/>
      <point x="327" y="-10"/>
      <point x="401" y="39"/>
      <point x="442" y="114" type="curve"/>
      <point x="442" y="167" type="line"/>
      <point x="399" y="82"/>
      <point x="333" y="38"/>
      <point x="247" y="38" type="curve" smooth="yes"/>
      <point x="190" y="38"/>
      <point x="156" y="77"/>
      <point x="156" y="124" type="curve" smooth="yes"/>
      <point x="156" y="215"/>
      <point x="229" y="258"/>
      <point x="445" y="273" type="curve"/>
      <point x="445" y="307" type="line"/>
      <point x="171" y="285"/>
      <point x="56" y="237"/>
    </contour>
  </outline>
</glyph>
<glyph name="Hbar" format="2">
  <advance width="955"/>
  <unicode hex="0126"/>
  <outline>
    <contour>
      <point x="225" y="386" type="line"/>
      <point x="225" y="346" type="line"/>
      <point x="734" y="346" type="line"/>
      <point x="734" y="386" type="line"/>
    </contour>
    <contour>
      <point x="61" y="0" type="line"/>
      <point x="356" y="0" type="line"/>
      <point x="356" y="34" type="line"/>
      <point x="345" y="34" type="line" smooth="yes"/>
      <point x="306" y="34"/>
      <point x="258" y="37"/>
      <point x="258" y="44" type="curve" smooth="yes"/>
      <point x="258" y="666" type="line" smooth="yes"/>
      <point x="258" y="673"/>
      <point x="306" y="676"/>
      <point x="345" y="676" type="curve" smooth="yes"/>
      <point x="356" y="676" type="line"/>
      <point x="356" y="710" type="line"/>
      <point x="61" y="710" type="line"/>
      <point x="61" y="676" type="line"/>
      <point x="74" y="676" type="line" smooth="yes"/>
      <point x="123" y="676"/>
      <point x="159" y="669"/>
      <point x="159" y="640" type="curve" smooth="yes"/>
      <point x="159" y="70" type="line" smooth="yes"/>
      <point x="159" y="41"/>
      <point x="123" y="34"/>
      <point x="74" y="34" type="curve" smooth="yes"/>
      <point x="61" y="34" type="line"/>
    </contour>
    <contour>
      <point x="599" y="0" type="line"/>
      <point x="894" y="0" type="line"/>
      <point x="894" y="34" type="line"/>
      <point x="881" y="34" type="line" smooth="yes"/>
      <point x="832" y="34"/>
      <point x="796" y="41"/>
      <point x="796" y="70" type="curve" smooth="yes"/>
      <point x="796" y="640" type="line"/>
      <point x="796" y="669"/>
      <point x="832" y="676"/>
      <point x="881" y="676" type="curve" smooth="yes"/>
      <point x="894" y="676" type="line"/>
      <point x="894" y="710" type="line"/>
      <point x="599" y="710" type="line"/>
      <point x="599" y="676" type="line"/>
      <point x="609" y="676" type="line" smooth="yes"/>
      <point x="647" y="676"/>
      <point x="697" y="673"/>
      <point x="697" y="666" type="curve"/>
      <point x="697" y="44" type="line" smooth="yes"/>
      <point x="697" y="37"/>
      <point x="647" y="34"/>
      <point x="609" y="34" type="curve" smooth="yes"/>
      <point x="599" y="34" type="line"/>
    </contour>
    <contour>
      <point x="61" y="502" type="line"/>
      <point x="894" y="502" type="line"/>
      <point x="894" y="542" type="line"/>
      <point x="61" y="542" type="line"/>
    </contour>
  </outline>
</glyph>
<glyph name="itilde" format="2">
  <advance width="352"/>
  <unicode hex="0129"/>
  <outline>
    <contour>
      <point x="232" y="598" type="curve" smooth="yes"/>
      <point x="294" y="598"/>
      <point x="325" y="637"/>
      <point x="345" y="720" type="curve"/>
      <point x="302" y="733" type="line"/>
      <point x="289" y="689"/>
      <point x="272" y="654"/>
      <point x="242" y="654" type="curve" smooth="yes"/>
      <point x="201" y="654"/>
      <point x="167" y="725"/>
      <point x="108" y="725" type="curve" smooth="yes"/>
      <point x="43" y="725"/>
      <point x="12" y="689"/>
      <point x="-4" y="605" type="curve"/>
      <point x="41" y="591" type="line"/>
      <point x="50" y="637"/>
      <point x="68" y="669"/>
      <point x="98" y="669" type="curve" smooth="yes"/>
      <point x="136" y="669"/>
      <point x="166" y="598"/>
    </contour>
    <component base="dotlessi"/>
  </outline>
</glyph>
<glyph name="imacron" format="2">
  <advance width="352"/>
  <unicode hex="012B"/>
  <outline>
    <contour>
      <point x="5" y="683" type="line"/>
      <point x="5" y="634" type="line"/>
      <point x="306" y="634" type="line"/>
      <point x="306" y="683" type="line"/>
    </contour>
    <component base="dotlessi"/>
  </outline>
</glyph>
<glyph name="dotlessi" format="2">
  <advance width="352"/>
  <unicode hex="0131"/>
  <anchor x="188" y="508" name="top"/>
  <outline>
    <contour>
      <point x="232" y="508" type="line"/>
      <point x="52" y="508" type="line"/>
      <point x="52" y="476" type="line"/>
      <point x="65" y="474" type="line" smooth="yes"/>
      <point x="115" y="467"/>
      <point x="137" y="460"/>
      <point x="137" y="432" type="curve" smooth="yes"/>
      <point x="137" y="67" type="line" smooth="yes"/>
      <point x="137" y="39"/>
      <point x="102" y="32"/>
      <point x="54" y="32" type="curve"/>
      <point x="53" y="32" type="line"/>
      <point x="53" y="0" type="line"/>
      <point x="316" y="0" type="line"/>
      <point x="316" y="32" type="line"/>
      <point x="314" y="32" type="line"/>
      <point x="267" y="32"/>
      <point x="232" y="39"/>
      <point x="232" y="67" type="curve" smooth="yes"/>
    </contour>
  </outline>
</glyph>
<glyph name="Eng" format="2">
  <advance width="917"/>
  <unicode hex="014A"/>
  <outline>
    <contour>
      <point x="766" y="-11" type="curve" smooth="yes"/>
      <point x="766" y="635" type="line"/>
      <point x="766" y="665"/>
      <point x="802" y="676"/>
      <point x="851" y="676" type="curve" smooth="yes"/>
      <point x="865" y="676" type="line"/>
      <point x="865" y="710" type="line"/>
      <point x="587" y="710" type="line"/>
      <point x="587" y="676" type="line"/>
      <point x="603" y="676" type="line" smooth="yes"/>
      <point x="647" y="676"/>
      <point x="710" y="668"/>
      <point x="710" y="661" type="curve" smooth="yes"/>
      <point x="710" y="96" type="line"/>
      <point x="747" y="61" type="line"/>
      <point x="301" y="710" type="line"/>
      <point x="61" y="710" type="line"/>
      <point x="61" y="676" type="line"/>
      <point x="74" y="676" type="line" smooth="yes"/>
      <point x="123" y="676"/>
      <point x="159" y="669"/>
      <point x="159" y="640" type="curve" smooth="yes"/>
      <point x="159" y="75" type="line" smooth="yes"/>
      <point x="159" y="46"/>
      <point x="123" y="34"/>
      <point x="74" y="34" type="curve" smooth="yes"/>
      <point x="61" y="34" type="line"/>
      <point x="61" y="0" type="line"/>
      <point x="339" y="0" type="line"/>
      <point x="339" y="34" type="line"/>
      <point x="315" y="34" type="line" smooth="yes"/>
      <point x="271" y="34"/>
      <point x="214" y="42"/>
      <point x="214" y="49" type="curve" smooth="yes"/>
      <point x="214" y="688" type="line"/>
      <point x="198" y="695" type="line"/>
      <point x="715" y="-47" type="line"/>
      <point x="711" y="12" type="line"/>
      <point x="711" y="-31" type="line" smooth="yes"/>
      <point x="711" y="-130"/>
      <point x="649" y="-165"/>
      <point x="551" y="-165" type="curve" smooth="yes"/>
      <point x="509" y="-165"/>
      <point x="466" y="-154"/>
      <point x="440" y="-148" type="curve"/>
      <point x="440" y="-200" type="line"/>
      <point x="462" y="-206"/>
      <point x="512" y="-212"/>
      <point x="554" y="-212" type="curve" smooth="yes"/>
      <point x="658" y="-212"/>
      <point x="766" y="-162"/>
    </contour>
  </outline>
</glyph>
<glyph name="eng" format="2">
  <advance width="710"/>
  <unicode hex="014B"/>
  <outline>
    <contour>
      <point x="52" y="0" type="line"/>
      <point x="304" y="0" type="line"/>
      <point x="304" y="32" type="line"/>
      <point x="301" y="32" type="line" smooth="yes"/>
      <point x="274" y="32"/>
      <point x="231" y="35"/>
      <point x="231" y="41" type="curve" smooth="yes"/>
      <point x="231" y="392" type="line"/>
      <point x="222" y="402" type="line"/>
      <point x="222" y="508" type="line"/>
      <point x="52" y="508" type="line"/>
      <point x="52" y="476" type="line"/>
      <point x="64" y="474" type="line" smooth="yes"/>
      <point x="112" y="466"/>
      <point x="136" y="460"/>
      <point x="136" y="432" type="curve" smooth="yes"/>
      <point x="136" y="67" type="line" smooth="yes"/>
      <point x="136" y="39"/>
      <point x="102" y="32"/>
      <point x="54" y="32" type="curve" smooth="yes"/>
      <point x="52" y="32" type="line"/>
    </contour>
    <contour>
      <point x="520" y="-64" type="line" smooth="yes"/>
      <point x="520" y="-161"/>
      <point x="480" y="-192"/>
      <point x="412" y="-192" type="curve" smooth="yes"/>
      <point x="377" y="-192"/>
      <point x="351" y="-187"/>
      <point x="322" y="-177" type="curve"/>
      <point x="322" y="-222" type="line"/>
      <point x="346" y="-232"/>
      <point x="378" y="-236"/>
      <point x="415" y="-236" type="curve" smooth="yes"/>
      <point x="520" y="-236"/>
      <point x="615" y="-196"/>
      <point x="615" y="-56" type="curve" smooth="yes"/>
      <point x="615" y="332" type="line" smooth="yes"/>
      <point x="615" y="458"/>
      <point x="539" y="518"/>
      <point x="426" y="518" type="curve" smooth="yes"/>
      <point x="338" y="518"/>
      <point x="270" y="478"/>
      <point x="214" y="407" type="curve"/>
      <point x="210" y="353" type="line"/>
      <point x="258" y="424"/>
      <point x="331" y="467"/>
      <point x="408" y="467" type="curve" smooth="yes"/>
      <point x="489" y="467"/>
      <point x="520" y="416"/>
      <point x="520" y="329" type="curve"/>
    </contour>
  </outline>
</glyph>
<glyph name="OE" format="2">
  <advance width="1196"/>
  <unicode hex="0152"/>
  <outline>
    <contour>
      <point x="677" y="383" type="curve"/>
      <point x="677" y="345" type="line"/>
      <point x="781" y="342"/>
      <point x="885" y="339"/>
      <point x="987" y="336" type="curve"/>
      <point x="987" y="392" type="line"/>
      <point x="883" y="388"/>
      <point x="780" y="385"/>
    </contour>
    <contour>
      <point x="489" y="40" type="line" smooth="yes"/>
      <point x="280" y="40"/>
      <point x="153" y="152"/>
      <point x="153" y="355" type="curve" smooth="yes"/>
      <point x="153" y="558"/>
      <point x="280" y="670"/>
      <point x="489" y="670" type="curve" smooth="yes"/>
      <point x="612" y="670" type="line"/>
      <point x="612" y="40" type="line"/>
    </contour>
    <contour>
      <point x="489" y="0" type="curve" smooth="yes"/>
      <point x="1135" y="0" type="line"/>
      <point x="1135" y="203" type="line"/>
      <point x="1083" y="203" type="line"/>
      <point x="1074" y="114" type="line" smooth="yes"/>
      <point x="1068" y="55"/>
      <point x="1051" y="42"/>
      <point x="947" y="42" type="curve" smooth="yes"/>
      <point x="711" y="42" type="line"/>
      <point x="711" y="668" type="line"/>
      <point x="914" y="668" type="line" smooth="yes"/>
      <point x="1015" y="668"/>
      <point x="1034" y="651"/>
      <point x="1040" y="601" type="curve" smooth="yes"/>
      <point x="1049" y="532" type="line"/>
      <point x="1100" y="532" type="line"/>
      <point x="1100" y="710" type="line"/>
      <point x="489" y="710" type="line" smooth="yes"/>
      <point x="225" y="710"/>
      <point x="48" y="572"/>
      <point x="48" y="355" type="curve" smooth="yes"/>
      <point x="48" y="138"/>
      <point x="225" y="0"/>
    </contour>
  </outline>
</glyph>
<glyph name="tbar" format="2">
  <advance width="425"/>
  <unicode hex="0167"/>
  <outline>
    <contour>
      <point x="1" y="279" type="line"/>
      <point x="383" y="279" type="line"/>
      <point x="383" y="317" type="line"/>
      <point x="1" y="317" type="line"/>
    </contour>
    <component base="t"/>
  </outline>
</glyph>
<glyph name="Schwa" format="2">
  <advance width="811"/>
  <unicode hex="018F"/>
  <outline>
    <contour>
      <point x="400" y="720" type="curve" smooth="yes"/>
      <point x="229" y="720"/>
      <point x="130" y="642"/>
      <point x="66" y="552" type="curve"/>
      <point x="106" y="522" type="line"/>
      <point x="153" y="601"/>
      <point x="243" y="679"/>
      <point x="394" y="679" type="curve" smooth="yes"/>
      <point x="552" y="679"/>
      <point x="659" y="560"/>
      <point x="659" y="356" type="curve"/>
      <point x="659" y="158"/>
      <point x="548" y="32"/>
      <point x="404" y="32" type="curve" smooth="yes"/>
      <point x="242" y="32"/>
      <point x="155" y="135"/>
      <point x="153" y="339" type="curve"/>
      <point x="122" y="325" type="line"/>
      <point x="711" y="325" type="line"/>
      <point x="711" y="369" type="line"/>
      <point x="50" y="369" type="line"/>
      <point x="50" y="128"/>
      <point x="173" y="-10"/>
      <point x="402" y="-10" type="curve" smooth="yes"/>
      <point x="606" y="-10"/>
      <point x="763" y="140"/>
      <point x="763" y="358" type="curve" smooth="yes"/>
      <point x="763" y="579"/>
      <point x="611" y="720"/>
    </contour>
  </outline>
</glyph>
<glyph name="khook" format="2">
  <advance width="721"/>
  <unicode hex="0199"/>
  <anchor x="382.13" y="752" name="top"/>
  <anchor x="360.5" y="0" name="bottom"/>
  <outline>
    <contour>
      <point x="697" y="0" type="line"/>
      <point x="697" y="32" type="line"/>
      <point x="694" y="32" type="line"/>
      <point x="654" y="32"/>
      <point x="622" y="40"/>
      <point x="592" y="70" type="curve" smooth="yes"/>
      <point x="346" y="308" type="line"/>
      <point x="323" y="270" type="line"/>
      <point x="536" y="441" type="line" smooth="yes"/>
      <point x="568" y="466"/>
      <point x="592" y="477"/>
      <point x="659" y="477" type="curve"/>
      <point x="661" y="477" type="line"/>
      <point x="661" y="508" type="line"/>
      <point x="388" y="508" type="line"/>
      <point x="388" y="477" type="line"/>
      <point x="392" y="477" type="line" smooth="yes"/>
      <point x="425" y="477"/>
      <point x="496" y="474"/>
      <point x="496" y="459" type="curve"/>
      <point x="265" y="273" type="line"/>
      <point x="265" y="267" type="line"/>
      <point x="497" y="41" type="line"/>
      <point x="497" y="35"/>
      <point x="454" y="32"/>
      <point x="426" y="32" type="curve" smooth="yes"/>
      <point x="422" y="32" type="line"/>
      <point x="422" y="0" type="line"/>
    </contour>
    <contour>
      <point x="137" y="551" type="curve"/>
      <point x="137" y="67" type="line" smooth="yes"/>
      <point x="137" y="39"/>
      <point x="103" y="32"/>
      <point x="55" y="32" type="curve"/>
      <point x="53" y="32" type="line"/>
      <point x="53" y="0" type="line"/>
      <point x="312" y="0" type="line"/>
      <point x="312" y="32" type="line"/>
      <point x="309" y="32" type="line" smooth="yes"/>
      <point x="280" y="32"/>
      <point x="232" y="35"/>
      <point x="232" y="41" type="curve" smooth="yes"/>
      <point x="232" y="551" type="line"/>
      <point x="232.0" y="684.7793103448275"/>
      <point x="309.0" y="710.0"/>
      <point x="364" y="710" type="curve"/>
      <point x="420" y="710.0"/>
      <point x="472" y="694.0"/>
      <point x="502" y="681" type="curve"/>
      <point x="502" y="738" type="line"/>
      <point x="480" y="743.0"/>
      <point x="429" y="752.0"/>
      <point x="375" y="752" type="curve"/>
      <point x="268.0" y="752.0"/>
      <point x="137.0" y="710.0"/>
    </contour>
  </outline>
</glyph>
<glyph name="Ohorn" format="2">
  <advance width="914"/>
  <unicode hex="01A0"/>
  <anchor x="454" y="742" name="top"/>
  <anchor x="454" y="-35" name="bottom"/>
  <outline>
    <contour>
      <point x="457" y="32" type="curve" smooth="yes"/>
      <point x="284" y="32"/>
      <point x="153" y="153"/>
      <point x="153" y="355" type="curve" smooth="yes"/>
      <point x="153" y="557"/>
      <point x="283" y="678"/>
      <point x="457" y="678" type="curve" smooth="yes"/>
      <point x="630" y="678"/>
      <point x="761" y="561"/>
      <point x="761" y="355" type="curve" smooth="yes"/>
      <point x="761" y="150"/>
      <point x="630" y="32"/>
    </contour>
    <contour>
      <point x="618" y="672" type="line"/>
      <point x="618" y="695" type="line"/>
      <point x="586" y="687" type="line"/>
      <point x="613" y="682"/>
      <point x="647" y="683"/>
      <point x="659" y="683" type="curve" smooth="yes"/>
      <point x="796" y="683"/>
      <point x="894" y="733"/>
      <point x="902" y="877" type="curve"/>
      <point x="811" y="877" type="line"/>
      <point x="806" y="751"/>
      <point x="753" y="704"/>
      <point x="599" y="704" type="curve" smooth="yes"/>
      <point x="566" y="704"/>
      <point x="501" y="720"/>
      <point x="457" y="720" type="curve"/>
      <point x="230" y="720"/>
      <point x="48" y="572"/>
      <point x="48" y="355" type="curve" smooth="yes"/>
      <point x="48" y="139"/>
      <point x="230" y="-10"/>
      <point x="457" y="-10" type="curve" smooth="yes"/>
      <point x="684" y="-10"/>
      <point x="866" y="139"/>
      <point x="866" y="355" type="curve" smooth="yes"/>
      <point x="866" y="508"/>
      <point x="764" y="653"/>
      <point x="589" y="694" type="curve"/>
    </contour>
  </outline>
</glyph>
<glyph name="ohorn" format="2">
  <advance width="705"/>
  <unicode hex="01A1"/>
  <anchor x="346" y="508" name="top"/>
  <anchor x="346" y="-35" name="bottom"/>
  <outline>
    <contour>
      <point x="147" y="254" type="curve" smooth="yes"/>
      <point x="147" y="397"/>
      <point x="224" y="479"/>
      <point x="344" y="479" type="curve" smooth="yes"/>
      <point x="463" y="479"/>
      <point x="541" y="397"/>
      <point x="541" y="254" type="curve" smooth="yes"/>
      <point x="541" y="108"/>
      <point x="463" y="29"/>
      <point x="344" y="29" type="curve"/>
      <point x="224" y="29"/>
      <point x="147" y="109"/>
    </contour>
    <contour>
      <point x="490" y="482" type="line"/>
      <point x="490" y="495" type="line"/>
      <point x="441" y="491" type="line"/>
      <point x="452" y="489"/>
      <point x="467" y="487"/>
      <point x="478" y="487" type="curve" smooth="yes"/>
      <point x="601" y="487"/>
      <point x="667" y="553"/>
      <point x="668" y="680" type="curve"/>
      <point x="582" y="680" type="line"/>
      <point x="582" y="571"/>
      <point x="554" y="508"/>
      <point x="453" y="508" type="curve" smooth="yes"/>
      <point x="428" y="508"/>
      <point x="389" y="518"/>
      <point x="344" y="518" type="curve"/>
      <point x="174" y="518"/>
      <point x="47" y="410"/>
      <point x="47" y="254" type="curve" smooth="yes"/>
      <point x="47" y="97"/>
      <point x="174" y="-10"/>
      <point x="344" y="-10" type="curve"/>
      <point x="514" y="-10"/>
      <point x="641" y="97"/>
      <point x="641" y="254" type="curve" smooth="yes"/>
      <point x="641" y="362"/>
      <point x="552" y="476"/>
      <point x="431" y="509" type="curve"/>
    </contour>
  </outline>
</glyph>
<glyph name="Uhorn" format="2">
  <advance width="959"/>
  <unicode hex="01AF"/>
  <anchor x="484" y="663" name="top"/>
  <anchor x="484" y="-35" name="bottom"/>
  <outline>
    <contour>
      <point x="157" y="259" type="line" smooth="yes"/>
      <point x="157" y="68"/>
      <point x="290" y="-10"/>
      <point x="473" y="-10" type="curve" smooth="yes"/>
      <point x="641" y="-10"/>
      <point x="775" y="68"/>
      <point x="775" y="258" type="curve" smooth="yes"/>
      <point x="775" y="634" type="line" smooth="yes"/>
      <point x="775" y="663"/>
      <point x="795" y="680"/>
      <point x="842" y="688" type="curve" smooth="yes"/>
      <point x="943" y="708"/>
      <point x="1011" y="752"/>
      <point x="1011" y="877" type="curve"/>
      <point x="920" y="877" type="line"/>
      <point x="920" y="748"/>
      <point x="900" y="710"/>
      <point x="768" y="710" type="curve" smooth="yes"/>
      <point x="607" y="710" type="line"/>
      <point x="607" y="676" type="line"/>
      <point x="618" y="676" type="line" smooth="yes"/>
      <point x="655" y="676"/>
      <point x="720" y="668"/>
      <point x="720" y="654" type="curve" smooth="yes"/>
      <point x="720" y="259" type="line" smooth="yes"/>
      <point x="720" y="90"/>
      <point x="618" y="45"/>
      <point x="490" y="45" type="curve" smooth="yes"/>
      <point x="356" y="45"/>
      <point x="256" y="92"/>
      <point x="256" y="259" type="curve" smooth="yes"/>
      <point x="256" y="666" type="line" smooth="yes"/>
      <point x="256" y="673"/>
      <point x="304" y="676"/>
      <point x="343" y="676" type="curve" smooth="yes"/>
      <point x="354" y="676" type="line"/>
      <point x="354" y="710" type="line"/>
      <point x="59" y="710" type="line"/>
      <point x="59" y="676" type="line"/>
      <point x="72" y="676" type="line" smooth="yes"/>
      <point x="120" y="676"/>
      <point x="157" y="669"/>
      <point x="157" y="640" type="curve" smooth="yes"/>
    </contour>
  </outline>
</glyph>
<glyph name="uhorn" format="2">
  <advance width="720"/>
  <unicode hex="01B0"/>
  <anchor x="332" y="508" name="top"/>
  <anchor x="345" y="-35" name="bottom"/>
  <outline>
    <contour>
      <point x="212" y="508" type="line"/>
      <point x="32" y="508" type="line"/>
      <point x="32" y="478" type="line"/>
      <point x="45" y="476" type="line" smooth="yes"/>
      <point x="93" y="469"/>
      <point x="117" y="462"/>
      <point x="117" y="434" type="curve" smooth="yes"/>
      <point x="117" y="170" type="line" smooth="yes"/>
      <point x="117" y="41"/>
      <point x="188" y="-10"/>
      <point x="303" y="-10" type="curve" smooth="yes"/>
      <point x="385" y="-10"/>
      <point x="457" y="26"/>
      <point x="512" y="98" type="curve"/>
      <point x="512" y="155" type="line"/>
      <point x="460" y="80"/>
      <point x="393" y="41"/>
      <point x="321" y="41" type="curve" smooth="yes"/>
      <point x="235" y="41"/>
      <point x="212" y="79"/>
      <point x="212" y="181" type="curve" smooth="yes"/>
    </contour>
    <contour>
      <point x="455" y="508" type="curve" smooth="yes"/>
      <point x="395" y="508" type="line"/>
      <point x="395" y="478" type="line"/>
      <point x="417" y="474" type="line" smooth="yes"/>
      <point x="469" y="465"/>
      <point x="494" y="462"/>
      <point x="494" y="434" type="curve" smooth="yes"/>
      <point x="494" y="116" type="line"/>
      <point x="503" y="105" type="line"/>
      <point x="503" y="0" type="line"/>
      <point x="675" y="0" type="line"/>
      <point x="675" y="32" type="line"/>
      <point x="672" y="32" type="line" smooth="yes"/>
      <point x="616" y="32"/>
      <point x="589" y="39"/>
      <point x="589" y="67" type="curve" smooth="yes"/>
      <point x="589" y="495" type="line"/>
      <point x="492" y="489" type="line"/>
      <point x="655" y="491"/>
      <point x="738" y="524"/>
      <point x="739" y="680" type="curve"/>
      <point x="653" y="680" type="line"/>
      <point x="653" y="545"/>
      <point x="627" y="508"/>
    </contour>
  </outline>
</glyph>
<glyph name="Yhook" format="2">
  <advance width="845"/>
  <unicode hex="01B3"/>
  <anchor x="430.95" y="741" name="top"/>
  <anchor x="397.15" y="0" name="bottom"/>
  <outline>
    <contour>
      <point x="587" y="578" type="curve" smooth="yes"/>
      <point x="415" y="322" type="line"/>
      <point x="434" y="322" type="line"/>
      <point x="200" y="663" type="line"/>
      <point x="200.0" y="670.0"/>
      <point x="239.0" y="676.0"/>
      <point x="274" y="676" type="curve" smooth="yes"/>
      <point x="294" y="676" type="line"/>
      <point x="294" y="710" type="line"/>
      <point x="15" y="710" type="line"/>
      <point x="15" y="676" type="line"/>
      <point x="21" y="676" type="line" smooth="yes"/>
      <point x="58" y="676"/>
      <point x="83" y="672"/>
      <point x="101" y="647" type="curve" smooth="yes"/>
      <point x="364" y="271" type="line"/>
      <point x="348" y="316" type="line"/>
      <point x="348" y="70" type="line" smooth="yes"/>
      <point x="348" y="41"/>
      <point x="312" y="34"/>
      <point x="263" y="34" type="curve" smooth="yes"/>
      <point x="245" y="34" type="line"/>
      <point x="245" y="0" type="line"/>
      <point x="551" y="0" type="line"/>
      <point x="551" y="34" type="line"/>
      <point x="532" y="34" type="line" smooth="yes"/>
      <point x="484" y="34"/>
      <point x="448" y="41"/>
      <point x="448" y="70" type="curve" smooth="yes"/>
      <point x="448" y="316" type="line"/>
      <point x="430" y="269" type="line"/>
      <point x="620" y="549" type="line" smooth="yes"/>
      <point x="674.5089285714286" y="632.4782608695652"/>
      <point x="702.0" y="669.0"/>
      <point x="731" y="669" type="curve" smooth="yes"/>
      <point x="758.0" y="669.0"/>
      <point x="767.0" y="641.3544303797469"/>
      <point x="767" y="585" type="curve" smooth="yes"/>
      <point x="767" y="544"/>
      <point x="754" y="496"/>
      <point x="741" y="468" type="curve"/>
      <point x="837" y="468" type="line"/>
      <point x="848" y="492"/>
      <point x="856" y="542"/>
      <point x="856" y="584" type="curve" smooth="yes"/>
      <point x="856" y="655"/>
      <point x="830" y="719"/>
      <point x="747" y="719" type="curve" smooth="yes"/>
      <point x="686.6994219653179" y="719.0"/>
      <point x="653" y="676"/>
    </contour>
  </outline>
</glyph>
<glyph name="oogonek" format="2">
  <advance width="688"/>
  <unicode hex="01EB"/>
  <outline>
    <contour>
      <point x="147" y="254" type="curve" smooth="yes"/>
      <point x="147" y="397"/>
      <point x="224" y="479"/>
      <point x="344" y="479" type="curve" smooth="yes"/>
      <point x="463" y="479"/>
      <point x="541" y="397"/>
      <point x="541" y="254" type="curve" smooth="yes"/>
      <point x="541" y="110"/>
      <point x="463" y="31"/>
      <point x="344" y="31" type="curve"/>
      <point x="224" y="31"/>
      <point x="147" y="111"/>
    </contour>
    <contour>
      <point x="469" y="36" type="line"/>
      <point x="370" y="-15"/>
      <point x="269" y="-70"/>
      <point x="269" y="-144" type="curve" smooth="yes"/>
      <point x="269" y="-202"/>
      <point x="317" y="-236"/>
      <point x="388" y="-236" type="curve" smooth="yes"/>
      <point x="447" y="-236"/>
      <point x="481" y="-213"/>
      <point x="508" y="-187" type="curve"/>
      <point x="485" y="-158" type="line"/>
      <point x="467" y="-174"/>
      <point x="441" y="-192"/>
      <point x="409" y="-192" type="curve"/>
      <point x="379" y="-192"/>
      <point x="357" y="-176"/>
      <point x="357" y="-134" type="curve" smooth="yes"/>
      <point x="357" y="-63"/>
      <point x="426" y="-27"/>
      <point x="521" y="40" type="curve" smooth="yes"/>
      <point x="597" y="96"/>
      <point x="641" y="170"/>
      <point x="641" y="255" type="curve" smooth="yes"/>
      <point x="641" y="409"/>
      <point x="514" y="518"/>
      <point x="344" y="518" type="curve" smooth="yes"/>
      <point x="174" y="518"/>
      <point x="47" y="410"/>
      <point x="47" y="255" type="curve" smooth="yes"/>
      <point x="47" y="99"/>
      <point x="174" y="-8"/>
      <point x="344" y="-8" type="curve" smooth="yes"/>
      <point x="390" y="-8"/>
      <point x="433" y="-2"/>
      <point x="471" y="13" type="curve"/>
    </contour>
  </outline>
</glyph>
<glyph name="dhook" format="2">
  <advance width="728"/>
  <unicode hex="0257"/>
  <anchor x="575.12" y="762" name="top"/>
  <anchor x="342.16" y="0" name="bottom"/>
  <outline>
    <contour>
      <point x="612" y="567" type="line"/>
      <point x="612.0" y="682.2868217054263"/>
      <point x="656.0" y="710.0"/>
      <point x="705" y="710" type="curve"/>
      <point x="732" y="710.0"/>
      <point x="767" y="699.0"/>
      <point x="787" y="689" type="curve"/>
      <point x="787" y="745" type="line"/>
      <point x="770" y="749.0"/>
      <point x="740" y="752.0"/>
      <point x="706" y="752" type="curve"/>
      <point x="618" y="752.0"/>
      <point x="517.0" y="708"/>
      <point x="517" y="567" type="curve"/>
      <point x="517" y="115" type="line"/>
      <point x="525" y="112" type="line"/>
      <point x="525" y="0" type="line"/>
      <point x="696" y="0" type="line"/>
      <point x="696" y="32" type="line"/>
      <point x="695" y="32" type="line"/>
      <point x="647" y="32"/>
      <point x="612" y="39"/>
      <point x="612" y="67" type="curve"/>
    </contour>
    <contour>
      <point x="323" y="518" type="curve" smooth="yes"/>
      <point x="157" y="518"/>
      <point x="47" y="409"/>
      <point x="47" y="250" type="curve" smooth="yes"/>
      <point x="47" y="94"/>
      <point x="151" y="-10"/>
      <point x="315" y="-10" type="curve" smooth="yes"/>
      <point x="413" y="-10"/>
      <point x="486" y="42"/>
      <point x="534" y="115" type="curve"/>
      <point x="534" y="187" type="line"/>
      <point x="480" y="87"/>
      <point x="413" y="35"/>
      <point x="322" y="35" type="curve" smooth="yes"/>
      <point x="208" y="35"/>
      <point x="147" y="117"/>
      <point x="147" y="250" type="curve" smooth="yes"/>
      <point x="147" y="386"/>
      <point x="209" y="473"/>
      <point x="326" y="473" type="curve" smooth="yes"/>
      <point x="415" y="473"/>
      <point x="488" y="427"/>
      <point x="534" y="335" type="curve"/>
      <point x="534" y="408" type="line"/>
      <point x="489" y="474"/>
      <point x="423" y="518"/>
    </contour>
  </outline>
</glyph>
<glyph name="schwa" format="2">
  <advance width="618"/>
  <unicode hex="0259"/>
  <outline>
    <contour>
      <point x="474" y="258" type="curve" smooth="yes"/>
      <point x="474" y="112"/>
      <point x="405" y="33"/>
      <point x="302" y="33" type="curve" smooth="yes"/>
      <point x="204" y="33"/>
      <point x="135" y="115"/>
      <point x="138" y="243" type="curve"/>
      <point x="108" y="226" type="line"/>
      <point x="496" y="226" type="line"/>
      <point x="496" y="269" type="line"/>
      <point x="39" y="269" type="line"/>
      <point x="40" y="82"/>
      <point x="142" y="-10"/>
      <point x="303" y="-10" type="curve" smooth="yes"/>
      <point x="456" y="-10"/>
      <point x="572" y="98"/>
      <point x="572" y="256" type="curve" smooth="yes"/>
      <point x="572" y="428"/>
      <point x="457" y="518"/>
      <point x="296" y="518" type="curve" smooth="yes"/>
      <point x="183" y="518"/>
      <point x="101" y="465"/>
      <point x="50" y="397" type="curve"/>
      <point x="90" y="366" type="line"/>
      <point x="128" y="416"/>
      <point x="187" y="475"/>
      <point x="292" y="475" type="curve" smooth="yes"/>
      <point x="398" y="475"/>
      <point x="474" y="407"/>
    </contour>
  </outline>
</glyph>
<glyph name="ringhalfleft" format="2">
  <advance width="588"/>
  <unicode hex="02BF"/>
  <anchor x="294" y="566" name="_top"/>
  <outline>
    <contour>
      <point x="294" y="600" type="line"/>
      <point x="260" y="600"/>
      <point x="235" y="622"/>
      <point x="235" y="670" type="curve" smooth="yes"/>
      <point x="235" y="716"/>
      <point x="260" y="740"/>
      <point x="294" y="740" type="curve"/>
      <point x="294" y="768" type="line"/>
      <point x="226" y="768"/>
      <point x="175" y="732"/>
      <point x="175" y="670" type="curve" smooth="yes"/>
      <point x="175" y="607"/>
      <point x="226" y="571"/>
      <point x="294" y="571" type="curve"/>
    </contour>
  </outline>
</glyph>
<glyph name="verticallinemod" format="2">
  <advance width="588"/>
  <unicode hex="02C8"/>
  <outline>
    <contour>
      <point x="258" y="546" type="line"/>
      <point x="327" y="546" type="line"/>
      <point x="327" y="750" type="line"/>
      <point x="258" y="750" type="line"/>
    </contour>
  </outline>
</glyph>
<glyph name="ring" format="2">
  <advance width="588"/>
  <unicode hex="02DA"/>
  <anchor x="294" y="526" name="_top"/>
  <outline>
    <contour>
      <point x="235" y="670" type="curve" smooth="yes"/>
      <point x="235" y="716"/>
      <point x="260" y="737"/>
      <point x="294" y="737" type="curve" smooth="yes"/>
      <point x="327" y="737"/>
      <point x="353" y="716"/>
      <point x="353" y="670" type="curve" smooth="yes"/>
      <point x="353" y="623"/>
      <point x="327" y="603"/>
      <point x="294" y="603" type="curve" smooth="yes"/>
      <point x="260" y="603"/>
      <point x="235" y="623"/>
    </contour>
    <contour>
      <point x="413" y="670" type="curve" smooth="yes"/>
      <point x="413" y="732"/>
      <point x="362" y="768"/>
      <point x="294" y="768" type="curve" smooth="yes"/>
      <point x="226" y="768"/>
      <point x="175" y="732"/>
      <point x="175" y="670" type="curve" smooth="yes"/>
      <point x="175" y="607"/>
      <point x="226" y="571"/>
      <point x="294" y="571" type="curve" smooth="yes"/>
      <point x="361" y="571"/>
      <point x="413" y="607"/>
    </contour>
  </outline>
</glyph>
<glyph name="hungarumlaut" format="2">
  <advance width="588"/>
  <unicode hex="02DD"/>
  <anchor x="305" y="525" name="_top"/>
  <outline>
    <contour>
      <point x="198" y="706" type="curve" smooth="yes"/>
      <point x="163" y="576" type="line"/>
      <point x="163" y="566" type="line"/>
      <point x="196" y="566" type="line"/>
      <point x="258" y="650" type="line" smooth="yes"/>
      <point x="276" y="674"/>
      <point x="292" y="697"/>
      <point x="292" y="720" type="curve" smooth="yes"/>
      <point x="292" y="744"/>
      <point x="276" y="761"/>
      <point x="249" y="761" type="curve" smooth="yes"/>
      <point x="221" y="761"/>
      <point x="208" y="746"/>
    </contour>
    <contour>
      <point x="374" y="706" type="curve" smooth="yes"/>
      <point x="339" y="576" type="line"/>
      <point x="339" y="566" type="line"/>
      <point x="372" y="566" type="line"/>
      <point x="433" y="650" type="line" smooth="yes"/>
      <point x="452" y="675"/>
      <point x="467" y="697"/>
      <point x="467" y="720" type="curve" smooth="yes"/>
      <point x="467" y="744"/>
      <point x="452" y="761"/>
      <point x="425" y="761" type="curve" smooth="yes"/>
      <point x="396" y="761"/>
      <point x="384" y="746"/>
    </contour>
  </outline>
</glyph>
<glyph name="Omega" format="2">
  <advance width="953"/>
  <unicode hex="03A9"/>
  <outline>
    <contour>
      <point x="476" y="720" type="curve" smooth="yes"/>
      <point x="706" y="720"/>
      <point x="845" y="592"/>
      <point x="845" y="432" type="curve" smooth="yes"/>
      <point x="845" y="278"/>
      <point x="689" y="156"/>
      <point x="568" y="49" type="curve"/>
      <point x="579" y="76" type="line"/>
      <point x="695" y="76" type="line" smooth="yes"/>
      <point x="783" y="76"/>
      <point x="828" y="83"/>
      <point x="833" y="119" type="curve" smooth="yes"/>
      <point x="842" y="189" type="line"/>
      <point x="894" y="189" type="line"/>
      <point x="894" y="0" type="line"/>
      <point x="544" y="0" type="line"/>
      <point x="544" y="82" type="line"/>
      <point x="639" y="184"/>
      <point x="740" y="280"/>
      <point x="740" y="431" type="curve" smooth="yes"/>
      <point x="740" y="584"/>
      <point x="649" y="673"/>
      <point x="476" y="673" type="curve" smooth="yes"/>
      <point x="303" y="673"/>
      <point x="212" y="584"/>
      <point x="212" y="431" type="curve" smooth="yes"/>
      <point x="212" y="280"/>
      <point x="313" y="184"/>
      <point x="408" y="82" type="curve"/>
      <point x="408" y="0" type="line"/>
      <point x="59" y="0" type="line"/>
      <point x="59" y="189" type="line"/>
      <point x="110" y="189" type="line"/>
      <point x="119" y="119" type="line" smooth="yes"/>
      <point x="124" y="83"/>
      <point x="170" y="76"/>
      <point x="258" y="76" type="curve"/>
      <point x="373" y="76" type="line"/>
      <point x="384" y="49" type="line"/>
      <point x="263" y="156"/>
      <point x="107" y="278"/>
      <point x="107" y="432" type="curve" smooth="yes"/>
      <point x="107" y="592"/>
      <point x="247" y="720"/>
    </contour>
  </outline>
</glyph>
<glyph name="Djecyr" format="2">
  <advance width="951"/>
  <unicode hex="0402"/>
  <guideline x="568" y="625" angle="90" identifier="YDADns81zF"/>
  <anchor x="370.89" y="741" name="top"/>
  <outline>
    <contour>
      <point x="915" y="200" type="curve" smooth="yes"/>
      <point x="915" y="317"/>
      <point x="825" y="403"/>
      <point x="632" y="403" type="curve" smooth="yes"/>
      <point x="542" y="403"/>
      <point x="475" y="386"/>
      <point x="395" y="355" type="curve"/>
      <point x="395" y="315" type="line"/>
      <point x="473" y="350"/>
      <point x="541" y="362"/>
      <point x="630" y="362" type="curve" smooth="yes"/>
      <point x="755" y="362"/>
      <point x="810" y="298"/>
      <point x="810" y="200" type="curve" smooth="yes"/>
      <point x="810" y="73"/>
      <point x="749" y="30"/>
      <point x="640" y="30" type="curve"/>
      <point x="640" y="-10" type="line"/>
      <point x="812" y="-10"/>
      <point x="915" y="62"/>
    </contour>
    <contour>
      <point x="197" y="0" type="line"/>
      <point x="534" y="0" type="line"/>
      <point x="534" y="34" type="line"/>
      <point x="503" y="34" type="line" smooth="yes"/>
      <point x="465" y="34"/>
      <point x="415" y="37"/>
      <point x="415" y="44" type="curve" smooth="yes"/>
      <point x="415" y="670" type="line"/>
      <point x="511" y="670" type="line" smooth="yes"/>
      <point x="623" y="670"/>
      <point x="664" y="661"/>
      <point x="671" y="604" type="curve" smooth="yes"/>
      <point x="681" y="519" type="line"/>
      <point x="731" y="519" type="line"/>
      <point x="731" y="710" type="line"/>
      <point x="40" y="710" type="line"/>
      <point x="40" y="519" type="line"/>
      <point x="90" y="519" type="line"/>
      <point x="100" y="604" type="line" smooth="yes"/>
      <point x="107" y="661"/>
      <point x="148" y="670"/>
      <point x="260" y="670" type="curve" smooth="yes"/>
      <point x="316" y="670" type="line"/>
      <point x="316" y="70" type="line" smooth="yes"/>
      <point x="316" y="41"/>
      <point x="274" y="34"/>
      <point x="216" y="34" type="curve" smooth="yes"/>
      <point x="197" y="34" type="line"/>
    </contour>
  </outline>
</glyph>
<glyph name="Eukrcyr" format="2">
  <advance width="821"/>
  <unicode hex="0404"/>
  <guideline x="211" y="787" angle="90" identifier="mFTeE97JTj"/>
  <anchor x="426.92" y="741" name="top"/>
  <anchor x="426.92" y="0" name="bottom"/>
  <outline>
    <contour>
      <point x="119" y="383" type="curve"/>
      <point x="119" y="344" type="line"/>
      <point x="257" y="341"/>
      <point x="395" y="338"/>
      <point x="530" y="335" type="curve"/>
      <point x="530" y="392" type="line"/>
      <point x="395" y="389"/>
      <point x="257" y="386"/>
    </contour>
    <contour>
      <point x="439" y="676" type="curve" smooth="yes"/>
      <point x="573" y="676"/>
      <point x="666" y="614"/>
      <point x="711" y="503" type="curve"/>
      <point x="766" y="503" type="line"/>
      <point x="766" y="710" type="line"/>
      <point x="720" y="710" type="line"/>
      <point x="691" y="594" type="line"/>
      <point x="728" y="559" type="line"/>
      <point x="687" y="661"/>
      <point x="589" y="720"/>
      <point x="434" y="720" type="curve" smooth="yes"/>
      <point x="222" y="720"/>
      <point x="48" y="569"/>
      <point x="48" y="355" type="curve" smooth="yes"/>
      <point x="48" y="138"/>
      <point x="211" y="-10"/>
      <point x="443" y="-10" type="curve" smooth="yes"/>
      <point x="622" y="-10"/>
      <point x="739" y="87"/>
      <point x="785" y="231" type="curve"/>
      <point x="740" y="251" type="line"/>
      <point x="704" y="118"/>
      <point x="599" y="34"/>
      <point x="451" y="34" type="curve" smooth="yes"/>
      <point x="268" y="34"/>
      <point x="153" y="153"/>
      <point x="153" y="355" type="curve" smooth="yes"/>
      <point x="153" y="557"/>
      <point x="279" y="676"/>
    </contour>
  </outline>
</glyph>
<glyph name="Yukrcyr" format="2">
  <advance width="417"/>
  <unicode hex="0407"/>
  <anchor x="208.5" y="896" name="top"/>
  <anchor x="208.5" y="0" name="bottom"/>
  <outline>
    <contour>
      <point x="172" y="844" type="curve" smooth="yes"/>
      <point x="172" y="883"/>
      <point x="143" y="906"/>
      <point x="104" y="906" type="curve" smooth="yes"/>
      <point x="65" y="906"/>
      <point x="37" y="883"/>
      <point x="37" y="844" type="curve" smooth="yes"/>
      <point x="37" y="805"/>
      <point x="65" y="782"/>
      <point x="104" y="782" type="curve" smooth="yes"/>
      <point x="143" y="782"/>
      <point x="172" y="805"/>
    </contour>
    <contour>
      <point x="380" y="844" type="curve" smooth="yes"/>
      <point x="380" y="883"/>
      <point x="352" y="906"/>
      <point x="313" y="906" type="curve" smooth="yes"/>
      <point x="274" y="906"/>
      <point x="245" y="883"/>
      <point x="245" y="844" type="curve" smooth="yes"/>
      <point x="245" y="805"/>
      <point x="274" y="782"/>
      <point x="313" y="782" type="curve" smooth="yes"/>
      <point x="352" y="782"/>
      <point x="380" y="805"/>
    </contour>
    <component base="I"/>
  </outline>
</glyph>
<glyph name="Tshecyr" format="2">
  <advance width="1052"/>
  <unicode hex="040B"/>
  <anchor x="378.72" y="741" name="top"/>
  <outline>
    <contour>
      <point x="637" y="403" type="curve" smooth="yes"/>
      <point x="552" y="403"/>
      <point x="475" y="383"/>
      <point x="395" y="355" type="curve"/>
      <point x="395" y="315" type="line"/>
      <point x="474" y="346"/>
      <point x="552" y="362"/>
      <point x="637" y="362" type="curve" smooth="yes"/>
      <point x="754" y="362"/>
      <point x="809" y="308"/>
      <point x="809" y="182" type="curve" smooth="yes"/>
      <point x="809" y="0" type="line"/>
      <point x="1006" y="0" type="line"/>
      <point x="1006" y="34" type="line"/>
      <point x="993" y="34" type="line" smooth="yes"/>
      <point x="944" y="34"/>
      <point x="908" y="41"/>
      <point x="908" y="70" type="curve" smooth="yes"/>
      <point x="908" y="187" type="line" smooth="yes"/>
      <point x="908" y="340"/>
      <point x="837" y="403"/>
    </contour>
    <contour>
      <point x="197" y="0" type="line"/>
      <point x="534" y="0" type="line"/>
      <point x="534" y="34" type="line"/>
      <point x="503" y="34" type="line" smooth="yes"/>
      <point x="465" y="34"/>
      <point x="415" y="37"/>
      <point x="415" y="44" type="curve" smooth="yes"/>
      <point x="415" y="670" type="line"/>
      <point x="511" y="670" type="line" smooth="yes"/>
      <point x="623" y="670"/>
      <point x="664" y="661"/>
      <point x="671" y="604" type="curve" smooth="yes"/>
      <point x="681" y="519" type="line"/>
      <point x="731" y="519" type="line"/>
      <point x="731" y="710" type="line"/>
      <point x="40" y="710" type="line"/>
      <point x="40" y="519" type="line"/>
      <point x="90" y="519" type="line"/>
      <point x="100" y="604" type="line" smooth="yes"/>
      <point x="107" y="661"/>
      <point x="148" y="670"/>
      <point x="260" y="670" type="curve" smooth="yes"/>
      <point x="316" y="670" type="line"/>
      <point x="316" y="70" type="line" smooth="yes"/>
      <point x="316" y="41"/>
      <point x="274" y="34"/>
      <point x="216" y="34" type="curve" smooth="yes"/>
      <point x="197" y="34" type="line"/>
    </contour>
  </outline>
</glyph>
<glyph name="Becyr" format="2">
  <advance width="744"/>
  <unicode hex="0411"/>
  <anchor x="379.44" y="741" name="top"/>
  <outline>
    <contour>
      <point x="61" y="710" type="line"/>
      <point x="61" y="676" type="line"/>
      <point x="74" y="676" type="line" smooth="yes"/>
      <point x="123" y="676"/>
      <point x="159" y="669"/>
      <point x="159" y="640" type="curve" smooth="yes"/>
      <point x="159" y="70" type="line" smooth="yes"/>
      <point x="159" y="41"/>
      <point x="123" y="34"/>
      <point x="74" y="34" type="curve" smooth="yes"/>
      <point x="61" y="34" type="line"/>
      <point x="61" y="0" type="line"/>
      <point x="400" y="0" type="line" smooth="yes"/>
      <point x="586" y="0"/>
      <point x="698" y="90"/>
      <point x="698" y="210" type="curve" smooth="yes"/>
      <point x="698" y="339"/>
      <point x="595" y="420"/>
      <point x="400" y="420" type="curve" smooth="yes"/>
      <point x="214" y="420" type="line"/>
      <point x="214" y="380" type="line"/>
      <point x="396" y="380" type="line" smooth="yes"/>
      <point x="527" y="380"/>
      <point x="593" y="316"/>
      <point x="593" y="210" type="curve" smooth="yes"/>
      <point x="593" y="107"/>
      <point x="529" y="40"/>
      <point x="396" y="40" type="curve" smooth="yes"/>
      <point x="258" y="40" type="line"/>
      <point x="258" y="669" type="line"/>
      <point x="442" y="669" type="line" smooth="yes"/>
      <point x="566" y="669"/>
      <point x="583" y="662"/>
      <point x="591" y="596" type="curve" smooth="yes"/>
      <point x="600" y="522" type="line"/>
      <point x="650" y="522" type="line"/>
      <point x="650" y="710" type="line"/>
    </contour>
  </outline>
</glyph>
<glyph name="Decyr" format="2">
  <advance width="900"/>
  <unicode hex="0414"/>
  <anchor x="486.0" y="741" name="top"/>
  <outline>
    <contour>
      <point x="264" y="710" type="line"/>
      <point x="264" y="670" type="line"/>
      <point x="684" y="670" type="line"/>
      <point x="684" y="710" type="line"/>
    </contour>
    <contour>
      <point x="741" y="25" type="line"/>
      <point x="741" y="640" type="line"/>
      <point x="741" y="669"/>
      <point x="777" y="676"/>
      <point x="826" y="676" type="curve" smooth="yes"/>
      <point x="839" y="676" type="line"/>
      <point x="839" y="710" type="line"/>
      <point x="642" y="710" type="line"/>
      <point x="642" y="25" type="line"/>
    </contour>
    <contour>
      <point x="792" y="-43" type="curve" smooth="yes"/>
      <point x="804" y="-155" type="line"/>
      <point x="854" y="-155" type="line"/>
      <point x="854" y="40" type="line"/>
      <point x="26" y="40" type="line"/>
      <point x="26" y="-155" type="line"/>
      <point x="76" y="-155" type="line"/>
      <point x="88" y="-41" type="line" smooth="yes"/>
      <point x="92" y="-7"/>
      <point x="129" y="0"/>
      <point x="197" y="0" type="curve" smooth="yes"/>
      <point x="683" y="0" type="line" smooth="yes"/>
      <point x="751" y="0"/>
      <point x="788" y="-7"/>
    </contour>
    <contour>
      <point x="157" y="26" type="line"/>
      <point x="206.1883101016" y="93.257485241"/>
      <point x="232.0834370165" y="174.9750923677"/>
      <point x="249" y="360" type="curve" smooth="yes"/>
      <point x="281" y="710" type="line"/>
      <point x="121" y="710" type="line"/>
      <point x="121" y="676" type="line"/>
      <point x="134" y="676" type="line" smooth="yes"/>
      <point x="183" y="676"/>
      <point x="227" y="666"/>
      <point x="225" y="640" type="curve" smooth="yes"/>
      <point x="200" y="365" type="line" smooth="yes"/>
      <point x="182.6296436269" y="173.9260798957"/>
      <point x="149.2254200072" y="96.2674474662"/>
      <point x="90" y="26" type="curve"/>
    </contour>
  </outline>
</glyph>
<glyph name="Zecyr" format="2">
  <advance width="794"/>
  <unicode hex="0417"/>
  <guideline x="1147" y="753" angle="90" identifier="5u69LInZeD"/>
  <guideline x="-725" y="821" angle="90" identifier="u01t06VLvG"/>
  <anchor x="428.76" y="741" name="top"/>
  <anchor x="428.76" y="0" name="bottom"/>
  <outline>
    <contour>
      <point x="430" y="-10" type="curve" smooth="yes"/>
      <point x="626" y="-10"/>
      <point x="739" y="76"/>
      <point x="739" y="200" type="curve" smooth="yes"/>
      <point x="739" y="307.0497237569"/>
      <point x="650.6965517241" y="373"/>
      <point x="448" y="373" type="curve"/>
      <point x="497" y="347" type="line"/>
      <point x="497" y="385" type="line"/>
      <point x="439" y="363" type="line"/>
      <point x="622" y="363"/>
      <point x="713" y="434.7485714286"/>
      <point x="713" y="535" type="curve" smooth="yes"/>
      <point x="713" y="638"/>
      <point x="622" y="720"/>
      <point x="430" y="720" type="curve" smooth="yes"/>
      <point x="296" y="720"/>
      <point x="181" y="672"/>
      <point x="137" y="558" type="curve"/>
      <point x="174" y="594" type="line"/>
      <point x="145" y="710" type="line"/>
      <point x="99" y="710" type="line"/>
      <point x="99" y="503" type="line"/>
      <point x="154" y="503" type="line"/>
      <point x="202" y="622"/>
      <point x="298" y="676"/>
      <point x="430" y="676" type="curve" smooth="yes"/>
      <point x="561" y="676"/>
      <point x="608" y="615"/>
      <point x="608" y="535" type="curve" smooth="yes"/>
      <point x="608" y="446"/>
      <point x="566" y="387"/>
      <point x="420" y="390" type="curve" smooth="yes"/>
      <point x="387.033" y="390.666"/>
      <point x="353.967" y="391.334"/>
      <point x="321" y="392" type="curve"/>
      <point x="321" y="335" type="line"/>
      <point x="353" y="335"/>
      <point x="387.033" y="336.334"/>
      <point x="420" y="337" type="curve" smooth="yes"/>
      <point x="586" y="340"/>
      <point x="634" y="292"/>
      <point x="634" y="200" type="curve" smooth="yes"/>
      <point x="634" y="99"/>
      <point x="571" y="34"/>
      <point x="430" y="34" type="curve" smooth="yes"/>
      <point x="283" y="34"/>
      <point x="189" y="97"/>
      <point x="140" y="207" type="curve"/>
      <point x="85" y="207" type="line"/>
      <point x="85" y="0" type="line"/>
      <point x="131" y="0" type="line"/>
      <point x="160" y="116" type="line"/>
      <point x="123" y="151" type="line"/>
      <point x="164" y="50"/>
      <point x="268" y="-10"/>
    </contour>
  </outline>
</glyph>
<glyph name="Pecyr" format="2">
  <advance width="940"/>
  <unicode hex="041F"/>
  <anchor x="470.0" y="741" name="top"/>
  <outline>
    <contour>
      <point x="216" y="710" type="line"/>
      <point x="216" y="670" type="line"/>
      <point x="724" y="670" type="line"/>
      <point x="724" y="710" type="line"/>
    </contour>
    <contour>
      <point x="61" y="0" type="line"/>
      <point x="356" y="0" type="line"/>
      <point x="356" y="34" type="line"/>
      <point x="345" y="34" type="line" smooth="yes"/>
      <point x="306" y="34"/>
      <point x="258" y="37"/>
      <point x="258" y="44" type="curve" smooth="yes"/>
      <point x="258" y="710" type="line"/>
      <point x="61" y="710" type="line"/>
      <point x="61" y="676" type="line"/>
      <point x="74" y="676" type="line" smooth="yes"/>
      <point x="123" y="676"/>
      <point x="159" y="669"/>
      <point x="159" y="640" type="curve" smooth="yes"/>
      <point x="159" y="70" type="line" smooth="yes"/>
      <point x="159" y="41"/>
      <point x="123" y="34"/>
      <point x="74" y="34" type="curve" smooth="yes"/>
      <point x="61" y="34" type="line"/>
    </contour>
    <contour>
      <point x="584" y="0" type="line"/>
      <point x="879" y="0" type="line"/>
      <point x="879" y="34" type="line"/>
      <point x="866" y="34" type="line" smooth="yes"/>
      <point x="817" y="34"/>
      <point x="781" y="41"/>
      <point x="781" y="70" type="curve" smooth="yes"/>
      <point x="781" y="640" type="line"/>
      <point x="781" y="669"/>
      <point x="817" y="676"/>
      <point x="866" y="676" type="curve" smooth="yes"/>
      <point x="879" y="676" type="line"/>
      <point x="879" y="710" type="line"/>
      <point x="682" y="710" type="line"/>
      <point x="682" y="44" type="line" smooth="yes"/>
      <point x="682" y="37"/>
      <point x="632" y="34"/>
      <point x="594" y="34" type="curve" smooth="yes"/>
      <point x="584" y="34" type="line"/>
    </contour>
  </outline>
</glyph>
<glyph name="Tsecyr" format="2">
  <advance width="940"/>
  <unicode hex="0426"/>
  <anchor x="470.0" y="741" name="top"/>
  <outline>
    <contour>
      <point x="216" y="0" type="line"/>
      <point x="724" y="0" type="line"/>
      <point x="724" y="40" type="line"/>
      <point x="216" y="40" type="line"/>
    </contour>
    <contour>
      <point x="61" y="710" type="line"/>
      <point x="61" y="676" type="line"/>
      <point x="74" y="676" type="line" smooth="yes"/>
      <point x="123" y="676"/>
      <point x="159" y="669"/>
      <point x="159" y="640" type="curve" smooth="yes"/>
      <point x="159" y="70" type="line" smooth="yes"/>
      <point x="159" y="41"/>
      <point x="123" y="34"/>
      <point x="74" y="34" type="curve" smooth="yes"/>
      <point x="61" y="34" type="line"/>
      <point x="61" y="0" type="line"/>
      <point x="258" y="0" type="line"/>
      <point x="258" y="666" type="line" smooth="yes"/>
      <point x="258" y="673"/>
      <point x="308" y="676"/>
      <point x="346" y="676" type="curve" smooth="yes"/>
      <point x="356" y="676" type="line"/>
      <point x="356" y="710" type="line"/>
    </contour>
    <contour>
      <point x="584" y="710" type="line"/>
      <point x="584" y="676" type="line"/>
      <point x="595" y="676" type="line" smooth="yes"/>
      <point x="634" y="676"/>
      <point x="682" y="673"/>
      <point x="682" y="666" type="curve" smooth="yes"/>
      <point x="682" y="0" type="line"/>
      <point x="781" y="0" type="line"/>
      <point x="781" y="640" type="line" smooth="yes"/>
      <point x="781" y="669"/>
      <point x="817" y="676"/>
      <point x="866" y="676" type="curve" smooth="yes"/>
      <point x="879" y="676" type="line"/>
      <point x="879" y="710" type="line"/>
    </contour>
    <contour>
      <point x="667" y="0" type="line"/>
      <point x="722" y="0" type="line" smooth="yes"/>
      <point x="790" y="0"/>
      <point x="828" y="-7"/>
      <point x="832" y="-43" type="curve" smooth="yes"/>
      <point x="844" y="-155" type="line"/>
      <point x="894" y="-155" type="line"/>
      <point x="894" y="40" type="line"/>
      <point x="667" y="40" type="line"/>
    </contour>
  </outline>
</glyph>
<glyph name="Shacyr" format="2">
  <advance width="1307"/>
  <unicode hex="0428"/>
  <anchor x="640.43" y="741" name="top"/>
  <outline>
    <contour>
      <point x="1091" y="0" type="line"/>
      <point x="1091" y="40" type="line"/>
      <point x="216" y="40" type="line"/>
      <point x="216" y="0" type="line"/>
    </contour>
    <contour>
      <point x="1246" y="710" type="line"/>
      <point x="951" y="710" type="line"/>
      <point x="951" y="676" type="line"/>
      <point x="962" y="676" type="line" smooth="yes"/>
      <point x="1001" y="676"/>
      <point x="1049" y="673"/>
      <point x="1049" y="666" type="curve" smooth="yes"/>
      <point x="1049" y="0" type="line"/>
      <point x="1246" y="0" type="line"/>
      <point x="1246" y="34" type="line"/>
      <point x="1233" y="34" type="line" smooth="yes"/>
      <point x="1184" y="34"/>
      <point x="1148" y="41"/>
      <point x="1148" y="70" type="curve" smooth="yes"/>
      <point x="1148" y="640" type="line" smooth="yes"/>
      <point x="1148" y="669"/>
      <point x="1184" y="676"/>
      <point x="1233" y="676" type="curve" smooth="yes"/>
      <point x="1246" y="676" type="line"/>
    </contour>
    <contour>
      <point x="356" y="710" type="line"/>
      <point x="61" y="710" type="line"/>
      <point x="61" y="676" type="line"/>
      <point x="74" y="676" type="line" smooth="yes"/>
      <point x="123" y="676"/>
      <point x="159" y="669"/>
      <point x="159" y="640" type="curve" smooth="yes"/>
      <point x="159" y="70" type="line"/>
      <point x="159" y="41"/>
      <point x="123" y="34"/>
      <point x="74" y="34" type="curve" smooth="yes"/>
      <point x="61" y="34" type="line"/>
      <point x="61" y="0" type="line"/>
      <point x="258" y="0" type="line"/>
      <point x="258" y="666" type="line" smooth="yes"/>
      <point x="258" y="673"/>
      <point x="308" y="676"/>
      <point x="346" y="676" type="curve" smooth="yes"/>
      <point x="356" y="676" type="line"/>
    </contour>
    <contour>
      <point x="506" y="710" type="line"/>
      <point x="506" y="676" type="line"/>
      <point x="516" y="676" type="line" smooth="yes"/>
      <point x="554" y="676"/>
      <point x="604" y="673"/>
      <point x="604" y="666" type="curve" smooth="yes"/>
      <point x="604" y="20" type="line"/>
      <point x="703" y="20" type="line"/>
      <point x="703" y="666" type="line" smooth="yes"/>
      <point x="703" y="673"/>
      <point x="753" y="676"/>
      <point x="791" y="676" type="curve" smooth="yes"/>
      <point x="801" y="676" type="line"/>
      <point x="801" y="710" type="line"/>
    </contour>
  </outline>
</glyph>
<glyph name="Ylongcyr" format="2">
  <advance width="1102"/>
  <unicode hex="042B"/>
  <anchor x="539.98" y="741" name="top"/>
  <anchor x="539.98" y="0" name="bottom"/>
  <outline>
    <contour>
      <point x="844" y="44" type="line" smooth="yes"/>
      <point x="844" y="37"/>
      <point x="794" y="34"/>
      <point x="756" y="34" type="curve" smooth="yes"/>
      <point x="746" y="34" type="line"/>
      <point x="746" y="0" type="line"/>
      <point x="1041" y="0" type="line"/>
      <point x="1041" y="34" type="line"/>
      <point x="1028" y="34" type="line" smooth="yes"/>
      <point x="979" y="34"/>
      <point x="943" y="41"/>
      <point x="943" y="70" type="curve" smooth="yes"/>
      <point x="943" y="640" type="line"/>
      <point x="943" y="669"/>
      <point x="979" y="676"/>
      <point x="1028" y="676" type="curve" smooth="yes"/>
      <point x="1041" y="676" type="line"/>
      <point x="1041" y="710" type="line"/>
      <point x="746" y="710" type="line"/>
      <point x="746" y="676" type="line"/>
      <point x="756" y="676" type="line" smooth="yes"/>
      <point x="794" y="676"/>
      <point x="844" y="673"/>
      <point x="844" y="666" type="curve"/>
    </contour>
    <component base="Softcyr"/>
  </outline>
</glyph>
<glyph name="Yucyr" format="2">
  <advance width="1256"/>
  <unicode hex="042E"/>
  <anchor x="653.12" y="741" name="top"/>
  <anchor x="653.12" y="0" name="bottom"/>
  <outline>
    <contour>
      <point x="225" y="386" type="line"/>
      <point x="225" y="346" type="line"/>
      <point x="484" y="346" type="line"/>
      <point x="484" y="386" type="line"/>
    </contour>
    <contour>
      <point x="61" y="0" type="line"/>
      <point x="356" y="0" type="line"/>
      <point x="356" y="34" type="line"/>
      <point x="345" y="34" type="line" smooth="yes"/>
      <point x="306" y="34"/>
      <point x="258" y="37"/>
      <point x="258" y="44" type="curve" smooth="yes"/>
      <point x="258" y="666" type="line" smooth="yes"/>
      <point x="258" y="673"/>
      <point x="306" y="676"/>
      <point x="345" y="676" type="curve" smooth="yes"/>
      <point x="356" y="676" type="line"/>
      <point x="356" y="710" type="line"/>
      <point x="61" y="710" type="line"/>
      <point x="61" y="676" type="line"/>
      <point x="74" y="676" type="line" smooth="yes"/>
      <point x="123" y="676"/>
      <point x="159" y="669"/>
      <point x="159" y="640" type="curve" smooth="yes"/>
      <point x="159" y="70" type="line" smooth="yes"/>
      <point x="159" y="41"/>
      <point x="123" y="34"/>
      <point x="74" y="34" type="curve" smooth="yes"/>
      <point x="61" y="34" type="line"/>
    </contour>
    <contour>
      <point x="814" y="-10" type="curve" smooth="yes"/>
      <point x="1032" y="-10"/>
      <point x="1208" y="139"/>
      <point x="1208" y="355" type="curve" smooth="yes"/>
      <point x="1208" y="572"/>
      <point x="1032" y="720"/>
      <point x="814" y="720" type="curve" smooth="yes"/>
      <point x="596" y="720"/>
      <point x="420" y="572"/>
      <point x="420" y="355" type="curve" smooth="yes"/>
      <point x="420" y="139"/>
      <point x="596" y="-10"/>
    </contour>
    <contour>
      <point x="814" y="32" type="curve" smooth="yes"/>
      <point x="650" y="32"/>
      <point x="525" y="149"/>
      <point x="525" y="355" type="curve" smooth="yes"/>
      <point x="525" y="561"/>
      <point x="649" y="678"/>
      <point x="814" y="678" type="curve" smooth="yes"/>
      <point x="978" y="678"/>
      <point x="1103" y="561"/>
      <point x="1103" y="355" type="curve" smooth="yes"/>
      <point x="1103" y="149"/>
      <point x="978" y="32"/>
    </contour>
  </outline>
</glyph>
<glyph name="Yacyr" format="2">
  <advance width="791"/>
  <unicode hex="042F"/>
  <anchor x="435.05" y="741" name="top"/>
  <anchor x="395.5" y="0" name="bottom"/>
  <outline>
    <contour>
      <point x="385" y="321" type="line"/>
      <point x="296" y="336" type="line"/>
      <point x="116" y="62" type="line" smooth="yes"/>
      <point x="101.1060679291" y="39.3281256254"/>
      <point x="81.472972973" y="34"/>
      <point x="43" y="34" type="curve" smooth="yes"/>
      <point x="31" y="34" type="line"/>
      <point x="31" y="0" type="line"/>
      <point x="181" y="0" type="line"/>
    </contour>
    <contour>
      <point x="533" y="44" type="line" smooth="yes"/>
      <point x="533" y="37"/>
      <point x="492" y="34"/>
      <point x="458" y="34" type="curve" smooth="yes"/>
      <point x="444" y="34" type="line"/>
      <point x="444" y="0" type="line"/>
      <point x="730" y="0" type="line"/>
      <point x="730" y="34" type="line"/>
      <point x="717" y="34" type="line" smooth="yes"/>
      <point x="668" y="34"/>
      <point x="632" y="41"/>
      <point x="632" y="70" type="curve" smooth="yes"/>
      <point x="632" y="640" type="line" smooth="yes"/>
      <point x="632" y="669"/>
      <point x="668" y="676"/>
      <point x="717" y="676" type="curve" smooth="yes"/>
      <point x="730" y="676" type="line"/>
      <point x="730" y="710" type="line"/>
      <point x="400" y="710" type="line" smooth="yes"/>
      <point x="216" y="710"/>
      <point x="111" y="632"/>
      <point x="111" y="505" type="curve" smooth="yes"/>
      <point x="111" y="408"/>
      <point x="182" y="334"/>
      <point x="313" y="317" type="curve"/>
      <point x="357" y="310" type="line" smooth="yes"/>
      <point x="555" y="310" type="line"/>
      <point x="555" y="350" type="line"/>
      <point x="415" y="350" type="line" smooth="yes"/>
      <point x="282" y="350"/>
      <point x="216" y="406"/>
      <point x="216" y="505" type="curve" smooth="yes"/>
      <point x="216" y="611"/>
      <point x="279" y="669"/>
      <point x="405" y="669" type="curve" smooth="yes"/>
      <point x="533" y="669" type="line"/>
    </contour>
  </outline>
</glyph>
<glyph name="zecyr" format="2">
  <advance width="597"/>
  <unicode hex="0437"/>
  <anchor x="292.53" y="508" name="top"/>
  <anchor x="292.53" y="0" name="bottom"/>
  <outline>
    <contour>
      <point x="289" y="29" type="curve" smooth="yes"/>
      <point x="208" y="29"/>
      <point x="132" y="57"/>
      <point x="104" y="105" type="curve"/>
      <point x="94" y="72"/>
      <point x="119" y="51"/>
      <point x="152" y="46" type="curve"/>
      <point x="152" y="155" type="line"/>
      <point x="57" y="155" type="line"/>
      <point x="57" y="55" type="line"/>
      <point x="85" y="31"/>
      <point x="171" y="-10"/>
      <point x="289" y="-10" type="curve" smooth="yes"/>
      <point x="450" y="-10"/>
      <point x="550" y="46"/>
      <point x="550" y="149" type="curve" smooth="yes"/>
      <point x="550" y="230"/>
      <point x="467" y="273"/>
      <point x="324" y="273" type="curve"/>
      <point x="355" y="251" type="line"/>
      <point x="355" y="285" type="line"/>
      <point x="316" y="263" type="line"/>
      <point x="457" y="263"/>
      <point x="531" y="312"/>
      <point x="531" y="380" type="curve" smooth="yes"/>
      <point x="531" y="464"/>
      <point x="455" y="518"/>
      <point x="294" y="518" type="curve" smooth="yes"/>
      <point x="179" y="518"/>
      <point x="95" y="477"/>
      <point x="67" y="453" type="curve"/>
      <point x="67" y="353" type="line"/>
      <point x="162" y="353" type="line"/>
      <point x="162" y="462" type="line"/>
      <point x="129" y="457"/>
      <point x="104" y="440"/>
      <point x="114" y="409" type="curve"/>
      <point x="141" y="451"/>
      <point x="217" y="479"/>
      <point x="297" y="479" type="curve" smooth="yes"/>
      <point x="393" y="479"/>
      <point x="431" y="448"/>
      <point x="431" y="385" type="curve" smooth="yes"/>
      <point x="431" y="322"/>
      <point x="396" y="283"/>
      <point x="300" y="283" type="curve" smooth="yes"/>
      <point x="215" y="283" type="line"/>
      <point x="215" y="245" type="line"/>
      <point x="300" y="245" type="line" smooth="yes"/>
      <point x="403" y="245"/>
      <point x="450" y="209"/>
      <point x="450" y="145" type="curve" smooth="yes"/>
      <point x="450" y="68"/>
      <point x="402" y="29"/>
    </contour>
  </outline>
</glyph>
<glyph name="elcyr" format="2">
  <advance width="697"/>
  <unicode hex="043B"/>
  <anchor x="362.44" y="508" name="top"/>
  <outline>
    <contour>
      <point x="165" y="242" type="line" smooth="yes"/>
      <point x="158" y="120"/>
      <point x="139" y="80"/>
      <point x="79" y="80" type="curve" smooth="yes"/>
      <point x="51" y="80"/>
      <point x="29" y="86"/>
      <point x="22" y="90" type="curve"/>
      <point x="22" y="0" type="line"/>
      <point x="33" y="-6"/>
      <point x="56" y="-10"/>
      <point x="81" y="-10" type="curve" smooth="yes"/>
      <point x="177" y="-10"/>
      <point x="198" y="57"/>
      <point x="208" y="235" type="curve" smooth="yes"/>
      <point x="223" y="508" type="line"/>
      <point x="92" y="508" type="line"/>
      <point x="92" y="476" type="line"/>
      <point x="94" y="476" type="line" smooth="yes"/>
      <point x="143" y="476"/>
      <point x="179" y="468"/>
      <point x="177" y="440" type="curve" smooth="yes"/>
    </contour>
    <contour>
      <point x="466" y="41" type="line" smooth="yes"/>
      <point x="466" y="35"/>
      <point x="423" y="32"/>
      <point x="396" y="32" type="curve" smooth="yes"/>
      <point x="393" y="32" type="line"/>
      <point x="393" y="0" type="line"/>
      <point x="645" y="0" type="line"/>
      <point x="645" y="32" type="line"/>
      <point x="643" y="32" type="line" smooth="yes"/>
      <point x="595" y="32"/>
      <point x="561" y="39"/>
      <point x="561" y="67" type="curve" smooth="yes"/>
      <point x="561" y="441" type="line" smooth="yes"/>
      <point x="561" y="469"/>
      <point x="595" y="476"/>
      <point x="643" y="476" type="curve" smooth="yes"/>
      <point x="645" y="476" type="line"/>
      <point x="645" y="508" type="line"/>
      <point x="466" y="508" type="line"/>
    </contour>
    <contour>
      <point x="197" y="470" type="line"/>
      <point x="547" y="470" type="line"/>
      <point x="547" y="508" type="line"/>
      <point x="197" y="508" type="line"/>
    </contour>
  </outline>
</glyph>
<glyph name="tecyr" format="2">
  <advance width="651"/>
  <unicode hex="0442"/>
  <anchor x="318.99" y="508" name="top"/>
  <outline>
    <contour>
      <point x="326" y="470" type="line"/>
      <point x="456" y="470" type="line" smooth="yes"/>
      <point x="518" y="470"/>
      <point x="542" y="445"/>
      <point x="547" y="408" type="curve" smooth="yes"/>
      <point x="556" y="335" type="line"/>
      <point x="601" y="335" type="line"/>
      <point x="601" y="508" type="line"/>
      <point x="326" y="508" type="line"/>
    </contour>
    <contour>
      <point x="326" y="470" type="line"/>
      <point x="326" y="508" type="line"/>
      <point x="50" y="508" type="line"/>
      <point x="50" y="335" type="line"/>
      <point x="95" y="335" type="line"/>
      <point x="104" y="408" type="line" smooth="yes"/>
      <point x="109" y="445"/>
      <point x="133" y="470"/>
      <point x="195" y="470" type="curve" smooth="yes"/>
    </contour>
    <contour>
      <point x="373" y="67" type="curve" smooth="yes"/>
      <point x="373" y="508" type="line"/>
      <point x="278" y="508" type="line"/>
      <point x="278" y="67" type="line" smooth="yes"/>
      <point x="278" y="39"/>
      <point x="244" y="32"/>
      <point x="197" y="32" type="curve" smooth="yes"/>
      <point x="194" y="32" type="line"/>
      <point x="194" y="0" type="line"/>
      <point x="457" y="0" type="line"/>
      <point x="457" y="32" type="line"/>
      <point x="454" y="32" type="line" smooth="yes"/>
      <point x="407" y="32"/>
      <point x="373" y="39"/>
    </contour>
  </outline>
</glyph>
<glyph name="tsecyr" format="2">
  <advance width="731"/>
  <unicode hex="0446"/>
  <anchor x="358.19" y="508" name="top"/>
  <outline>
    <contour>
      <point x="136" y="441" type="curve" smooth="yes"/>
      <point x="136" y="67" type="line" smooth="yes"/>
      <point x="136" y="39"/>
      <point x="102" y="32"/>
      <point x="54" y="32" type="curve" smooth="yes"/>
      <point x="52" y="32" type="line"/>
      <point x="52" y="0" type="line"/>
      <point x="231" y="0" type="line"/>
      <point x="231" y="467" type="line" smooth="yes"/>
      <point x="231" y="473"/>
      <point x="274" y="476"/>
      <point x="301" y="476" type="curve" smooth="yes"/>
      <point x="304" y="476" type="line"/>
      <point x="304" y="508" type="line"/>
      <point x="52" y="508" type="line"/>
      <point x="52" y="476" type="line"/>
      <point x="54" y="476" type="line" smooth="yes"/>
      <point x="102" y="476"/>
      <point x="136" y="469"/>
    </contour>
    <contour>
      <point x="495" y="467" type="curve" smooth="yes"/>
      <point x="495" y="0" type="line"/>
      <point x="590" y="0" type="line"/>
      <point x="590" y="441" type="line" smooth="yes"/>
      <point x="590" y="469"/>
      <point x="624" y="476"/>
      <point x="672" y="476" type="curve" smooth="yes"/>
      <point x="674" y="476" type="line"/>
      <point x="674" y="508" type="line"/>
      <point x="422" y="508" type="line"/>
      <point x="422" y="476" type="line"/>
      <point x="425" y="476" type="line" smooth="yes"/>
      <point x="452" y="476"/>
      <point x="495" y="473"/>
    </contour>
    <contour>
      <point x="413" y="0" type="line"/>
      <point x="544" y="0" type="line" smooth="yes"/>
      <point x="606" y="0"/>
      <point x="629" y="-6"/>
      <point x="633" y="-42" type="curve" smooth="yes"/>
      <point x="644" y="-140" type="line"/>
      <point x="689" y="-140" type="line"/>
      <point x="689" y="38" type="line"/>
      <point x="413" y="38" type="line"/>
    </contour>
    <contour>
      <point x="150" y="0" type="line"/>
      <point x="540" y="0" type="line"/>
      <point x="540" y="38" type="line"/>
      <point x="150" y="38" type="line"/>
    </contour>
  </outline>
</glyph>
<glyph name="hardcyr" format="2">
  <advance width="722"/>
  <unicode hex="044A"/>
  <anchor x="281.58" y="508" name="top"/>
  <outline>
    <contour>
      <point x="348" y="38" type="line"/>
      <point x="348" y="467" type="line" smooth="yes"/>
      <point x="348" y="473"/>
      <point x="391" y="476"/>
      <point x="418" y="476" type="curve" smooth="yes"/>
      <point x="421" y="476" type="line"/>
      <point x="421" y="508" type="line"/>
      <point x="253" y="508" type="line"/>
      <point x="253" y="67" type="line" smooth="yes"/>
      <point x="253" y="39"/>
      <point x="219" y="32"/>
      <point x="171" y="32" type="curve" smooth="yes"/>
      <point x="169" y="32" type="line"/>
      <point x="169" y="0" type="line"/>
      <point x="487" y="0" type="line" smooth="yes"/>
      <point x="621" y="0"/>
      <point x="697" y="69"/>
      <point x="697" y="165" type="curve" smooth="yes"/>
      <point x="697" y="258"/>
      <point x="626" y="317"/>
      <point x="492" y="317" type="curve" smooth="yes"/>
      <point x="318" y="317" type="line"/>
      <point x="318" y="279" type="line"/>
      <point x="487" y="279" type="line" smooth="yes"/>
      <point x="558" y="279"/>
      <point x="597" y="241"/>
      <point x="597" y="164" type="curve" smooth="yes"/>
      <point x="597" y="83"/>
      <point x="558" y="38"/>
      <point x="482" y="38" type="curve" smooth="yes"/>
    </contour>
    <contour>
      <point x="324" y="470" type="line"/>
      <point x="324" y="508" type="line"/>
      <point x="50" y="508" type="line"/>
      <point x="50" y="335" type="line"/>
      <point x="95" y="335" type="line"/>
      <point x="104" y="408" type="line" smooth="yes"/>
      <point x="109" y="445"/>
      <point x="132.6292134831" y="470"/>
      <point x="195" y="470" type="curve" smooth="yes"/>
    </contour>
  </outline>
</glyph>
<glyph name="ylongcyr" format="2">
  <advance width="931"/>
  <unicode hex="044B"/>
  <anchor x="465.5" y="508" name="top"/>
  <outline>
    <contour>
      <point x="700" y="41" type="line" smooth="yes"/>
      <point x="700" y="35"/>
      <point x="657" y="32"/>
      <point x="630" y="32" type="curve" smooth="yes"/>
      <point x="627" y="32" type="line"/>
      <point x="627" y="0" type="line"/>
      <point x="879" y="0" type="line"/>
      <point x="879" y="32" type="line"/>
      <point x="877" y="32" type="line" smooth="yes"/>
      <point x="829" y="32"/>
      <point x="795" y="39"/>
      <point x="795" y="67" type="curve" smooth="yes"/>
      <point x="795" y="441" type="line" smooth="yes"/>
      <point x="795" y="469"/>
      <point x="829" y="476"/>
      <point x="877" y="476" type="curve" smooth="yes"/>
      <point x="879" y="476" type="line"/>
      <point x="879" y="508" type="line"/>
      <point x="627" y="508" type="line"/>
      <point x="627" y="476" type="line"/>
      <point x="630" y="476" type="line" smooth="yes"/>
      <point x="657" y="476"/>
      <point x="700" y="473"/>
      <point x="700" y="467" type="curve" smooth="yes"/>
    </contour>
    <component base="softcyr"/>
  </outline>
</glyph>
<glyph name="softcyr" format="2">
  <advance width="605"/>
  <unicode hex="044C"/>
  <anchor x="199.65" y="508" name="top"/>
  <outline>
    <contour>
      <point x="231" y="38" type="line"/>
      <point x="231" y="467" type="line" smooth="yes"/>
      <point x="231" y="473"/>
      <point x="274" y="476"/>
      <point x="301" y="476" type="curve" smooth="yes"/>
      <point x="304" y="476" type="line"/>
      <point x="304" y="508" type="line"/>
      <point x="52" y="508" type="line"/>
      <point x="52" y="476" type="line"/>
      <point x="54" y="476" type="line" smooth="yes"/>
      <point x="102" y="476"/>
      <point x="136" y="469"/>
      <point x="136" y="441" type="curve" smooth="yes"/>
      <point x="136" y="67" type="line" smooth="yes"/>
      <point x="136" y="39"/>
      <point x="102" y="32"/>
      <point x="54" y="32" type="curve" smooth="yes"/>
      <point x="52" y="32" type="line"/>
      <point x="52" y="0" type="line"/>
      <point x="370" y="0" type="line" smooth="yes"/>
      <point x="504" y="0"/>
      <point x="580" y="69"/>
      <point x="580" y="165" type="curve" smooth="yes"/>
      <point x="580" y="258"/>
      <point x="509" y="317"/>
      <point x="375" y="317" type="curve" smooth="yes"/>
      <point x="201" y="317" type="line"/>
      <point x="201" y="279" type="line"/>
      <point x="370" y="279" type="line" smooth="yes"/>
      <point x="441" y="279"/>
      <point x="480" y="241"/>
      <point x="480" y="164" type="curve" smooth="yes"/>
      <point x="480" y="83"/>
      <point x="441" y="38"/>
      <point x="365" y="38" type="curve" smooth="yes"/>
    </contour>
  </outline>
</glyph>
<glyph name="ereversedcyr" format="2">
  <advance width="625"/>
  <unicode hex="044D"/>
  <guideline x="889" y="493" angle="90" identifier="9ss4WcbEUf"/>
  <anchor x="287.5" y="508" name="top"/>
  <anchor x="275.0" y="0" name="bottom"/>
  <outline>
    <contour>
      <point x="515" y="245" type="line"/>
      <point x="515" y="283" type="line"/>
      <point x="215" y="283" type="line"/>
      <point x="215" y="245" type="line"/>
    </contour>
    <contour>
      <point x="271" y="-10" type="curve" smooth="yes"/>
      <point x="456" y="-10"/>
      <point x="578" y="100"/>
      <point x="578" y="254" type="curve" smooth="yes"/>
      <point x="578" y="415"/>
      <point x="461" y="518"/>
      <point x="271" y="518" type="curve" smooth="yes"/>
      <point x="163" y="518"/>
      <point x="84" y="476"/>
      <point x="57" y="453" type="curve"/>
      <point x="57" y="353" type="line"/>
      <point x="152" y="353" type="line"/>
      <point x="152" y="462" type="line"/>
      <point x="119" y="457"/>
      <point x="94" y="438"/>
      <point x="104" y="406" type="curve"/>
      <point x="130" y="448"/>
      <point x="195" y="479"/>
      <point x="271" y="479" type="curve" smooth="yes"/>
      <point x="407" y="479"/>
      <point x="478" y="390"/>
      <point x="478" y="254" type="curve" smooth="yes"/>
      <point x="478" y="115"/>
      <point x="407" y="29"/>
      <point x="271" y="29" type="curve" smooth="yes"/>
      <point x="197" y="29"/>
      <point x="130" y="62"/>
      <point x="104" y="104" type="curve"/>
      <point x="94" y="72"/>
      <point x="119" y="51"/>
      <point x="152" y="46" type="curve"/>
      <point x="152" y="155" type="line"/>
      <point x="57" y="155" type="line"/>
      <point x="57" y="55" type="line"/>
      <point x="84" y="32"/>
      <point x="163" y="-10"/>
    </contour>
  </outline>
</glyph>
<glyph name="Geupcyr" format="2">
  <advance width="665"/>
  <unicode hex="0490"/>
  <anchor x="312.55" y="741" name="top"/>
  <outline>
    <contour>
      <point x="258" y="670" type="line"/>
      <point x="630" y="670" type="line"/>
      <point x="630" y="865" type="line"/>
      <point x="580" y="865" type="line"/>
      <point x="568" y="753" type="line" smooth="yes"/>
      <point x="564" y="717"/>
      <point x="525" y="710"/>
      <point x="454" y="710" type="curve" smooth="yes"/>
      <point x="61" y="710" type="line"/>
      <point x="61" y="676" type="line"/>
      <point x="74" y="676" type="line" smooth="yes"/>
      <point x="123" y="676"/>
      <point x="159" y="669"/>
      <point x="159" y="640" type="curve" smooth="yes"/>
      <point x="159" y="70" type="line" smooth="yes"/>
      <point x="159" y="41"/>
      <point x="123" y="34"/>
      <point x="74" y="34" type="curve" smooth="yes"/>
      <point x="61" y="34" type="line"/>
      <point x="61" y="0" type="line"/>
      <point x="378" y="0" type="line"/>
      <point x="378" y="34" type="line"/>
      <point x="358" y="34" type="line" smooth="yes"/>
      <point x="313" y="34"/>
      <point x="258" y="35"/>
      <point x="258" y="70" type="curve" smooth="yes"/>
    </contour>
  </outline>
</glyph>
<glyph name="geupcyr" format="2">
  <advance width="571"/>
  <unicode hex="0491"/>
  <anchor x="268.37" y="508" name="top"/>
  <outline>
    <contour>
      <point x="136" y="67" type="line" smooth="yes"/>
      <point x="136" y="39"/>
      <point x="102" y="32"/>
      <point x="54" y="32" type="curve" smooth="yes"/>
      <point x="52" y="32" type="line"/>
      <point x="52" y="0" type="line"/>
      <point x="343" y="0" type="line"/>
      <point x="343" y="32" type="line"/>
      <point x="325" y="32" type="line" smooth="yes"/>
      <point x="293" y="32"/>
      <point x="231" y="35"/>
      <point x="231" y="65" type="curve" smooth="yes"/>
      <point x="231" y="508" type="line"/>
      <point x="52" y="508" type="line"/>
      <point x="52" y="476" type="line"/>
      <point x="54" y="476" type="line" smooth="yes"/>
      <point x="102" y="476"/>
      <point x="136" y="469"/>
      <point x="136" y="441" type="curve" smooth="yes"/>
    </contour>
    <contour>
      <point x="205" y="508" type="line"/>
      <point x="205" y="470" type="line"/>
      <point x="531" y="470" type="line"/>
      <point x="531" y="648" type="line"/>
      <point x="486" y="648" type="line"/>
      <point x="475" y="550" type="line" smooth="yes"/>
      <point x="471" y="514"/>
      <point x="448" y="508"/>
      <point x="386" y="508" type="curve" smooth="yes"/>
    </contour>
  </outline>
</glyph>
<glyph name="Kaverticalstrokecyr" format="2">
  <advance width="923"/>
  <unicode hex="049C"/>
  <guideline x="480" y="796" angle="90" identifier="LxfLwWU0sJ"/>
  <anchor x="479.96" y="741" name="top"/>
  <outline>
    <contour>
      <point x="378" y="171" type="line"/>
      <point x="418" y="171" type="line"/>
      <point x="418" y="544" type="line"/>
      <point x="378" y="544" type="line"/>
    </contour>
    <contour>
      <point x="61" y="0" type="line"/>
      <point x="356" y="0" type="line"/>
      <point x="356" y="34" type="line"/>
      <point x="345" y="34" type="line" smooth="yes"/>
      <point x="306" y="34"/>
      <point x="258" y="37"/>
      <point x="258" y="44" type="curve" smooth="yes"/>
      <point x="258" y="666" type="line" smooth="yes"/>
      <point x="258" y="673"/>
      <point x="306" y="676"/>
      <point x="345" y="676" type="curve" smooth="yes"/>
      <point x="356" y="676" type="line"/>
      <point x="356" y="710" type="line"/>
      <point x="61" y="710" type="line"/>
      <point x="61" y="676" type="line"/>
      <point x="74" y="676" type="line" smooth="yes"/>
      <point x="123" y="676"/>
      <point x="159" y="669"/>
      <point x="159" y="640" type="curve" smooth="yes"/>
      <point x="159" y="70" type="line" smooth="yes"/>
      <point x="159" y="41"/>
      <point x="123" y="34"/>
      <point x="74" y="34" type="curve" smooth="yes"/>
      <point x="61" y="34" type="line"/>
    </contour>
    <contour>
      <point x="610" y="0" type="line"/>
      <point x="901" y="0" type="line"/>
      <point x="901" y="34" type="line"/>
      <point x="888" y="34" type="line" smooth="yes"/>
      <point x="840.9777777778" y="34"/>
      <point x="819" y="39"/>
      <point x="796" y="69" type="curve" smooth="yes"/>
      <point x="537" y="402" type="line"/>
      <point x="511" y="358" type="line"/>
      <point x="747" y="648" type="line" smooth="yes"/>
      <point x="766" y="672"/>
      <point x="811.2989690722" y="676"/>
      <point x="846" y="676" type="curve" smooth="yes"/>
      <point x="865" y="676" type="line"/>
      <point x="865" y="710" type="line"/>
      <point x="621" y="710" type="line"/>
      <point x="621" y="676" type="line"/>
      <point x="632" y="676" type="line" smooth="yes"/>
      <point x="666" y="676"/>
      <point x="707" y="672"/>
      <point x="709" y="665" type="curve"/>
      <point x="467" y="364" type="line"/>
      <point x="467" y="346" type="line"/>
      <point x="701" y="44" type="line"/>
      <point x="701" y="37"/>
      <point x="655" y="34"/>
      <point x="621" y="34" type="curve" smooth="yes"/>
      <point x="610" y="34" type="line"/>
    </contour>
  </outline>
</glyph>
<glyph name="kaverticalstrokecyr" format="2">
  <advance width="803"/>
  <unicode hex="049D"/>
  <guideline x="241" y="553" angle="90" identifier="lmgRx0QBdK"/>
  <anchor x="385.44" y="508" name="top"/>
  <outline>
    <contour>
      <point x="136" y="67" type="line" smooth="yes"/>
      <point x="136" y="39"/>
      <point x="102" y="32"/>
      <point x="54" y="32" type="curve" smooth="yes"/>
      <point x="52" y="32" type="line"/>
      <point x="52" y="0" type="line"/>
      <point x="311" y="0" type="line"/>
      <point x="311" y="32" type="line"/>
      <point x="308" y="32" type="line" smooth="yes"/>
      <point x="279" y="32"/>
      <point x="231" y="35"/>
      <point x="231" y="41" type="curve" smooth="yes"/>
      <point x="231" y="467" type="line" smooth="yes"/>
      <point x="231" y="473"/>
      <point x="279" y="476"/>
      <point x="308" y="476" type="curve" smooth="yes"/>
      <point x="311" y="476" type="line"/>
      <point x="311" y="508" type="line"/>
      <point x="52" y="508" type="line"/>
      <point x="52" y="476" type="line"/>
      <point x="54" y="476" type="line" smooth="yes"/>
      <point x="102" y="476"/>
      <point x="136" y="469"/>
      <point x="136" y="441" type="curve" smooth="yes"/>
    </contour>
    <contour>
      <point x="779" y="0" type="line"/>
      <point x="779" y="32" type="line"/>
      <point x="776" y="32" type="line" smooth="yes"/>
      <point x="736" y="32"/>
      <point x="700" y="38"/>
      <point x="674" y="70" type="curve" smooth="yes"/>
      <point x="479" y="308" type="line"/>
      <point x="452" y="266" type="line"/>
      <point x="616" y="441" type="line" smooth="yes"/>
      <point x="646" y="474"/>
      <point x="677" y="477"/>
      <point x="744" y="477" type="curve"/>
      <point x="746" y="477" type="line"/>
      <point x="746" y="508" type="line"/>
      <point x="475" y="508" type="line"/>
      <point x="475" y="477" type="line"/>
      <point x="479" y="477" type="line" smooth="yes"/>
      <point x="512" y="477"/>
      <point x="578" y="474"/>
      <point x="578" y="459" type="curve"/>
      <point x="402" y="273" type="line"/>
      <point x="402" y="267" type="line"/>
      <point x="585" y="41" type="line"/>
      <point x="585" y="35"/>
      <point x="541" y="32"/>
      <point x="513" y="32" type="curve" smooth="yes"/>
      <point x="509" y="32" type="line"/>
      <point x="509" y="0" type="line"/>
    </contour>
    <contour>
      <point x="321" y="128" type="line"/>
      <point x="359" y="128" type="line"/>
      <point x="359" y="416" type="line"/>
      <point x="321" y="416" type="line"/>
    </contour>
  </outline>
</glyph>
<glyph name="Entailcyr" format="2">
  <advance width="955"/>
  <unicode hex="04A2"/>
  <anchor x="477.5" y="741" name="top"/>
  <outline>
    <contour>
      <point x="225" y="386" type="line"/>
      <point x="225" y="346" type="line"/>
      <point x="734" y="346" type="line"/>
      <point x="734" y="386" type="line"/>
    </contour>
    <contour>
      <point x="61" y="0" type="line"/>
      <point x="356" y="0" type="line"/>
      <point x="356" y="34" type="line"/>
      <point x="345" y="34" type="line" smooth="yes"/>
      <point x="306" y="34"/>
      <point x="258" y="37"/>
      <point x="258" y="44" type="curve" smooth="yes"/>
      <point x="258" y="666" type="line" smooth="yes"/>
      <point x="258" y="673"/>
      <point x="306" y="676"/>
      <point x="345" y="676" type="curve" smooth="yes"/>
      <point x="356" y="676" type="line"/>
      <point x="356" y="710" type="line"/>
      <point x="61" y="710" type="line"/>
      <point x="61" y="676" type="line"/>
      <point x="74" y="676" type="line" smooth="yes"/>
      <point x="123" y="676"/>
      <point x="159" y="669"/>
      <point x="159" y="640" type="curve" smooth="yes"/>
      <point x="159" y="70" type="line" smooth="yes"/>
      <point x="159" y="41"/>
      <point x="123" y="34"/>
      <point x="74" y="34" type="curve" smooth="yes"/>
      <point x="61" y="34" type="line"/>
    </contour>
    <contour>
      <point x="599" y="0" type="line"/>
      <point x="796" y="0" type="line"/>
      <point x="796" y="640" type="line"/>
      <point x="796" y="669"/>
      <point x="832" y="676"/>
      <point x="881" y="676" type="curve" smooth="yes"/>
      <point x="894" y="676" type="line"/>
      <point x="894" y="710" type="line"/>
      <point x="599" y="710" type="line"/>
      <point x="599" y="676" type="line"/>
      <point x="609" y="676" type="line" smooth="yes"/>
      <point x="647" y="676"/>
      <point x="697" y="673"/>
      <point x="697" y="666" type="curve"/>
      <point x="697" y="44" type="line" smooth="yes"/>
      <point x="697" y="37"/>
      <point x="647" y="34"/>
      <point x="609" y="34" type="curve" smooth="yes"/>
      <point x="599" y="34" type="line"/>
    </contour>
    <contour>
      <point x="737" y="0" type="line" smooth="yes"/>
      <point x="805" y="0"/>
      <point x="843" y="-7"/>
      <point x="847" y="-43" type="curve" smooth="yes"/>
      <point x="859" y="-155" type="line"/>
      <point x="909" y="-155" type="line"/>
      <point x="909" y="40" type="line"/>
      <point x="712" y="40" type="line"/>
      <point x="712" y="0" type="line"/>
    </contour>
  </outline>
</glyph>
<glyph name="entailcyr" format="2">
  <advance width="746"/>
  <unicode hex="04A3"/>
  <anchor x="365.54" y="508" name="top"/>
  <outline>
    <contour>
      <point x="136" y="67" type="line" smooth="yes"/>
      <point x="136" y="39"/>
      <point x="102" y="32"/>
      <point x="54" y="32" type="curve" smooth="yes"/>
      <point x="52" y="32" type="line"/>
      <point x="52" y="0" type="line"/>
      <point x="304" y="0" type="line"/>
      <point x="304" y="32" type="line"/>
      <point x="301" y="32" type="line" smooth="yes"/>
      <point x="274" y="32"/>
      <point x="231" y="35"/>
      <point x="231" y="41" type="curve" smooth="yes"/>
      <point x="231" y="467" type="line" smooth="yes"/>
      <point x="231" y="473"/>
      <point x="274" y="476"/>
      <point x="301" y="476" type="curve" smooth="yes"/>
      <point x="304" y="476" type="line"/>
      <point x="304" y="508" type="line"/>
      <point x="52" y="508" type="line"/>
      <point x="52" y="476" type="line"/>
      <point x="54" y="476" type="line" smooth="yes"/>
      <point x="102" y="476"/>
      <point x="136" y="469"/>
      <point x="136" y="441" type="curve" smooth="yes"/>
    </contour>
    <contour>
      <point x="510" y="41" type="line" smooth="yes"/>
      <point x="510" y="35"/>
      <point x="467" y="32"/>
      <point x="440" y="32" type="curve" smooth="yes"/>
      <point x="437" y="32" type="line"/>
      <point x="437" y="0" type="line"/>
      <point x="605" y="0" type="line"/>
      <point x="605" y="441" type="line" smooth="yes"/>
      <point x="605" y="469"/>
      <point x="639" y="476"/>
      <point x="687" y="476" type="curve" smooth="yes"/>
      <point x="689" y="476" type="line"/>
      <point x="689" y="508" type="line"/>
      <point x="437" y="508" type="line"/>
      <point x="437" y="476" type="line"/>
      <point x="440" y="476" type="line" smooth="yes"/>
      <point x="467" y="476"/>
      <point x="510" y="473"/>
      <point x="510" y="467" type="curve" smooth="yes"/>
    </contour>
    <contour>
      <point x="186" y="245" type="line"/>
      <point x="576" y="245" type="line"/>
      <point x="576" y="283" type="line"/>
      <point x="186" y="283" type="line"/>
    </contour>
    <contour>
      <point x="531" y="0" type="line"/>
      <point x="559" y="0" type="line" smooth="yes"/>
      <point x="621" y="0"/>
      <point x="644" y="-6"/>
      <point x="648" y="-42" type="curve" smooth="yes"/>
      <point x="659" y="-140" type="line"/>
      <point x="704" y="-140" type="line"/>
      <point x="704" y="38" type="line"/>
      <point x="531" y="38" type="line"/>
    </contour>
  </outline>
</glyph>
<glyph name="Tetailcyr" format="2">
  <advance width="771"/>
  <unicode hex="04AC"/>
  <anchor x="377.79" y="741" name="top"/>
  <outline>
    <contour>
      <point x="336" y="70" type="line" smooth="yes"/>
      <point x="336" y="41"/>
      <point x="294" y="34"/>
      <point x="236" y="34" type="curve" smooth="yes"/>
      <point x="217" y="34" type="line"/>
      <point x="217" y="0" type="line"/>
      <point x="435" y="0" type="line"/>
      <point x="435" y="670" type="line"/>
      <point x="511" y="670" type="line" smooth="yes"/>
      <point x="623" y="670"/>
      <point x="664" y="661"/>
      <point x="671" y="604" type="curve" smooth="yes"/>
      <point x="681" y="519" type="line"/>
      <point x="731" y="519" type="line"/>
      <point x="731" y="710" type="line"/>
      <point x="40" y="710" type="line"/>
      <point x="40" y="519" type="line"/>
      <point x="90" y="519" type="line"/>
      <point x="100" y="604" type="line" smooth="yes"/>
      <point x="107" y="661"/>
      <point x="148" y="670"/>
      <point x="260" y="670" type="curve" smooth="yes"/>
      <point x="336" y="670" type="line"/>
    </contour>
    <contour>
      <point x="395" y="0" type="line" smooth="yes"/>
      <point x="460" y="0"/>
      <point x="498" y="-8"/>
      <point x="502" y="-42" type="curve" smooth="yes"/>
      <point x="514" y="-155" type="line"/>
      <point x="564" y="-155" type="line"/>
      <point x="564" y="40" type="line"/>
      <point x="367" y="40" type="line"/>
      <point x="367" y="0" type="line"/>
    </contour>
  </outline>
</glyph>
<glyph name="Ustraightstrokecyr" format="2">
  <advance width="791"/>
  <unicode hex="04B0"/>
  <anchor x="395.5" y="741" name="top"/>
  <anchor x="395.5" y="0" name="bottom"/>
  <outline>
    <contour>
      <point x="181" y="292" type="line"/>
      <point x="181" y="252" type="line"/>
      <point x="611" y="252" type="line"/>
      <point x="611" y="292" type="line"/>
    </contour>
    <contour>
      <point x="346" y="316" type="line"/>
      <point x="346" y="70" type="line" smooth="yes"/>
      <point x="346" y="41"/>
      <point x="310" y="34"/>
      <point x="261" y="34" type="curve" smooth="yes"/>
      <point x="243" y="34" type="line"/>
      <point x="243" y="0" type="line"/>
      <point x="549" y="0" type="line"/>
      <point x="549" y="34" type="line"/>
      <point x="530" y="34" type="line" smooth="yes"/>
      <point x="482" y="34"/>
      <point x="446" y="41"/>
      <point x="446" y="70" type="curve" smooth="yes"/>
      <point x="446" y="316" type="line"/>
      <point x="430" y="269" type="line"/>
      <point x="679" y="635" type="line" smooth="yes"/>
      <point x="704" y="671"/>
      <point x="733" y="676"/>
      <point x="770" y="676" type="curve" smooth="yes"/>
      <point x="776" y="676" type="line"/>
      <point x="776" y="710" type="line"/>
      <point x="520" y="710" type="line"/>
      <point x="520" y="676" type="line"/>
      <point x="537" y="676" type="line" smooth="yes"/>
      <point x="589" y="676"/>
      <point x="641" y="669"/>
      <point x="641" y="658" type="curve"/>
      <point x="415" y="322" type="line"/>
      <point x="431" y="322" type="line"/>
      <point x="200" y="663" type="line"/>
      <point x="200" y="670"/>
      <point x="239" y="676"/>
      <point x="274" y="676" type="curve" smooth="yes"/>
      <point x="294" y="676" type="line"/>
      <point x="294" y="710" type="line"/>
      <point x="15" y="710" type="line"/>
      <point x="15" y="676" type="line"/>
      <point x="21" y="676" type="line" smooth="yes"/>
      <point x="58" y="676"/>
      <point x="83" y="673"/>
      <point x="101" y="647" type="curve" smooth="yes"/>
      <point x="361" y="271" type="line"/>
    </contour>
  </outline>
</glyph>
<glyph name="ustraightstrokecyr" format="2">
  <advance width="648"/>
  <unicode hex="04B1"/>
  <anchor x="336.96" y="508" name="top"/>
  <outline>
    <contour>
      <point x="515" y="0" type="line"/>
      <point x="136" y="0" type="line"/>
      <point x="136" y="-38" type="line"/>
      <point x="515" y="-38" type="line"/>
    </contour>
    <contour>
      <point x="373" y="0" type="line"/>
      <point x="561" y="435" type="line" smooth="yes"/>
      <point x="575" y="468"/>
      <point x="606" y="477"/>
      <point x="638" y="477" type="curve"/>
      <point x="641" y="477" type="line"/>
      <point x="641" y="508" type="line"/>
      <point x="412" y="508" type="line"/>
      <point x="412" y="477" type="line"/>
      <point x="414" y="477" type="line" smooth="yes"/>
      <point x="470" y="477"/>
      <point x="517" y="468"/>
      <point x="519" y="456" type="curve"/>
      <point x="345" y="40" type="line"/>
      <point x="351" y="39" type="line"/>
      <point x="172" y="468" type="line"/>
      <point x="172" y="475"/>
      <point x="220" y="477"/>
      <point x="266" y="477" type="curve" smooth="yes"/>
      <point x="269" y="477" type="line"/>
      <point x="269" y="508" type="line"/>
      <point x="7" y="508" type="line"/>
      <point x="7" y="477" type="line"/>
      <point x="9" y="477" type="line" smooth="yes"/>
      <point x="50" y="477"/>
      <point x="74" y="469"/>
      <point x="85" y="443" type="curve" smooth="yes"/>
      <point x="278" y="0" type="line"/>
    </contour>
    <contour>
      <point x="278" y="0" type="line"/>
      <point x="278" y="-156" type="line" smooth="yes"/>
      <point x="278" y="-184"/>
      <point x="244" y="-191"/>
      <point x="197" y="-191" type="curve"/>
      <point x="194" y="-191" type="line"/>
      <point x="194" y="-223" type="line"/>
      <point x="457" y="-223" type="line"/>
      <point x="457" y="-191" type="line"/>
      <point x="454" y="-191" type="line"/>
      <point x="407" y="-191"/>
      <point x="373" y="-184"/>
      <point x="373" y="-156" type="curve" smooth="yes"/>
      <point x="373" y="0" type="line"/>
    </contour>
  </outline>
</glyph>
